<?xml version="1.0" encoding="utf-8"?>
<!-- Generator: Adobe Illustrator 27.0.0, SVG Export Plug-In . SVG Version: 6.00 Build 0)  -->
<svg version="1.1" id="Layer_1" xmlns="http://www.w3.org/2000/svg" xmlns:xlink="http://www.w3.org/1999/xlink" x="0px" y="0px"
	 viewBox="0 0 367 704" style="enable-background:new 0 0 367 704;" xml:space="preserve">
<g>
	<g>
		<path d="M363,105c0,2.7,0,5.3,0,8c-3.2,0-6.3,0-9.5-0.1c-1.9-0.1-2.6,0.7-2.6,2.6c0,12.3,0,24.6,0,36.9c0,0.9,0,2.7,1,2.3
			c3.6-1.6,7.7,0.6,11-1.7c0,2.7,0,5.3,0,8c-0.7,0-1.4-0.2-2,0c-17.1,3.1-34.3,4.8-51.7,3.9c-4.5-0.2-5.5,1.1-5.5,5.5
			c0.1,95.9,0.1,191.9,0.1,287.8c0,82.3,0.1,164.6,0.1,246.9c-101,0-202,0-303,0C1,471.8,1,238.7,0.9,5.5c0-3.7,0.8-4.6,4.6-4.6
			C105,1,204.5,1,304,1c0,33.6,0,67.1-0.2,100.7c0,3.5,0.8,4.6,4.4,4.4c9.9-0.5,19.6-2.3,29.5-2.1C346.2,104.2,354.5,105.8,363,105z
			 M298.3,344.3c0-58.1-0.1-116.3,0.1-174.4c0-4.3-1.1-5.9-5.4-5.8c-9.7,0.2-19.3,0-29-0.2c-3.2-0.1-3.1,1.1-2.3,3.6
			c1.9,6.2,3.5,12.5,5.4,18.7c0.7,2.1,0.1,3.6-0.7,5.6c-2.1,5.1-6.4,5.4-10.9,6.2c-7.8,1.3-16.3-0.4-22.9,5.8
			c-1.2,1.1-3.2,1.4-4.8,0.8c-2.3-0.9-4.1-0.3-6.2,0.5c-2.9,1.1-5.5,1.1-8.6-0.5c-3.5-1.9-7.6-0.3-11.1,0.7c-2.1,0.6-1.6,4-2,6.3
			c-1.2,7.2-2.5,14.4-3.5,21.7c-1.4,9.9-4.9,19.7-4.2,29.6c1.8,24.6,4.8,49,7.2,73.5c1.3,13.2,3.8,26.5,3.5,39.8
			c-0.6,27.4-2.4,54.8-4.3,82.2c-0.5,7.2,0.6,14.7-2.4,21.7c-0.8,2,1.1,3.4,3.1,3.6c1.8,0.2,3.7,0,5.5-0.3c7-0.8,11.7,2.1,13.3,8.8
			c0.7,2.8,2.2,4,4.8,5c23.4,8.2,46.7,16.4,70,24.9c4,1.4,4.9,1,4.9-3.4c0-31,0.2-61.9,0.3-92.9
			C298.3,398.6,298.3,371.5,298.3,344.3z M6.9,418.4c0.1,0,0.2,0,0.2,0c0,33.6,0,67.3,0,100.9c0,2.7-0.5,5.6,4.1,4.2
			c32-10,64.1-20,96.1-29.9c2.3-0.7,2.9-2.1,3.8-4.3c2-4.7,0.7-9.1,0.8-13.6c0.2-10,1.2-19.9,1.8-29.9c2.7-40.5,4.1-81.1,5.2-121.7
			c0.1-2.8-7-7.7-8.3-5.7c-3.3,4.6-7.1,2-10.2,1.2c-4.6-1.2-9.9-2.7-12.2-7.5c-0.9-1.9-1.8-2.8-3.5-3.4
			c-11.3-3.9-22.5-8.1-33.9-11.8c-3.8-1.3-5.8-3-4.4-7.2c1.3-4,3.7-4.8,7.7-3.4c11.2,3.6,22.6,6.8,33.9,10.3c2.4,0.7,3.1,0.6,3-2.3
			c-0.5-8.1-0.7-16.2-0.8-24.4c-0.1-14.6-2.7-29.2-0.5-43.8c0.1-0.9,0.1-1.7-0.8-2.1c-6.3-3-6.8-7.9-4.3-13.7
			c0.6-1.3,0.5-2.9,0.6-4.4c0.2-2.6,0.8-5,3.2-6.4c1.1-0.6,1.5-1.5,1.9-2.7c3.8-10.2,9.3-19.8,11.3-30.7c0.7-3.7,0.5-4-2.8-4
			c-17,0-34,0.1-51-0.4c-4.9-0.1-6.9,1.7-7.8,6c-6.1,26.7-0.7,50.4,18.4,70.4c2.4,2.5,3.1,4.1,0.9,7c-1.9,2.6-2.8,5.9-1.9,8.9
			c0.8,2.9-0.8,3.5-2.7,4.3C35.3,266,29,286.4,40.7,303.7c1.4,2,1.7,3.3-0.6,4.8c-3.1,2-5.7,4.7-7.2,8.1c-1.3,2.7-2.7,2.7-5.1,1.6
			c-5-2.3-10.2-3.8-15.7-4.6c-4-0.6-5.3,0.5-5.3,4.9C7,351.7,6.9,385,6.9,418.4z M213.8,115.2c-2-3.9-1.4-6,3-5.9
			c1,0,1.8-0.5,2.6-1.2c4.7-4.8,13.7-5.2,19.1-1.4c3,2.1,5.2,5.8,9.7,5.4c15.6-1.5,31.1-2.9,46.7-4.3c2.4-0.2,3.5-1.2,3.4-3.8
			c-0.2-5.5-0.1-11,0-16.5c0-2.8-1.2-3.6-3.9-3.9c-14.2-1.7-27.4,1-39.4,8.7c-2,1.3-3.3,1.5-4.9-0.7c-6.4-8.5-15.1-12.2-25.6-11.8
			c-2.7,0.1-3.6-0.7-4.3-3.4c-6.6-25.9-30.9-46.1-61.1-42.9c-21.5,2.2-36.9,13.4-46,32.5c-3.1,6.6-5.4,11.8-13.9,9.7
			c-0.6-0.1-1.3,0.2-1.9,0.4c-20.3,5-29.5,24.1-20.5,43.3c0.9,2,0.7,2.7-1.1,3.8c-2.4,1.5-5.5,2.1-6.9,5.2c0.6,0.2,0.9,0.4,1.2,0.3
			c20.9-1.9,41.8-3.7,62.7-5.7c1-0.1,3.5,0.4,2.9-1.5c-0.6-2.1,0.9-5.5-1.9-6c-3.2-0.6-2.4-1.9-2-4c0.4-2.4,1.8-4.2,2.7-6.3
			c4.9-11.5,13.1-18.1,26.3-17.3c5,0.3,11-1.5,14.7,0.7c4,2.4,4.2,9,5.7,13.9c1.1,3.3,2.8,5.4,6,6.7c2.9,1.2,6,2.4,9.4,5.2
			c-5.2,0.2-9.3,0.4-13.4,0.6c-1.2,0.1-3-0.4-3,1.6c-0.1,2.6,2,1.8,3.3,1.7C193.2,117.1,203.3,116.2,213.8,115.2z M161.6,553.2
			C161.6,553.2,161.6,553.2,161.6,553.2c-0.1-11.3-0.3-22.6,0-33.9c0.1-4.1-0.8-4.8-4.7-3.7c-17.5,4.9-35,9.5-52.5,14.2
			c-31.2,8.4-62.3,16.8-93.5,25c-3.2,0.8-4.2,2.2-4.1,5.4c0.2,7.7,0.1,15.3,0.1,23c0,9.4,0,9.3,9.6,8.7c2.4-0.1,3.2-0.9,3.1-3.3
			c-0.1-4.6,0-9.3-0.1-13.9c-0.1-2.3,0.5-3.5,3.1-4c15.6-3.4,31.2-6.9,46.7-10.5c2.8-0.6,3.1,0.6,3,2.8c-0.1,2.7-2.2,2.6-3.9,3
			c-9.1,2-18.2,4-27.3,6c-12.4,2.7-12.2,2.7-12.1,15.4c0,3.6,1.5,4.1,4.4,4.1c17.3,0.1,34.6,0.1,51.9,0.5c4.1,0.1,5-1.4,4.9-5.1
			c-0.2-9,0.1-18-0.2-27c-0.1-3.6,0.9-5.2,4.6-5.9c14.7-3,29.2-6.5,43.9-9.6c1.4-0.3,4-2.5,4.7,1.2c0.5,2.9-1.3,3.5-3.7,4
			c-11.9,2.5-23.7,5.3-35.6,7.8c-2.9,0.6-4.1,1.8-4,4.9c0.2,8.3,0.2,16.6,0,25c-0.1,3.3,1,4.4,4.2,4.4c17.8,0,35.6,0.1,53.4,0.4
			c3.2,0,3.9-1.1,3.9-4C161.5,576.4,161.6,564.8,161.6,553.2z M260.9,155.5c0-0.2,0-0.4,0-0.6c26.6,0,53.3-0.1,79.9,0.1
			c4.5,0,5.2-1.5,5.1-5.4c-0.2-10.3-0.4-20.6,0-31c0.2-4.8-1.4-5.9-5.9-5.5c-30.3,2.6-60.7,5.2-91,7.5c-9.1,0.7-18.2,3.2-27.2,3.1
			c-10.7-0.1-21.2,1.5-31.8,1.8c-2.2,0.1-5.7-0.3-3.1,3.9c0.5,0.8,0.2,1.9-0.7,2.1c-6,1.2-4.5,5.8-4.1,9.4c0.6,5.1-0.9,7.1-6.1,6.1
			c-2.4-0.4-3.4,0.2-2.2,3c1.6,3.7,3.6,5.6,8.1,5.5C208.3,155.3,234.6,155.5,260.9,155.5z M161.6,495c0-2,0-4,0-6
			c0-5.8,0-5.8-5.6-4.1c-46,14.3-92,28.6-138,42.9C6.8,531.3,6.9,531.3,6.9,543c0,3.8,0.8,4.3,4.5,3.3c46.6-12.7,93.3-25.2,140-37.7
			C161.7,505.8,161.7,505.8,161.6,495z M166.9,423.2c-0.6-17.4,1.4-38.2-2-58.9c-1.4-8.4-2.1-16.8-3.1-25.2
			c-0.2-1.6-0.7-3.2-2.3-3.5c-2-0.4-1.9,1.6-2.1,2.7c-2.4,17.8-5.2,35.5-7.1,53.3c-3,29.1-5.4,58.2-8.3,87.3
			c-0.4,3.6,0.6,3.7,3.3,2.8c5.7-1.8,11.3-4.3,17.2-5c4.2-0.5,4.5-1.9,4.4-5.3C166.8,456.5,166.9,441.5,166.9,423.2z M79.3,155.8
			C79.3,155.8,79.3,155.8,79.3,155.8c7.7,0.1,15.3,0.1,23,0.1c9,0,18,0.5,26.8-1.7c5-1.3,10.4-2,12.3-8.3c0.6-2,0.8-2.4-1.2-3.1
			c-4.5-1.6-6-5.4-5-9.6c0.8-3.2-0.7-2.9-2.6-3c-1.3,0-2.7,0-4,0.1c-27.8,2.3-55.7,4.6-83.5,6.9c-8.3,0.7-8.3,0.5-8.1,8.5
			c0.1,2,0.2,4,0,6c-0.3,3.4,1.1,4.2,4.3,4.1C54,155.7,66.7,155.8,79.3,155.8z M120.9,224.7c-3.3,4.6-3.6,10-8.1,12.8
			c-0.7,0.4-0.8,2.1-0.9,3.2c-1.6,15.3-3.4,30.7-4.6,46.1c-0.4,4.6-2.1,10.5,4.5,13.1c1.3,0.5,1,2,1.4,3c1,2.2,3.3,2.5,5.1,2.4
			c1.9-0.2,1.2-2.5,1.2-3.8c0.3-4.6,0.5-9.3,0.3-13.9c-0.3-10.4,0.8-20.5,4.5-30.3c0.5-1.2,0.9-2.6,0.7-3.9
			C123.8,244.2,122.4,234.9,120.9,224.7z M103,221.4c-0.7-1.3-1.4-2.5-1.9-3.8c-0.6-1.7-0.8-3.2,1.5-3.9c1.3-0.4,3.5,0.2,3.4-2
			c0-1.6-1.9-2.1-3.3-2.7c-1-0.5-2.1-0.9-3.2-1.5c-1.3-0.7-2.9-1.5-2.7-3.2c0.3-2.3,2.4-1,3.6-1.4c1.6-0.4,4.3,0.9,4.3-1.9
			c0-6.4,2.7-12.1,3.6-18.2c1.4-9.5,6.7-15.2,15.6-18.1c3.8-1.2,7.5-2.6,11.3-4c2.5-0.9,5.2-1.1,7.2-3.3c-1.8-1.3-3.7-3.1-5.8-2.3
			c-8.6,3.3-17.9,3.6-26.6,6.4c-3.9,1.3-6.4,3.6-7.2,7.5c-2.5,12.4-6.9,24-14.6,34.2c-0.5,0.6-0.5,1.6-0.6,2.4
			c-0.4,3-0.7,5.9-1.7,8.7c-1.2,3.3,0.7,5.3,4.1,4.7C94.8,218.3,99.1,218.2,103,221.4z M122.3,625.8c2,7.3,3.8,13.5,5.4,19.8
			c0.6,2.3,1.4,3.4,3.9,3.5c2.7,0.1,3.3-1.5,3.9-3.5c1.9-6.2,3.9-12.4,6.2-19.9c0.4,7.5,0.9,13.6,1,19.8c0,3,0.9,3.9,3.9,4
			c3.8,0.1,3.5-2,3.4-4.4c-0.4-7.8-0.8-15.6-1.4-23.4c-0.1-1.8,1-4.9-2.6-4.8c-3.3,0.1-7.5-1.9-8.8,3.7c-1.3,5.5-3.2,10.8-5.1,17.4
			c-1.9-7-3.4-12.8-5.1-18.5c-1.5-4.9-5.6-2.2-8.5-2.6c-2.8-0.4-2.4,2.1-2.5,3.9c-0.5,8.3-1,16.6-1.6,24.9c-0.2,2.3-0.1,3.8,2.9,3.7
			c2.5-0.1,4.1-0.2,4.1-3.4C121.4,639.6,121.9,633.4,122.3,625.8z M191.9,637.8c-1.9-6.8-3.5-12.4-5.1-18.1c-1.4-5-5.4-2.5-8.3-2.9
			c-3.3-0.5-2.6,2.3-2.7,4.1c-0.6,8.1-1.2,16.3-1.7,24.4c-0.1,1.9-0.7,4.1,2.7,4c2.7-0.1,4.4-0.2,4.4-3.7c0-6.1,0.6-12.1,0.9-18.2
			c2.1,5.9,3.7,11.9,5.3,17.8c0.5,1.9,0.8,3.7,3.7,3.8c2.9,0.1,3.6-1.5,4.3-3.8c1.8-6.1,3.8-12.1,5.7-18.2c0.5,0.1,0.9,0.1,1.4,0.2
			c0,6.3,0.2,12.6-0.1,19c-0.1,3.7,2.2,2.9,4.3,3.1c2.7,0.3,3.3-0.9,3.1-3.5c-0.6-8.1-0.9-16.3-1.5-24.4c-0.1-1.9,1-4.9-2.7-4.6
			c-3.1,0.2-7.1-1.8-8.5,3.5C195.7,625.8,193.8,631.3,191.9,637.8z M7.5,553.8c0.8-0.2,1.5-0.4,2.3-0.6
			c26.8-7.2,53.6-14.4,80.4-21.6c22.6-6.1,45.3-12.2,67.9-18.3c2.1-0.6,4.1-1,3.4-3.8c-0.9-3.4-3.1-0.9-4.3-0.6
			c-10,2.5-19.9,5.2-29.9,7.9c-38.7,10.4-77.4,20.8-116,31.2C8.4,549,5.5,549.6,7.5,553.8z M113.2,306.2c-2.6,0.3-3.1,2.6-3.7,4.6
			c-0.8,2.8,0.1,4.6,3.1,5.7c16,5.5,32,11.1,47.9,16.9c4,1.5,7.1,2.6,6.7-3.6c-0.1-1,0.7-2.3,1.4-3.1c2.1-2.3,1.6-3.4-1.3-4.2
			c-17.4-5.1-34.7-10.4-52-15.6C114.6,306.6,114,306.4,113.2,306.2z M146.1,109.1c2-1.5,4.8-2.1,5.3-0.3c1.7,6.6,6.5,3.2,10.1,3.6
			c2.4,0.3,3.5-1.4,3.3-3.8c-0.3-4.3-1-8.6-2.3-12.7c-1.8-5.7-4.3-6.9-10.2-5.4c-7.9,2-16.6,11.9-17.8,20c-0.2,1.7,0.5,2.1,1.9,2.1
			c4,0,8,0,12,0c0.6,0,1.4,0.2,1.6-0.7c0.2-0.9-0.3-1.6-1.1-2C147.9,109.7,147,109.4,146.1,109.1z M89.1,628.9c0.1,0,0.1,0,0.2,0
			c0-2.8-0.1-5.7,0-8.5c0.2-2.7-0.7-3.8-3.6-3.8c-3.2-0.1-4,1.2-3.9,4.1c0.2,5.3,0.2,10.6,0,15.9c-0.1,3.7-1.3,7.2-5.8,7.2
			c-4.3,0-5.1-3.6-5.7-6.9c-0.2-1.5-0.1-3-0.1-4.5c0-4.3-0.1-8.6,0-13c0.1-2.8-1.6-2.9-3.6-2.7c-1.7,0.1-3.8-0.6-3.8,2.5
			c0.1,6.5-0.3,13,0.3,19.4c0.7,7.6,5.8,11.6,13.2,11.3c7.4-0.3,12-4.6,12.7-12C89.3,634.9,89.1,631.9,89.1,628.9z M30.2,616.1
			c-7.3,0.1-11.9,3.1-13,7.8c-1.3,5,1.6,8.9,8.3,11.9c2.4,1.1,6.5,1.4,5.3,5.2c-1.2,3.9-5,2.9-8.1,2.3c-0.5-0.1-1-0.1-1.5-0.3
			c-1.9-0.8-3.3-1.2-4,1.6c-0.5,2.3-0.4,3.9,2.2,4.5c3.1,0.7,6.2,1.3,9.4,0.7c5.8-1.2,9-4,9.5-8.7c0.6-4.9-1.6-7.8-7.1-10.7
			c-2.5-1.3-7.6-1.2-6.5-5.3c1.1-4,5.4-2.8,8.6-1.9c2.5,0.7,2.7-1,3.3-2.5c0.7-2,0.2-3.2-2-3.6C32.9,616.7,31.1,616.2,30.2,616.1z
			 M199.2,159.1c3.7,1.3,6.2,1.9,8.9,2c14.8,0.2,29.6,0.5,44.5,0.7c22.8,0.3,45.6-0.2,68.4,0.8c2.7,0.1,5.3,0,8-0.1
			c1.2-0.1,3,0.2,2.9-1.8c-0.1-2-1.9-1.3-3.2-1.5c-0.8-0.1-1.7,0-2.5,0c-21.5,0-43,0-64.5,0C241.3,159.1,220.8,159.1,199.2,159.1z
			 M273.9,635.8C273.9,635.8,273.9,635.8,273.9,635.8c0,3.5,0.2,7,0,10.5c-0.2,3.1,1.6,3,3.7,3.1c2.3,0.1,3.7-0.4,3.7-3.2
			c-0.2-5.5,0.2-11-0.1-16.5c-0.3-4.8,0.5-7.8,6.2-6.7c2.3,0.4,2.7-1.2,2.7-3.1c0-1.9-0.3-3.2-2.6-3.1c-6.7,0.1-13.3,0.1-20,0
			c-2,0-2.5,1-2.5,2.9c0.1,1.8,0.2,3.7,2.5,3.3c6.8-1.3,6.8,2.7,6.3,7.4C273.8,632.1,273.9,633.9,273.9,635.8z M95.1,223.8
			c-1.8-0.2-2.5,1.1-2.9,2.6c-0.9,3.4-1.4,6.8-1.2,10.4c0.4,8.6,0.8,17.3,1.2,25.9c0.3,7,0.7,13.9,1.3,20.9c0.1,1.1-0.3,3.4,2.2,3
			c2.1-0.3,2.7-1.7,2.4-3.6c-0.1-0.7-0.1-1.4-0.3-2c-3.8-8.3-2.5-17-1.3-25.5c1.1-8,1.8-16.1,4.9-23.7
			C102,230,97.1,223.9,95.1,223.8z M89.6,300.5c0.2-1.9-1.4-1.8-2.3-2c-11.4-3.5-22.8-6.9-34.2-10.4c-2.6-0.8-4.1-0.2-4.9,2.4
			c-0.8,2.6,0.5,3.5,2.7,4.3c10.5,3.6,21,7.3,31.5,11C87.9,307.7,89.9,306.2,89.6,300.5z M236.9,117.7c0.2,0,0.3,0,0.5,0
			c30.4-2.6,60.9-5.2,91.3-7.8c1.3-0.1,3.4,0.6,3-2c-0.4-2.5-2.3-1.2-3.5-1.1c-16.5,1.4-33.1,2.8-49.6,4.3
			c-13.7,1.3-27.4,2.6-41.1,4c-1.1,0.1-2.6-0.1-2.7,1.4C234.5,118.1,236,117.6,236.9,117.7z M162.3,152.5
			c-2.3-7.9-4.3-14.7-6.1-21.5c-0.5-2-1.4-2.1-3.2-1.6c-4.7,1.4-7.5,5.2-8.2,11.4c-0.5,3.9,0.3,6.5,4.8,7.5
			C153.5,149.2,157.3,150.9,162.3,152.5z M159.5,674.7c0.8,3.8,1.3,6.3,1.7,8.7c0.3,1.6,0.9,2.7,2.9,2.7c1.6-0.1,2.4-0.8,2.7-2.3
			c1.1-4.2,2.2-8.4,3.2-12.6c0.3-1,0.8-2.5-1-2.7c-1.4-0.2-2.6,0.3-2.9,2c-0.5,2.6-1,5.2-1.6,8.2c-1.8-2.7-1.4-5.4-2.1-7.7
			c-0.5-1.7-1-2.6-2.9-2.5c-1.8,0.1-2.2,1-2.5,2.4c-0.4,2.4-1,4.7-1.5,7c-1.5-2.5-2-5-2.5-7.5c-0.3-1.8-1.5-2.1-2.9-1.9
			c-1.7,0.3-1.4,1.6-1.1,2.7c1,4.2,2,8.4,2.9,12.6c0.3,1.6,1.2,2.1,2.8,2.2c2,0.1,2.5-1,2.9-2.6C158,681.1,158.6,678.7,159.5,674.7z
			 M234.7,632.7c0,4.5,0.1,9,0,13.4c-0.1,2.9,1.5,3.1,3.7,3.1c2.3,0,3.8-0.2,3.7-3.1c-0.1-8.8-0.1-17.6,0-26.4
			c0.1-2.9-1.5-3.1-3.7-3.1c-2.2,0-3.9,0.2-3.7,3.1C234.9,624.1,234.7,628.4,234.7,632.7z M91.1,307.8c0.4,1.7-1.3,4.4,2.1,5.1
			c2.6,0.5,5.2,0.7,7.8,1.2c3.2,0.5,4-1.1,4-4c0-1.9-0.5-3.9,0.5-5.9c1.8-3.4,0-6.6-3.7-6.9C94.8,296.8,91.3,300.2,91.1,307.8z
			 M144,148.4c-1.4-0.3-1.8,0.5-2.1,1.6c-0.3,1.3-1.8,2.8,0,4c5.3,3.7,10.7,7.3,16,11c1.7,1.2,2.5-0.2,3.1-1.3
			c1.5-2.6,4.5-4.4,4.5-7.8c0-0.2-0.5-0.4-0.8-0.5C157.8,153.1,150.9,150.8,144,148.4z M348.8,134C348.8,134,348.8,134,348.8,134
			c0-2.2,0-4.3,0-6.5c0-2.3,0-4.6,0-7c0.1-9.7,0.1-9.7,9.5-10.2c0.9-0.1,2.2,0.2,2.3-1.1c0.1-1.3-1-1.6-2-1.6
			c-7.3-0.4-14.6-0.8-21.9-1.3c-1.2-0.1-2,0.3-2,1.6c0,1.1,0.5,1.8,1.8,1.8c2.3,0,4.7,0.4,7,0.1c3.8-0.4,4.8,1.2,4.7,4.8
			c-0.2,10.8,0,21.6-0.1,32.4c0,9.7,0,9.7-9.3,11.4c-0.3,0.1-0.7,0.1-1,0.2c-1,0.4-2.7-0.1-2.6,1.6c0.1,2,1.8,1.5,3.1,1.4
			c5.1-0.6,10.2-1.1,15.3-2c2.3-0.4,6.8,0.4,6.5-2.3c-0.3-2.7-4.2-0.6-6.4-0.3c-3.9,0.5-5.3-0.6-5.1-4.7
			C349,146.3,348.8,140.2,348.8,134z M131.9,239.7c-5.8-4.2-3.9-11.4-7.2-17c-1,2.5-0.4,4.3-0.3,6.1c0.4,7.4,3.8,14.1,4.9,21.3
			c0.3,2.1,0.3,4,3.1,4.1c3,0.1,3.6-2,3.6-4.3c0.1-5,0.2-10,0.1-14.9c0-2.6-1-4.8-4.2-5.8C131.9,232.8,131.9,236.3,131.9,239.7z
			 M184.8,677.5c0.1,5.4,3.6,8.9,8.7,8.7c5-0.2,8.6-4.1,8.4-9.2c-0.1-4.9-3.9-8.9-8.4-8.9C188.5,668.1,184.7,672.2,184.8,677.5z
			 M217.4,677.3C217.4,677.3,217.4,677.3,217.4,677.3c0.1,2.3,0,4.6,0.1,6.9c0,1.6,1.1,1.8,2.4,1.8c1.3-0.1,1.8-0.6,1.7-1.9
			c-0.1-0.8,0.1-1.7,0.1-2.5c0.1-0.9-0.4-2.2,1-2.4c1.4-0.2,2.1,0.7,2.4,2c0.2,1,0.6,1.9,0.8,2.9c0.3,1.7,1.5,2.1,2.9,1.9
			c2.3-0.3,1.3-2,1-3c-0.6-3-2.6-5.7,0-8.9c1.2-1.6-0.3-3.9-2.3-4.9c-2.8-1.4-5.9-1.8-8.7-0.6c-2.7,1.2-1,4.2-1.4,6.3
			C217.3,675.7,217.4,676.5,217.4,677.3z M250.2,674.3c-0.1-1-0.2-1.8-0.3-2.5c-0.1-1.5,0.3-3.1-2-3.2c-2.8-0.1-2.2,2-2.2,3.4
			c-0.1,4,0,8,0,12c0,1.4,0.5,2.1,2.1,2.1c1.4,0,2-0.6,2.1-2.1c0.1-1.5-0.7-3.4,1.1-4.5c5.4,6.5,5.4,6.5,9.2,5.9
			c-4.5-5.3-8.4-10.7-0.7-16.3C253.6,666.8,253.3,672.4,250.2,674.3z M71,677.1c0,9.5,0,9.5,8.3,9c1.2-0.1,3.1,0.5,3.1-1.4
			c0.1-2.3-1.9-1.7-3.3-1.9c-1.5-0.2-3.7,0.8-3.8-1.9c-0.1-3.1,2.4-1.9,4-2.2c1.1-0.2,2.5,0.2,2.5-1.6c0.1-2-1.3-2-2.7-2
			c-0.7,0-1.3,0-2,0c-0.8-0.1-1.7-0.2-1.8-1.3c-0.2-1.4,0.7-1.7,1.8-1.7c0.8,0,1.7,0,2.5-0.1c1.2,0,2.4-0.1,2.3-1.8
			c-0.1-1.6-1.2-1.6-2.4-1.8c-8.1-1-8.5-0.6-8.5,7.7C71,676.4,71,676.7,71,677.1z M98.1,677c0,1.3,0.2,2.7,0,4
			c-0.8,4.3,1.2,5.7,5.2,5.2c0.8-0.1,1.7,0,2.5-0.1c1.4-0.2,3.5,0.8,3.7-1.3c0.2-2.7-2.2-1.8-3.7-2c-1.4-0.2-3.2,0.5-3.4-1.8
			c-0.2-2.7,1.9-2.1,3.4-2.3c1.2-0.1,3,0.4,3.1-1.6c0.2-2.4-1.7-1.9-3.1-2c-0.5,0-1,0-1.5-0.1c-0.8-0.1-1.7-0.2-1.8-1.3
			c-0.2-1.4,0.7-1.7,1.8-1.7c0.8,0,1.7-0.1,2.5-0.1c1.2,0,2.4-0.1,2.4-1.8c0-1.7-1.2-1.6-2.4-1.7c-8.1-1.1-8.6-0.7-8.6,7.5
			C98.1,676.3,98.1,676.6,98.1,677z M278.6,686.3c3.6-0.2,6.5-0.9,7.3-4.5c0.7-3.2-1.4-4.8-3.9-6.1c-1.2-0.6-3.5-0.7-3.3-2.4
			c0.3-2.4,2.5-1.4,4.1-1.3c1.1,0.1,2-0.1,2.2-1.4c0.2-0.7,0-1.2-0.6-1.7c-2.1-1.6-7.4-0.7-9.1,1.8c-2.2,3.3-0.8,5.5,2.1,7.4
			c1.6,1,4.8,1,4.2,3.4c-0.6,2.4-3.3,1.5-5.2,1c-1.4-0.4-1.8,0.5-2.1,1.5c-0.2,1,0.4,1.6,1.3,1.8
			C276.7,686.1,277.9,686.2,278.6,686.3z M19.9,682.8c-0.7,0.7-2.7-2.1-3.1,0.9c-0.3,2.6,1.9,2.3,3.4,2.4c3.3,0.2,6.6-0.2,7.7-4
			c1.1-3.7-1.4-5.4-4.4-6.7c-1.1-0.5-2.9-0.7-2.5-2.5c0.4-1.8,2.1-1.1,3.3-1.1c1.2,0,2.4,0.5,2.7-1.3c0.3-2-1.3-2.2-2.5-2.3
			c-3.3-0.4-6.5,0.2-7.8,3.8c-1.2,3.4,1.2,5.2,3.9,6.5c1.4,0.7,3.7,0.7,3,3.1C23.3,683.3,21.6,682.9,19.9,682.8z M47.1,678.4
			c0,2,0,3.7,0,5.3c0,1.7,0.8,2.4,2.5,2.3c1.7-0.1,1.7-1.3,1.7-2.5c0-2.2,0-4.3,0-6.5c0-2.5-0.9-5.7,3.6-5.3c1.1,0.1,1.2-1,1.2-1.8
			c0-1-0.5-1.6-1.5-1.6c-3.5,0-7,0-10.5,0c-1,0-1.4,0.7-1.5,1.6c-0.1,0.7,0.1,1.6,0.8,1.6C49.1,671.6,46.4,676.1,47.1,678.4z
			 M171.6,131.7c0.1-3.5-1.3-4.8-4.5-5c-2.7-0.2-4,1-4.1,3.7c-0.2,4.4,3.8,11.6,6.2,10.6C173.8,139,169.7,134.1,171.6,131.7z
			 M169.3,268.4c3.8,0.8,4.6-1.3,4.7-3.9c0.3-5.4-4-4-6.9-4.5c-3.7-0.7-5.3,1.2-5.2,4.6C162.1,270.7,167.4,266.8,169.3,268.4z
			 M125.1,677.1c-0.1,9.3-0.1,9.3,7.7,8.9c1.3-0.1,3.3,0.7,3.3-1.8c-0.1-2-1.9-1.6-3-1.5c-3.2,0.3-4-1.2-3.8-4.1c0.2-2.6,0-5.3,0-8
			c0-1.3-0.4-2.3-2-2.2c-1.4,0-2.1,0.8-2.1,2.2C125.1,672.8,125.1,675,125.1,677.1z M164.1,115.1c-10.4-1-17.5,6-26,9.7
			c-0.9,0.4-1.2,1.2-0.6,2c0.6,0.8,1.5,0.6,2.3,0.3C147.8,123.1,155.9,119.1,164.1,115.1z M215.4,119.3c-0.1-0.7-0.1-1.3-0.2-2
			c-10.9,1-21.8,2.1-32.7,3.1c0.1,0.5,0.1,1.1,0.2,1.6C193.6,121.2,204.5,120.2,215.4,119.3z M96.4,296c2.2-0.4,3.7-1.5,3.6-3.9
			c0-2.6-1.6-4-4-3.9c-2.2,0.1-3.7,1.5-3.7,3.8C92.3,294.4,93.8,295.8,96.4,296z M61.3,159.3c-0.1,0.1-0.2,0.3-0.2,0.4
			c14.7,0,29.3,0,44,0c0-0.1,0-0.3,0-0.4C90.5,159.3,75.9,159.3,61.3,159.3z M134.5,126.1c0-0.4-0.1-0.8-0.1-1.1
			c-8.8,0.8-17.7,1.6-26.5,2.5c0,0.3,0,0.6,0.1,0.8C116.8,127.5,125.6,126.8,134.5,126.1z M228.5,164.4c1.7,0.8,2.8,1.3,3.9,1.8
			c1.4,0.7,2.1,2,2.9,3.2c0.3,0.4,1.2,0.7,1.7,0.6c0.7-0.1,0.6-0.9,0.7-1.6C238.1,163.8,236.7,163,228.5,164.4z M173.5,336.4
			c5.1-2.6,6-5.5,3.3-9.9C176.4,330.3,175.3,333.5,173.5,336.4z"/>
		<path d="M197.4,677.1c-0.4,2.5-0.5,5.6-4,5.7c-3.4,0.1-4.3-2.7-4.3-5.5c0-2.8,0.7-5.5,4.2-5.5C196.7,671.8,197,674.5,197.4,677.1z
			"/>
		<path d="M223.4,675.9c-1.3,0.2-1.9-0.4-1.7-1.7c0.2-1.2-0.5-2.9,1.7-2.8c1.2,0.1,2.3,0.6,2.4,2C226,675.1,224.8,675.6,223.4,675.9
			z"/>
	</g>
</g>
</svg>
