<?xml version="1.0" encoding="utf-8"?>
<!-- Generator: Adobe Illustrator 27.0.0, SVG Export Plug-In . SVG Version: 6.00 Build 0)  -->
<svg version="1.1" id="Google" xmlns="http://www.w3.org/2000/svg" xmlns:xlink="http://www.w3.org/1999/xlink" x="0px" y="0px"
	 viewBox="0 0 1000 335" style="enable-background:new 0 0 1000 335;" xml:space="preserve">
<style type="text/css">
	.st0{fill:#22242A;}
</style>
<g>
	<path class="st0" d="M248.6,119.9H132.1v34.3H215c-4,48-44,68.5-81.7,68.5c-48.3,0-90.4-38-90.4-91.2c0-51.9,40.1-91.8,90.5-91.8
		c38.8,0,61.7,24.8,61.7,24.8l24-24.8c0,0-30.8-34.3-86.9-34.3C60.6,5.3,5.3,65.7,5.3,130.8C5.3,194.7,57.4,257,134,257
		c67.4,0,116.7-46.2,116.7-114.4C250.7,128.2,248.6,119.9,248.6,119.9L248.6,119.9z"/>
	<path class="st0" d="M347.1,95.1c-47.4,0-81.3,37-81.3,80.2c0,43.8,32.9,81.6,81.9,81.6c44.3,0,80.6-33.9,80.6-80.6
		C428.3,122.6,386.1,95.1,347.1,95.1L347.1,95.1z M347.6,126.8c23.3,0,45.4,18.8,45.4,49.2c0,29.7-22,49.1-45.5,49.1
		c-25.8,0-46.2-20.7-46.2-49.3C301.3,147.8,321.4,126.8,347.6,126.8L347.6,126.8z"/>
	<path class="st0" d="M523,95.1c-47.4,0-81.3,37-81.3,80.2c0,43.8,32.9,81.6,81.9,81.6c44.3,0,80.6-33.9,80.6-80.6
		C604.2,122.6,561.9,95.1,523,95.1L523,95.1z M523.5,126.8c23.3,0,45.4,18.8,45.4,49.2c0,29.7-22,49.1-45.5,49.1
		c-25.8,0-46.2-20.7-46.2-49.3C477.2,147.8,497.3,126.8,523.5,126.8L523.5,126.8z"/>
	<path class="st0" d="M696.5,95.1c-43.5,0-77.7,38.1-77.7,80.8c0,48.7,39.6,81,76.9,81c23.1,0,35.3-9.2,44.4-19.7v16
		c0,27.9-16.9,44.6-42.5,44.6c-24.7,0-37.1-18.4-41.4-28.8l-31.1,13c11,23.3,33.2,47.6,72.8,47.6c43.2,0,76.2-27.2,76.2-84.3V98
		h-33.9v15.7C729.6,102.5,715.4,95.1,696.5,95.1L696.5,95.1z M699.6,126.9c21.3,0,43.2,18.2,43.2,49.3c0,31.6-21.8,49-43.7,49
		c-23.2,0-44.7-18.8-44.7-48.7C654.4,145.4,676.8,126.9,699.6,126.9L699.6,126.9z"/>
	<path class="st0" d="M921.8,94.9c-41,0-75.4,32.6-75.4,80.8c0,50.9,38.4,81.2,79.4,81.2c34.2,0,55.2-18.7,67.8-35.5l-28-18.6
		c-7.3,11.3-19.4,22.3-39.6,22.3c-22.7,0-33.2-12.5-39.7-24.5l108.5-45l-5.6-13.2C978.6,116.5,954.1,95,921.8,94.9L921.8,94.9z
		 M923.2,126.1c14.8,0,25.4,7.9,29.9,17.3l-72.4,30.3C877.6,150.2,899.8,126.1,923.2,126.1L923.2,126.1z"/>
	<rect x="796.6" y="13.7" class="st0" width="33.2" height="238.4"/>
</g>
</svg>
