<?xml version="1.0" encoding="utf-8"?>
<!-- Generator: Adobe Illustrator 27.0.0, SVG Export Plug-In . SVG Version: 6.00 Build 0)  -->
<svg version="1.1" id="Layer_1" xmlns="http://www.w3.org/2000/svg" xmlns:xlink="http://www.w3.org/1999/xlink" x="0px" y="0px"
	 viewBox="0 0 1503.6 464.5" style="enable-background:new 0 0 1503.6 464.5;" xml:space="preserve">
<style type="text/css">
	.st0{fill:#22242A;}
</style>
<path class="st0" d="M353.1,444.4c-5.9-6.4-11-11.4-15.4-16.9c-3.7-4.8-8-4.9-13.1-3.8c0,10.5,0,20.7,0,31c2.9,0,5.3,0,8.4,0
	c0-6.4,0-12.6,0-18.8c0.5-0.1,0.9-0.2,1.4-0.3c4.6,5,9.6,9.7,13.8,15.1c3.7,4.8,8.1,5,13.5,3.9c0-10.3,0-20.5,0-31
	c-2.8,0-5.4,0-8.6,0C353.1,430.1,353.1,436.4,353.1,444.4z"/>
<path class="st0" d="M480,438.7c-3.7-1.8-7.9-2.4-11.9-3.4c-3.1-0.8-6.2-1.3-9.2-2.2c-0.8-0.2-1.7-1.3-1.8-2c-0.1-0.7,1-2.1,1.5-2.1
	c4.3,0,9.9-1.3,12.8,0.8c4.1,3.1,7.4,2.2,12.6,2c-1.7-2.4-2.6-4.4-4.2-5.6c-5.9-4.9-23-4.9-29.1-0.3c-4.3,3.3-4.3,8.2,0.3,11.1
	c2.6,1.6,5.8,2.5,8.8,3.3c4,1.1,8.2,1.6,12.2,2.6c1.1,0.3,2.4,1.6,2.6,2.5c0.1,1-0.9,2.5-1.8,3.1c-3.6,2.6-13,2.4-15.4-1.1
	c-3.2-4.6-6.9-3.1-12.1-2.4c2,2.7,3.2,5.1,5,6.7c6.3,5.1,24.1,5.1,30.6,0.3C486.1,448.1,485.9,441.6,480,438.7z"/>
<path class="st0" d="M565.9,423.4c-1.4,4,0.1,5.1,3.7,4.9c3.1-0.2,6.2,0,10,0c0,9.1,0,17.7,0,26.3c3.5,0,6.2,0,9.9,0
	c0-9.1,0-17.5,0-26.3c3.4,0,6.2-0.1,9,0c3.5,0.2,6.1-0.3,4.2-4.9C590.3,423.4,578,423.4,565.9,423.4z"/>
<path class="st0" d="M99.7,447c-3.2,4.2-8.6,3.7-13.5,2c-4.1-1.4-5.9-4.6-6.2-8.8c-0.3-4.4,0.4-8.5,4.8-10.7
	c4.7-2.4,10.4-3.2,14.2,0.4c4.1,3.9,7.6,2.4,11.6,1.8c0.3-0.5,0.5-0.9,0.8-1.4c-2.1-1.8-3.9-4.1-6.3-5.2c-9.2-4.1-18.5-4.1-27.4,0.8
	c-10.5,5.8-10.4,20.3,0.2,26c8.4,4.6,17.3,4.7,26,0.9c3-1.3,5.3-4.3,8.8-7.3C107,444.3,103.5,442.1,99.7,447z"/>
<path class="st0" d="M1183.8,423.4c-2.9,0-5.7,0-8.8,0c0,10.7,0,20.8,0,31c3.3,0,6.1,0,9.2,0c0-9.8,0-19.1,0-28.4
	C1184.2,425.2,1184,424.4,1183.8,423.4z"/>
<path class="st0" d="M1426.3,444.3c-5.7-6.2-10.7-11.1-15-16.5c-3.7-4.8-8.1-5.7-13.6-4.2c0,10.3,0,20.5,0,30.9c2.9,0,5.4,0,8.8,0
	c0-6.5,0-12.8,0-20.3c5.5,6,10.4,10.6,14.5,15.8c3.7,4.7,8.1,5.8,14,4.3c0-10.4,0-20.6,0-30.9c-2.9,0-5.5,0-8.7,0
	C1426.3,430.1,1426.3,436.4,1426.3,444.3z"/>
<path class="st0" d="M838.2,423.5c0,6.2,0.1,12,0,17.8c-0.1,6.7-2.4,8.8-9.2,8.8c-7.1,0-9.6-2.3-9.7-8.9c-0.1-5.9,0-11.8,0-17.7
	c-3.6,0-6.4,0-9.4,0c0,7.4-0.2,14.5,0.1,21.6c0.1,4,2.5,6.9,6.3,8.2c8.4,3,17,3.2,25.3-0.2c2.3-1,5.1-3.8,5.3-6
	c0.6-7.8,0.2-15.8,0.2-23.6C844.1,423.5,841.4,423.5,838.2,423.5z"/>
<path class="st0" d="M946.9,429.6c4.9-2.4,10.6-3.1,14.6,0.7c4.2,3.9,7.5,2.1,12.3,1.1c-1.8-2-2.9-3.7-4.4-4.9
	c-7.9-6-25-5.2-32.4,1.5c-5.2,4.7-6.4,13.3-2.6,19.2c6.9,10.6,30.2,11.3,37.7,1c0.5-0.7,0.8-1.4,1.5-2.7c-4.6-1.1-8.1-3.3-11.8,1.6
	c-3.2,4.2-8.6,3.7-13.5,2c-4.3-1.5-6.1-4.9-6.2-9.3C942,435.5,942.8,431.6,946.9,429.6z"/>
<path class="st0" d="M1054.7,428.3c3.3,0,5.9,0.3,8.5-0.1c4.8-0.7,5.9,1.5,5.7,5.9c-0.3,6.7-0.1,13.5-0.1,20.3c3.6,0,6.5,0,9.9,0
	c0-8.9,0-17.3,0-26.2c4.8,0,9,0,13.5,0c0-1.9,0-3.3,0-4.9c-12.5,0-24.8,0-37.3,0C1054.9,424.9,1054.8,426.2,1054.7,428.3z"/>
<path class="st0" d="M92.1,379.5c2.5,0.1,5,0.1,7.5,0.1c434.3,0,868.7,0,1303,0.1c28.1,0,52.4-8.7,72-29c17-17.5,25.9-38.7,26-63.1
	c0.2-64.6,0.2-129.3,0-193.9c-0.2-45.5-33.9-83.8-79.4-91.1c-1.6-0.3-3.2-0.8-4.8-1.2c-443.3,0-886.7,0-1330,0
	C82.6,2.3,78.7,3,74.8,3.9c-38,8.7-66.1,38.7-72.3,77.2c-0.2,1.5-0.7,2.9-1,4.3c0,70.3,0,140.6,0,210.9c0.8,3.7,1.6,7.4,2.5,11.1
	C13.7,348.6,49.3,377.7,92.1,379.5z M1383.8,122.4c0.6-32.3-17.2-56.3-44.2-65.9c24.8,0,49.6-0.4,74.4,0.2
	c16.3,0.4,29,15.1,29.1,32.4c0.1,36,0,71.9,0,107.9c0,31.1,0,62.3,0,93.4c0,21.1-13.5,34.6-34.8,34.6c-23.2,0-46.3,0-70.8,0
	c2.2-0.9,3.2-1.4,4.3-1.8c25.4-9.2,41.6-31.8,41.6-58.8C1383.6,217,1382.9,169.7,1383.8,122.4z M1166.1,117.4c0-4.7,1.5-5.9,6-5.8
	c24.7,0.2,49.3,0.1,74,0.1c24.5,0,49,0.1,73.5-0.1c4.4,0,5.6,1.3,5.6,5.6c-0.1,48.8-0.2,97.6,0,146.4c0,4.7-1.5,5.8-5.9,5.8
	c-49-0.1-98-0.2-147,0c-4.8,0-6.2-1.3-6.2-6.1C1166.2,214.7,1166.2,166.1,1166.1,117.4z M1084.5,56.3c22.3,0.2,44.6,0.1,67.1,0.7
	c-1.6,0.7-3.2,1.3-4.8,2c-23.4,9.3-39,31.4-39.1,56.5c-0.2,49.9-0.2,99.9,0,149.8c0.1,25.5,16,47.8,39.9,57c1.6,0.6,3.3,1.3,5.9,2.3
	c-69.7,0-138.3,0-207.7,0c0.9-2,1.4-3.6,2.2-5.2c42.9-86.1,85.8-172.2,128.6-258.4C1078.3,57.5,1080.5,56.3,1084.5,56.3z
	 M1014.9,56.7c-29.7,62-59.1,123.4-89,185.9c-28.7-62.4-56.9-123.7-85.5-185.9C898.8,56.7,956.2,56.7,1014.9,56.7z M739.8,117.5
	c0-27.5-15.2-49.3-41-59.2c-0.9-0.3-1.7-0.7-2.6-1.1c0-0.3,0.1-0.5,0.1-0.8c1.6,0,3.2,0,4.7,0c21.3,0,42.7,0.1,64-0.1
	c4.2,0,6.5,1.1,8.4,5c42.5,86.1,85.1,172.2,127.7,258.3c0.7,1.4,1.3,2.9,2.1,4.9c-69.7,0-138.7,0-208.5,0c1.8-0.7,3-1.3,4.3-1.8
	c24.7-9.2,40.6-31.6,40.6-57.9C739.9,215.7,739.9,166.6,739.8,117.5z M522.6,115.5c0-1,0.2-2,0.3-3.5c52.8,0,105.2,0,158.2,0
	c0.1,1.9,0.3,3.7,0.3,5.4c0,48.8,0,97.5,0.1,146.3c0,4.3-1,5.7-5.5,5.7c-49.3-0.2-98.6-0.1-147.9-0.1c-3.2,0-5.6,0.2-5.6-4.5
	C522.6,215.1,522.6,165.3,522.6,115.5z M398.8,142.6c0-26.5,0-52.9,0-79.4c0-2,0-3.9,0-6.4c36.5,0,72.6,0,109.4,0
	c-1.7,0.7-2.9,1.3-4.1,1.8c-24.5,9.5-39.8,31.8-39.8,58c0,48.8,0,97.5,0,146.3c0,28.8,15.4,50.7,42.6,60.5c0.6,0.2,1.2,0.5,1.7,0.8
	c-0.1,0.2-0.1,0.5-0.2,0.7c-35,0-70-0.1-104.9,0.1c-4.6,0-4.6-2.3-4.6-5.6C398.8,260.5,398.8,201.6,398.8,142.6z M357,324.9
	c-56.6,0-113.3,0-169.9,0c-6.8,0-6.8,0-6.8-6.8c-0.1-54.6-0.2-109.2-0.3-163.8c0-1.6,0.1-3.2,0.3-6.1
	c61.3,59.1,121.7,117.4,183.3,176.7C360.2,324.9,358.6,324.9,357,324.9z M344,56.8c0,57.9,0,115.6,0,174.3
	c-59.9-58.3-119.2-116-179.1-174.3C225.2,56.8,284.4,56.8,344,56.8z M59.3,89.9c0-16.9,10-29.9,25.6-32.8c5.2-1,10.6-0.6,15.9-0.6
	c7.5-0.1,15,0.1,22.5-0.1c2.9,0,4.4,0.9,4.1,4c-0.1,1.2,0,2.3,0,3.5c0,84.6,0,169.2,0,253.7c0,2.1,0,4.3,0,6.4
	c-15,0-29.4,1.1-43.5-0.3c-13.2-1.4-23.3-14.2-24.4-27.5c-0.1-1.7-0.2-3.3-0.2-5C59.3,224.1,59.2,157,59.3,89.9z"/>
<path class="st0" d="M1435,454.4c-5.9,1.5-10.2,0.3-14-4.3c-4.1-5.2-8.9-9.8-14.5-15.8c0,7.5,0,13.8,0,20.3c-3.4,0-5.9,0-8.8,0
	c0-10.4,0-20.6,0-30.9c5.6-1.5,9.9-0.6,13.6,4.2c4.2,5.4,9.2,10.3,15,16.5c0-7.9,0-14.2,0-20.9c3.2,0,5.7,0,8.7,0
	C1435,433.7,1435,443.9,1435,454.4z"/>
<path class="st0" d="M333,435.8c0,6.2,0,12.4,0,18.8c-3.1,0-5.6,0-8.4,0c0-10.4,0-20.6,0-31c5.1-1.1,9.4-0.9,13.1,3.8
	c4.4,5.6,9.5,10.5,15.4,16.9c0-7.9,0-14.3,0-21c3.2,0,5.8,0,8.6,0c0,10.5,0,20.7,0,31c-5.4,1.1-9.8,0.9-13.5-3.9
	c-4.2-5.3-9.2-10.1-13.8-15.1C333.9,435.6,333.4,435.7,333,435.8z"/>
<path class="st0" d="M445.2,445c5.3-0.7,8.9-2.1,12.1,2.4c2.5,3.5,11.8,3.7,15.4,1.1c0.9-0.7,1.9-2.2,1.8-3.1
	c-0.1-1-1.5-2.3-2.6-2.5c-4-1-8.2-1.6-12.2-2.6c-3-0.8-6.2-1.6-8.8-3.3c-4.6-2.9-4.6-7.8-0.3-11.1c6.1-4.7,23.2-4.6,29.1,0.3
	c1.5,1.3,2.4,3.2,4.2,5.6c-5.2,0.2-8.5,1-12.6-2c-2.9-2.2-8.4-0.8-12.8-0.8c-0.6,0-1.6,1.4-1.5,2.1c0.1,0.7,1,1.8,1.8,2
	c3,0.9,6.2,1.4,9.2,2.2c4,1,8.3,1.6,11.9,3.4c6,2.9,6.2,9.4,0.9,13.3c-6.5,4.8-24.3,4.7-30.6-0.3C448.4,450.1,447.3,447.7,445.2,445
	z"/>
<path class="st0" d="M809.9,423.4c3,0,5.7,0,9.4,0c0,5.9,0,11.8,0,17.7c0.1,6.6,2.6,8.9,9.7,8.9c6.8,0,9-2,9.2-8.8
	c0.1-5.8,0-11.6,0-17.8c3.2,0,5.9,0,8.9,0c0,7.9,0.4,15.8-0.3,23.6c-0.2,2.2-3,5-5.3,6c-8.3,3.5-16.9,3.2-25.3,0.2
	c-3.8-1.3-6.1-4.2-6.3-8.2C809.8,438,809.9,430.8,809.9,423.4z"/>
<path class="st0" d="M110.7,431.7c-4,0.6-7.5,2.2-11.6-1.8c-3.8-3.6-9.4-2.8-14.2-0.4c-4.4,2.2-5,6.3-4.8,10.7
	c0.2,4.2,2.1,7.4,6.2,8.8c4.8,1.7,10.3,2.2,13.5-2c3.7-5,7.2-2.7,13-1.4c-3.5,3-5.8,6-8.8,7.3c-8.7,3.8-17.6,3.6-26-0.9
	c-10.6-5.7-10.7-20.2-0.2-26c8.8-4.9,18.2-5,27.4-0.8c2.4,1.1,4.2,3.4,6.3,5.2C111.2,430.8,110.9,431.3,110.7,431.7z"/>
<path class="st0" d="M973.7,445.4c-0.7,1.3-1,2.1-1.5,2.7c-7.4,10.3-30.8,9.6-37.7-1c-3.8-5.9-2.7-14.5,2.6-19.2
	c7.4-6.6,24.5-7.5,32.4-1.5c1.5,1.1,2.6,2.8,4.4,4.9c-4.8,1-8.2,2.8-12.3-1.1c-4-3.8-9.7-3.1-14.6-0.7c-4.2,2-4.9,6-4.8,10.2
	c0.2,4.4,1.9,7.8,6.2,9.3c4.8,1.7,10.3,2.1,13.5-2C965.6,442.1,969.1,444.3,973.7,445.4z"/>
<path class="st0" d="M589.4,454.6c-3.7,0-6.4,0-9.9,0c0-8.6,0-17.1,0-26.3c-3.8,0-6.9-0.1-10,0c-3.5,0.2-5.1-1-3.7-4.9
	c12.2,0,24.4,0,36.8,0c1.9,4.6-0.7,5.1-4.2,4.9c-2.8-0.1-5.6,0-9,0C589.4,437.1,589.4,445.5,589.4,454.6z"/>
<path class="st0" d="M1054.7,428.3c0.1-2.1,0.2-3.4,0.2-4.9c12.5,0,24.8,0,37.3,0c0,1.6,0,3,0,4.9c-4.5,0-8.8,0-13.5,0
	c0,8.9,0,17.3,0,26.2c-3.4,0-6.2,0-9.9,0c0-6.8-0.2-13.6,0.1-20.3c0.2-4.4-0.9-6.6-5.7-5.9C1060.7,428.6,1058,428.3,1054.7,428.3z"
	/>
<path class="st0" d="M1175,423.4c3.1,0,5.9,0,8.8,0c0.2,1.1,0.4,1.9,0.4,2.6c0,9.3,0,18.6,0,28.4c-3.1,0-6,0-9.2,0
	C1175,444.2,1175,434,1175,423.4z"/>
<path class="st0" d="M715.4,440.3c0.5-0.2,2.6-0.3,3.8-1.4c2.1-2,5-4.7,5-7.1c0-2.4-2.9-5.1-5-7.1c-1.2-1.1-3.4-1.3-5.2-1.4
	c-9.1-0.1-18.3-0.1-28-0.1c0,10.6,0,20.8,0,31.1c3.2,0,6.1,0,9.6,0c0-4.5,0-8.6,0-12.4c8.5-2,12.7,3.6,16.8,8.4
	c4.3,5,9.2,4.9,15.9,4C723.4,449.1,719.2,444.6,715.4,440.3z M709.4,436.1c-4.4,0.5-8.9,0.2-13.8,0.2c0-2.5,0-4.9,0-7.9
	c4.8,0,9.3-0.4,13.7,0.2c1.9,0.3,3.5,2.6,5.3,4C712.9,433.8,711.3,435.9,709.4,436.1z"/>
<path class="st0" d="M1281.1,454c-0.5-0.1-0.9-0.3-1.3-0.4C1280.2,453.8,1280.7,453.9,1281.1,454z"/>
<path class="st0" d="M1303,452.9c-0.5,0.2-1,0.4-1.5,0.5C1302.1,453.3,1302.5,453.1,1303,452.9z"/>
<path class="st0" d="M1304.9,452.1c-0.5,0.2-0.9,0.4-1.4,0.6C1304,452.5,1304.5,452.3,1304.9,452.1z"/>
<path class="st0" d="M1279.3,453.5c-0.4-0.1-0.8-0.3-1.3-0.4C1278.4,453.2,1278.8,453.3,1279.3,453.5z"/>
<path class="st0" d="M1277.5,452.9c-0.6-0.2-1.1-0.5-1.7-0.7C1276.4,452.4,1276.9,452.6,1277.5,452.9z"/>
<path class="st0" d="M1290.3,456.2c-3.1-0.8-6-1.3-8.8-2.1C1284.2,454.8,1287.2,455.4,1290.3,456.2z"/>
<path class="st0" d="M1307.3,450.9c-0.6,0.3-1.2,0.7-1.8,1C1306.1,451.6,1306.7,451.3,1307.3,450.9z"/>
<path class="st0" d="M1292.2,456.2c2.9-0.9,6-1.7,9-2.6C1298.2,454.5,1295.1,455.3,1292.2,456.2L1292.2,456.2z"/>
<path class="st0" d="M1291.4,456.5c0.3-0.1,0.6-0.2,0.9-0.3l0,0C1291.9,456.3,1291.6,456.4,1291.4,456.5z"/>
<path class="st0" d="M1301.6,453.4c-0.1,0-0.2,0.1-0.4,0.1C1301.3,453.5,1301.4,453.5,1301.6,453.4z"/>
<path class="st0" d="M1305.5,451.9c-0.2,0.1-0.4,0.2-0.5,0.2C1305.1,452,1305.3,452,1305.5,451.9z"/>
<path class="st0" d="M1303.6,452.7c-0.2,0.1-0.4,0.1-0.5,0.2C1303.2,452.8,1303.4,452.8,1303.6,452.7z"/>
<path class="st0" d="M1290.3,456.2c0.4,0.1,0.7,0.2,1.1,0.3C1291,456.4,1290.6,456.3,1290.3,456.2L1290.3,456.2z"/>
<path class="st0" d="M1281.5,454.1c-0.1,0-0.2-0.1-0.3-0.1C1281.2,454.1,1281.4,454.1,1281.5,454.1z"/>
<path class="st0" d="M1278,453c-0.2-0.1-0.3-0.1-0.5-0.2C1277.7,452.9,1277.8,453,1278,453z"/>
<path class="st0" d="M1279.8,453.6c-0.2-0.1-0.3-0.1-0.5-0.2C1279.4,453.5,1279.6,453.6,1279.8,453.6z"/>
<path class="st0" d="M1307.5,426.9c-8.1-5.7-24.5-6.1-32.9-0.7c-10.2,6.5-9.8,20.6,1.2,25.9c0.5,0.3,1.1,0.5,1.7,0.7
	c0.2,0.1,0.3,0.1,0.5,0.2c0.4,0.2,0.8,0.3,1.3,0.4c0.2,0.1,0.3,0.1,0.5,0.2c0.4,0.1,0.9,0.3,1.3,0.4c0.1,0,0.2,0.1,0.3,0.1
	c2.7,0.7,5.7,1.3,8.8,2.1h0c0.7,0,1.3,0,2,0c2.9-0.9,6-1.7,9-2.6c0.1,0,0.2-0.1,0.4-0.1c0.5-0.2,1-0.3,1.5-0.5
	c0.2-0.1,0.4-0.1,0.5-0.2c0.5-0.2,0.9-0.4,1.4-0.6c0.2-0.1,0.4-0.2,0.5-0.2c0.6-0.3,1.2-0.6,1.8-1
	C1316.2,445.6,1316,432.9,1307.5,426.9z M1290.8,450c-8.3,0.1-13.5-4.4-13.4-11.4c0.1-6.9,4.9-10.7,13.3-10.7
	c8.5,0,13.1,3.8,13.1,10.9C1303.8,445.8,1298.9,450,1290.8,450z"/>
<path class="st0" d="M1290.3,456.2c0.4,0.1,0.7,0.2,1.1,0.3c0.3-0.1,0.6-0.2,0.9-0.3C1291.6,456.2,1290.9,456.2,1290.3,456.2z"/>
<path class="st0" d="M208.4,454.1c2.8,0.7,5.8,1.3,8.9,2.1l0,0C214.2,455.4,211.2,454.8,208.4,454.1z"/>
<path class="st0" d="M204.6,453c-0.6-0.2-1.1-0.4-1.7-0.6C203.5,452.6,204,452.8,204.6,453z"/>
<path class="st0" d="M208.2,454c-0.5-0.1-0.9-0.2-1.4-0.4C207.3,453.8,207.7,453.9,208.2,454z"/>
<path class="st0" d="M230.9,452.5c-0.5,0.2-0.9,0.4-1.4,0.5C230,452.9,230.4,452.7,230.9,452.5z"/>
<path class="st0" d="M233.1,451.5c-0.6,0.3-1.2,0.6-1.8,0.9C232,452.1,232.6,451.8,233.1,451.5z"/>
<path class="st0" d="M229.1,453.2c-0.5,0.2-1,0.3-1.5,0.5C228.1,453.6,228.6,453.4,229.1,453.2z"/>
<path class="st0" d="M206.4,453.5c-0.4-0.1-0.9-0.3-1.3-0.4C205.5,453.3,205.9,453.4,206.4,453.5z"/>
<path class="st0" d="M218.3,456.2c3-0.9,6.1-1.5,9.1-2.4C224.4,454.7,221.2,455.3,218.3,456.2L218.3,456.2z"/>
<path class="st0" d="M217.8,456.3c0.2,0,0.3-0.1,0.5-0.1l0,0C218.1,456.2,218,456.3,217.8,456.3z"/>
<path class="st0" d="M217.3,456.2c0.2,0,0.4,0.1,0.5,0.1C217.6,456.3,217.5,456.2,217.3,456.2L217.3,456.2z"/>
<path class="st0" d="M231.4,452.3c-0.2,0.1-0.3,0.1-0.5,0.2C231,452.5,231.2,452.4,231.4,452.3z"/>
<path class="st0" d="M227.6,453.7c-0.1,0-0.1,0-0.2,0.1C227.5,453.8,227.5,453.7,227.6,453.7z"/>
<path class="st0" d="M229.5,453.1c-0.1,0.1-0.3,0.1-0.5,0.2C229.2,453.2,229.4,453.1,229.5,453.1z"/>
<path class="st0" d="M205.1,453.1c-0.2-0.1-0.3-0.1-0.5-0.2C204.8,453,204.9,453.1,205.1,453.1z"/>
<path class="st0" d="M208.4,454.1c-0.1,0-0.2,0-0.2-0.1C208.3,454.1,208.3,454.1,208.4,454.1z"/>
<path class="st0" d="M206.8,453.7c-0.1,0-0.3-0.1-0.4-0.1C206.5,453.6,206.7,453.6,206.8,453.7z"/>
<path class="st0" d="M233.3,426.5c-10-5.7-20.7-5.6-31.1-0.7c-5.6,2.6-8.3,7.5-8,13.8c0.2,6.2,3.2,10.6,8.7,12.8
	c0.6,0.2,1.1,0.4,1.7,0.6c0.2,0.1,0.3,0.1,0.5,0.2c0.4,0.1,0.8,0.3,1.3,0.4c0.1,0,0.3,0.1,0.4,0.1c0.5,0.1,0.9,0.3,1.4,0.4
	c0.1,0,0.2,0,0.2,0.1c2.8,0.7,5.8,1.3,8.9,2.1c0.3,0,0.7,0,1,0c3-0.9,6.1-1.5,9.1-2.4c0.1,0,0.1,0,0.2-0.1c0.5-0.2,1-0.3,1.5-0.5
	c0.2-0.1,0.3-0.1,0.5-0.2c0.5-0.2,0.9-0.4,1.4-0.5c0.2-0.1,0.3-0.1,0.5-0.2c0.6-0.3,1.2-0.5,1.8-0.9
	C243,446.1,243.1,432.1,233.3,426.5z M217,450c-8.1-0.1-13.1-4.4-13-11.3c0.1-7.1,5-11,13.8-10.8c8.3,0.1,12.9,4.2,12.7,11.3
	C230.3,446,225.1,450.2,217,450z"/>
<path class="st0" d="M217.3,456.2c0.2,0,0.4,0.1,0.5,0.1c0.2,0,0.3-0.1,0.5-0.1C217.9,456.2,217.6,456.2,217.3,456.2z"/>
</svg>
