<?xml version="1.0" encoding="utf-8"?>
<!-- Generator: Adobe Illustrator 16.0.0, SVG Export Plug-In . SVG Version: 6.00 Build 0)  -->
<!DOCTYPE svg PUBLIC "-//W3C//DTD SVG 1.1//EN" "http://www.w3.org/Graphics/SVG/1.1/DTD/svg11.dtd">
<svg version="1.1" id="Layer_1" xmlns="http://www.w3.org/2000/svg" xmlns:xlink="http://www.w3.org/1999/xlink" x="0px" y="0px"
	 width="250px" height="50px" viewBox="0 0 250 50" enable-background="new 0 0 250 50" xml:space="preserve">
<g>
	<g>
		<path fill-rule="evenodd" clip-rule="evenodd" fill="#004F77" stroke="#004F77" stroke-width="1.3258" stroke-miterlimit="10" d="
			M55.154,3.869c0.722,0,1.308,0.587,1.308,1.31s-0.585,1.309-1.308,1.309c-0.723,0-1.309-0.586-1.309-1.309
			S54.431,3.869,55.154,3.869"/>
		
			<polygon fill-rule="evenodd" clip-rule="evenodd" fill="#004F77" stroke="#004F77" stroke-width="1.3258" stroke-miterlimit="10" points="
			54.382,8.336 54.229,34.059 41.752,42.838 		"/>
		
			<polygon fill-rule="evenodd" clip-rule="evenodd" fill="#004F77" stroke="#004F77" stroke-width="1.3258" stroke-miterlimit="10" points="
			55.857,8.336 56.011,34.059 68.487,42.838 		"/>
	</g>
	<g>
		<path fill-rule="evenodd" clip-rule="evenodd" fill="#666666" stroke="#666666" stroke-width="0.6629" stroke-miterlimit="10" d="
			M16.69,11.656v9.356h-0.659c-0.22-1.798-0.623-3.228-1.173-4.29c-0.548-1.063-1.354-1.92-2.38-2.533
			c-1.026-0.653-2.087-0.939-3.186-0.939c-1.209,0-2.234,0.408-3.077,1.267c-0.806,0.817-1.208,1.797-1.208,2.86
			c0,0.816,0.255,1.593,0.769,2.247c0.732,1.021,2.49,2.328,5.273,4.004c2.271,1.348,3.809,2.41,4.651,3.146
			c0.842,0.693,1.465,1.553,1.905,2.533c0.439,0.979,0.695,2.043,0.695,3.105c0,2.041-0.732,3.798-2.161,5.311
			c-1.428,1.471-3.259,2.207-5.493,2.207c-0.696,0-1.354-0.042-1.978-0.164c-0.366-0.082-1.135-0.326-2.308-0.735
			c-1.172-0.409-1.904-0.655-2.196-0.655c-0.294,0-0.55,0.124-0.733,0.327c-0.146,0.205-0.292,0.614-0.366,1.228H2.408v-9.275h0.659
			c0.294,1.961,0.733,3.391,1.245,4.373c0.55,0.938,1.319,1.755,2.418,2.41c1.062,0.611,2.27,0.938,3.552,0.938
			c1.465,0,2.673-0.447,3.516-1.307c0.879-0.898,1.318-1.92,1.318-3.105c0-0.693-0.183-1.348-0.513-2.041
			c-0.329-0.654-0.842-1.308-1.538-1.881c-0.439-0.408-1.721-1.266-3.809-2.532c-2.052-1.308-3.516-2.329-4.395-3.105
			c-0.879-0.775-1.538-1.635-2.014-2.573c-0.439-0.94-0.66-1.962-0.66-3.064c0-1.961,0.66-3.596,1.979-5.025
			c1.354-1.389,3.039-2.084,5.09-2.084c1.318,0,2.672,0.327,4.101,1.063c0.659,0.327,1.135,0.49,1.429,0.49
			c0.292,0,0.549-0.122,0.769-0.326c0.183-0.204,0.329-0.613,0.476-1.227H16.69z"/>
		<path fill-rule="evenodd" clip-rule="evenodd" fill="#666666" stroke="#666666" stroke-width="0.6629" stroke-miterlimit="10" d="
			M26.959,13.74v10.704h5.347c1.354,0,2.307-0.245,2.747-0.694c0.623-0.613,0.989-1.716,1.063-3.269h0.659v9.438h-0.659
			c-0.184-1.309-0.366-2.166-0.513-2.534c-0.22-0.448-0.586-0.817-1.062-1.103c-0.476-0.245-1.246-0.409-2.234-0.409h-5.347v8.948
			c0,1.185,0.037,1.92,0.147,2.165c0.11,0.245,0.256,0.45,0.513,0.613c0.219,0.163,0.695,0.245,1.354,0.245h4.102
			c1.355,0,2.38-0.123,3.003-0.326c0.623-0.205,1.208-0.614,1.758-1.268c0.769-0.816,1.501-2.044,2.27-3.718h0.732l-2.088,6.782
			H20.075V38.58h0.843c0.585,0,1.098-0.163,1.611-0.449c0.403-0.245,0.659-0.53,0.806-0.98c0.11-0.408,0.183-1.307,0.183-2.614
			V16.968c0-1.716-0.146-2.778-0.439-3.187c-0.439-0.531-1.172-0.776-2.16-0.776h-0.843V12.27h18.677l0.257,5.924h-0.695
			c-0.257-1.43-0.513-2.41-0.843-2.941c-0.293-0.531-0.732-0.939-1.318-1.227c-0.476-0.204-1.318-0.285-2.527-0.285H26.959z"/>
		<path fill-rule="evenodd" clip-rule="evenodd" fill="#666666" stroke="#666666" stroke-width="0.6629" stroke-miterlimit="10" d="
			M81.944,38.118v0.735H70.366v-0.735h0.938c1.141,0,1.956-0.327,2.445-0.979c0.327-0.409,0.49-1.472,0.49-3.064V16.587
			c0-1.389-0.082-2.287-0.285-2.695c-0.122-0.368-0.409-0.654-0.816-0.858c-0.57-0.327-1.181-0.491-1.833-0.491h-0.938v-0.734
			h11.578v0.734h-0.979c-1.101,0-1.916,0.328-2.405,0.981c-0.327,0.408-0.53,1.43-0.53,3.063v17.487
			c0,1.348,0.123,2.247,0.285,2.695c0.123,0.326,0.409,0.613,0.816,0.858c0.571,0.327,1.182,0.49,1.834,0.49H81.944z"/>
		<path fill-rule="evenodd" clip-rule="evenodd" fill="#666666" stroke="#666666" stroke-width="0.6629" stroke-miterlimit="10" d="
			M91.32,24.963c0.244,0,0.448,0,0.651,0c0.164,0,0.326,0,0.449,0c2.568,0,4.525-0.572,5.83-1.676
			c1.304-1.103,1.958-2.532,1.958-4.249c0-1.716-0.531-3.063-1.59-4.126c-1.061-1.062-2.446-1.593-4.199-1.593
			c-0.774,0-1.794,0.122-3.098,0.367V24.963z M110.48,38.854h-7.216l-9.131-12.666c-0.693,0.043-1.223,0.043-1.672,0.043
			c-0.163,0-0.326,0-0.53,0c-0.204,0-0.407,0-0.611-0.043v7.887c0,1.675,0.163,2.736,0.529,3.146
			c0.53,0.612,1.265,0.898,2.283,0.898h1.059v0.735H83.616v-0.735h1.019c1.142,0,1.957-0.367,2.446-1.104
			c0.285-0.448,0.408-1.43,0.408-2.94V16.587c0-1.716-0.163-2.777-0.53-3.186c-0.53-0.572-1.305-0.859-2.324-0.859h-1.019v-0.734
			h9.824c2.894,0,5.014,0.204,6.359,0.612c1.346,0.409,2.527,1.186,3.465,2.329c0.938,1.104,1.427,2.451,1.427,4.004
			c0,1.675-0.53,3.104-1.63,4.33c-1.101,1.227-2.771,2.084-5.014,2.615l5.544,7.763c1.305,1.757,2.405,2.942,3.302,3.554
			c0.897,0.572,2.12,0.94,3.588,1.104V38.854z"/>
	</g>
	<g>
		<path fill-rule="evenodd" clip-rule="evenodd" fill="#004F77" stroke="#004F77" stroke-width="0.6629" stroke-miterlimit="10" d="
			M119.423,45.991h-2.797v-0.284c0.072,0,0.188-0.008,0.341-0.024c0.143-0.009,0.25-0.024,0.313-0.048
			c0.099-0.034,0.163-0.082,0.207-0.14c0.045-0.058,0.071-0.138,0.071-0.243v-4.086c0-0.097-0.018-0.17-0.054-0.235
			c-0.027-0.065-0.108-0.113-0.225-0.155c-0.09-0.031-0.196-0.063-0.332-0.089c-0.134-0.032-0.242-0.049-0.322-0.049v-0.284h2.797
			v0.284c-0.089,0-0.198,0.009-0.323,0.024c-0.125,0.017-0.242,0.041-0.332,0.066c-0.108,0.031-0.188,0.089-0.225,0.154
			c-0.036,0.073-0.053,0.153-0.053,0.244v4.075c0,0.091,0.018,0.163,0.062,0.235c0.036,0.066,0.117,0.123,0.216,0.163
			c0.062,0.019,0.162,0.042,0.295,0.065c0.144,0.024,0.26,0.041,0.358,0.041L119.423,45.991z"/>
		<path fill-rule="evenodd" clip-rule="evenodd" fill="#004F77" stroke="#004F77" stroke-width="0.6629" stroke-miterlimit="10" d="
			M126.577,40.638c-0.08,0-0.207,0.024-0.377,0.065c-0.17,0.033-0.297,0.072-0.368,0.122c-0.099,0.065-0.171,0.187-0.205,0.384
			c-0.037,0.186-0.055,0.422-0.055,0.706v4.134h-0.385l-3.765-4.613v2.905c0,0.325,0.026,0.577,0.072,0.756
			c0.045,0.171,0.116,0.294,0.206,0.366c0.062,0.065,0.206,0.113,0.412,0.164c0.215,0.056,0.35,0.08,0.421,0.08v0.284h-2.546v-0.284
			c0.072,0,0.206-0.033,0.395-0.072c0.188-0.05,0.304-0.09,0.35-0.131c0.098-0.074,0.17-0.188,0.206-0.334
			c0.045-0.154,0.063-0.414,0.063-0.781v-2.781c0-0.123-0.026-0.244-0.071-0.367c-0.045-0.122-0.107-0.213-0.188-0.275
			c-0.108-0.091-0.251-0.164-0.43-0.229c-0.179-0.058-0.323-0.099-0.431-0.099v-0.284h1.775l3.488,4.297v-2.678
			c0-0.334-0.019-0.586-0.072-0.757c-0.045-0.18-0.108-0.293-0.198-0.351c-0.08-0.056-0.214-0.105-0.402-0.153
			c-0.181-0.042-0.323-0.074-0.423-0.074v-0.284h2.529V40.638z"/>
		<path fill-rule="evenodd" clip-rule="evenodd" fill="#004F77" stroke="#004F77" stroke-width="0.6629" stroke-miterlimit="10" d="
			M131.901,41.762h-0.332c-0.063-0.204-0.188-0.432-0.385-0.668c-0.188-0.236-0.378-0.374-0.557-0.391
			c-0.09-0.017-0.196-0.024-0.322-0.024c-0.125-0.009-0.26-0.009-0.422-0.009h-1.039v2.262h0.709c0.213,0,0.385-0.023,0.5-0.064
			c0.127-0.04,0.226-0.098,0.314-0.187c0.055-0.058,0.107-0.147,0.152-0.269c0.055-0.123,0.082-0.262,0.099-0.398h0.331v2.212
			h-0.331c-0.009-0.112-0.035-0.243-0.089-0.398c-0.055-0.146-0.107-0.252-0.162-0.317c-0.089-0.098-0.197-0.171-0.331-0.203
			c-0.135-0.032-0.297-0.057-0.483-0.057h-0.709v1.943c0,0.091,0.018,0.172,0.055,0.236c0.035,0.074,0.106,0.123,0.205,0.171
			c0.037,0.019,0.135,0.042,0.279,0.065c0.152,0.024,0.259,0.041,0.33,0.041v0.284h-2.689v-0.284c0.09,0,0.207-0.008,0.352-0.024
			c0.141-0.009,0.241-0.024,0.285-0.048c0.09-0.034,0.152-0.082,0.189-0.146c0.043-0.074,0.061-0.156,0.061-0.244v-4.069
			c0-0.089-0.018-0.171-0.053-0.236c-0.027-0.064-0.1-0.121-0.197-0.163c-0.08-0.031-0.188-0.063-0.323-0.089
			c-0.124-0.032-0.232-0.049-0.313-0.049v-0.284h4.877V41.762z"/>
		<path fill-rule="evenodd" clip-rule="evenodd" fill="#004F77" stroke="#004F77" stroke-width="0.6629" stroke-miterlimit="10" d="
			M136.813,45.016c0.16-0.236,0.278-0.512,0.359-0.814c0.071-0.309,0.106-0.65,0.106-1.025c0-0.382-0.044-0.739-0.124-1.064
			c-0.081-0.318-0.207-0.595-0.369-0.822c-0.161-0.228-0.357-0.398-0.6-0.529c-0.244-0.122-0.521-0.186-0.834-0.186
			c-0.35-0.001-0.646,0.072-0.888,0.219c-0.251,0.146-0.449,0.342-0.6,0.586c-0.152,0.229-0.262,0.504-0.333,0.813
			c-0.07,0.317-0.107,0.643-0.107,0.983c0,0.383,0.046,0.725,0.117,1.034c0.07,0.31,0.197,0.577,0.357,0.821
			c0.162,0.229,0.359,0.415,0.592,0.545c0.242,0.131,0.529,0.197,0.861,0.197c0.313,0,0.59-0.066,0.844-0.197
			C136.446,45.438,136.651,45.26,136.813,45.016L136.813,45.016z M137.468,41.02c0.269,0.262,0.483,0.571,0.635,0.945
			c0.161,0.366,0.233,0.773,0.233,1.211c0,0.449-0.081,0.855-0.233,1.222c-0.161,0.366-0.375,0.676-0.654,0.935
			c-0.276,0.253-0.591,0.449-0.95,0.586c-0.357,0.139-0.744,0.213-1.146,0.213c-0.43,0-0.834-0.074-1.193-0.229
			c-0.365-0.146-0.68-0.35-0.949-0.609c-0.26-0.262-0.465-0.57-0.617-0.936c-0.145-0.367-0.225-0.757-0.225-1.182
			c0-0.455,0.08-0.862,0.241-1.219c0.153-0.366,0.368-0.676,0.646-0.938c0.277-0.26,0.591-0.454,0.959-0.593
			c0.357-0.139,0.744-0.212,1.139-0.212c0.412,0,0.797,0.073,1.166,0.212C136.883,40.573,137.198,40.768,137.468,41.02z"/>
		<path fill-rule="evenodd" clip-rule="evenodd" fill="#004F77" stroke="#004F77" stroke-width="0.6629" stroke-miterlimit="10" d="
			M142.864,41.785c0-0.341-0.109-0.61-0.322-0.813c-0.216-0.197-0.521-0.294-0.916-0.294h-0.742v2.417h0.572
			c0.403,0,0.734-0.113,1.005-0.35C142.729,42.51,142.864,42.192,142.864,41.785z M145.168,45.991h-1.676
			c-0.369-0.528-0.701-0.983-1.006-1.366c-0.297-0.382-0.619-0.781-0.968-1.188h-0.636v1.791c0,0.088,0.016,0.17,0.045,0.243
			c0.035,0.065,0.098,0.121,0.205,0.155c0.055,0.023,0.144,0.039,0.279,0.056c0.123,0.017,0.241,0.024,0.331,0.024v0.284h-2.628
			v-0.284c0.072,0,0.171-0.017,0.307-0.024c0.135-0.017,0.224-0.032,0.276-0.056c0.089-0.034,0.152-0.082,0.189-0.147
			c0.044-0.065,0.062-0.155,0.062-0.251V41.15c0-0.097-0.018-0.178-0.045-0.252c-0.025-0.064-0.098-0.123-0.206-0.162
			c-0.071-0.024-0.171-0.042-0.286-0.066c-0.117-0.016-0.216-0.032-0.297-0.032v-0.284h2.869c0.26,0,0.511,0.023,0.734,0.073
			c0.234,0.049,0.441,0.13,0.629,0.235c0.179,0.105,0.322,0.244,0.43,0.415c0.108,0.171,0.17,0.375,0.17,0.619
			c0,0.219-0.045,0.407-0.116,0.577c-0.071,0.163-0.179,0.31-0.322,0.431c-0.126,0.115-0.288,0.212-0.476,0.294
			c-0.179,0.089-0.386,0.154-0.602,0.22c0.305,0.365,0.557,0.675,0.764,0.927c0.195,0.253,0.449,0.554,0.743,0.92
			c0.126,0.155,0.241,0.276,0.351,0.35c0.098,0.074,0.205,0.139,0.303,0.187c0.081,0.034,0.172,0.058,0.288,0.073
			c0.116,0.025,0.207,0.033,0.288,0.033V45.991z"/>
		<path fill-rule="evenodd" clip-rule="evenodd" fill="#004F77" stroke="#004F77" stroke-width="0.6629" stroke-miterlimit="10" d="
			M152.885,45.991h-2.742v-0.284c0.098,0,0.223-0.008,0.375-0.024c0.161-0.017,0.27-0.04,0.322-0.063
			c0.09-0.059,0.162-0.115,0.207-0.182c0.035-0.063,0.063-0.145,0.063-0.244v-4.1h-0.071l-2.117,4.809h-0.214l-2.017-4.906h-0.063
			v3.368c0,0.325,0.025,0.569,0.071,0.74c0.044,0.171,0.115,0.294,0.205,0.367c0.063,0.057,0.198,0.104,0.395,0.155
			c0.207,0.056,0.331,0.08,0.395,0.08v0.284h-2.501v-0.284c0.125-0.008,0.269-0.024,0.412-0.057c0.145-0.031,0.252-0.074,0.332-0.13
			c0.098-0.074,0.17-0.188,0.207-0.343c0.043-0.154,0.063-0.414,0.063-0.772v-2.88c0-0.171-0.027-0.31-0.071-0.415
			c-0.037-0.106-0.101-0.188-0.19-0.253c-0.088-0.073-0.195-0.129-0.33-0.163c-0.125-0.032-0.26-0.057-0.387-0.057v-0.284h2.117
			l1.774,4.231l1.524-3.539c0.054-0.132,0.098-0.271,0.143-0.408c0.035-0.138,0.063-0.235,0.063-0.284h2.027v0.284
			c-0.082,0-0.19,0.017-0.314,0.032c-0.127,0.024-0.216,0.042-0.279,0.059c-0.098,0.031-0.17,0.089-0.196,0.162
			c-0.037,0.074-0.054,0.155-0.054,0.244v4.059c0,0.1,0.017,0.172,0.054,0.236c0.026,0.065,0.099,0.123,0.196,0.171
			c0.055,0.026,0.145,0.05,0.279,0.073c0.133,0.017,0.242,0.033,0.322,0.033V45.991z"/>
		<path fill-rule="evenodd" clip-rule="evenodd" fill="#004F77" stroke="#004F77" stroke-width="0.6629" stroke-miterlimit="10" d="
			M157.008,43.689l-0.939-2.189l-0.925,2.189H157.008z M159.508,45.991h-2.59v-0.284c0.233-0.008,0.421-0.041,0.573-0.08
			c0.144-0.034,0.225-0.082,0.225-0.147c0-0.024-0.009-0.05-0.009-0.081c-0.009-0.042-0.018-0.066-0.025-0.098l-0.521-1.262h-2.169
			c-0.09,0.187-0.153,0.35-0.205,0.488c-0.046,0.139-0.101,0.26-0.136,0.383c-0.037,0.113-0.063,0.202-0.08,0.275
			c-0.01,0.074-0.018,0.131-0.018,0.172c0,0.105,0.09,0.188,0.268,0.252c0.188,0.057,0.395,0.09,0.629,0.098v0.284h-2.34v-0.284
			c0.072,0,0.17-0.017,0.285-0.041c0.109-0.023,0.207-0.065,0.279-0.105c0.115-0.072,0.205-0.146,0.269-0.22
			c0.063-0.081,0.126-0.187,0.188-0.325c0.313-0.709,0.665-1.506,1.04-2.385c0.377-0.887,0.709-1.666,1.004-2.359h0.35l2.071,4.867
			c0.046,0.105,0.089,0.186,0.144,0.252c0.063,0.064,0.133,0.121,0.233,0.186c0.071,0.033,0.161,0.066,0.269,0.09
			c0.106,0.024,0.197,0.041,0.268,0.041V45.991z"/>
		<path fill-rule="evenodd" clip-rule="evenodd" fill="#004F77" stroke="#004F77" stroke-width="0.6629" stroke-miterlimit="10" d="
			M164.78,41.883h-0.305c-0.027-0.098-0.07-0.212-0.143-0.341c-0.063-0.132-0.144-0.253-0.225-0.367
			c-0.089-0.121-0.189-0.229-0.287-0.325c-0.107-0.09-0.205-0.138-0.306-0.155c-0.089-0.008-0.196-0.016-0.341-0.024
			c-0.135-0.008-0.258-0.008-0.375-0.008h-0.261v4.508c0,0.09,0.028,0.171,0.063,0.244c0.045,0.074,0.115,0.131,0.216,0.171
			c0.053,0.016,0.161,0.042,0.331,0.073c0.17,0.032,0.297,0.049,0.395,0.049v0.284h-2.932v-0.284c0.08,0,0.207-0.017,0.368-0.033
			c0.17-0.016,0.286-0.031,0.349-0.055c0.098-0.034,0.17-0.082,0.216-0.147c0.044-0.065,0.063-0.155,0.063-0.26v-4.55h-0.252
			c-0.09,0-0.206,0-0.342,0.008c-0.123,0-0.259,0.009-0.375,0.024c-0.1,0.009-0.197,0.065-0.305,0.155
			c-0.098,0.097-0.198,0.204-0.287,0.325c-0.09,0.114-0.162,0.243-0.234,0.374c-0.063,0.14-0.106,0.244-0.133,0.334h-0.313v-1.529
			h5.413V41.883z"/>
		<path fill-rule="evenodd" clip-rule="evenodd" fill="#004F77" stroke="#004F77" stroke-width="0.6629" stroke-miterlimit="10" d="
			M167.998,45.991h-2.797v-0.284c0.071,0,0.189-0.008,0.342-0.024c0.144-0.009,0.251-0.024,0.313-0.048
			c0.099-0.034,0.162-0.082,0.205-0.14c0.047-0.058,0.072-0.138,0.072-0.243v-4.086c0-0.097-0.018-0.17-0.055-0.235
			c-0.025-0.065-0.106-0.113-0.223-0.155c-0.09-0.031-0.197-0.063-0.33-0.089c-0.136-0.032-0.244-0.049-0.325-0.049v-0.284h2.797
			v0.284c-0.089,0-0.196,0.009-0.323,0.024c-0.123,0.017-0.242,0.041-0.33,0.066c-0.107,0.031-0.188,0.089-0.225,0.154
			c-0.035,0.073-0.053,0.153-0.053,0.244v4.075c0,0.091,0.018,0.163,0.063,0.235c0.035,0.066,0.115,0.123,0.215,0.163
			c0.063,0.019,0.16,0.042,0.295,0.065c0.145,0.024,0.26,0.041,0.358,0.041V45.991z"/>
		<path fill-rule="evenodd" clip-rule="evenodd" fill="#004F77" stroke="#004F77" stroke-width="0.6629" stroke-miterlimit="10" d="
			M173.145,45.016c0.16-0.236,0.276-0.512,0.357-0.814c0.071-0.309,0.106-0.65,0.106-1.025c0-0.382-0.044-0.739-0.124-1.064
			c-0.081-0.318-0.207-0.595-0.369-0.822c-0.161-0.228-0.357-0.398-0.6-0.529c-0.242-0.122-0.521-0.186-0.834-0.186
			c-0.35-0.001-0.646,0.072-0.888,0.219c-0.251,0.146-0.447,0.342-0.6,0.586c-0.152,0.229-0.261,0.504-0.331,0.813
			c-0.072,0.317-0.109,0.643-0.109,0.983c0,0.383,0.046,0.725,0.117,1.034c0.072,0.31,0.197,0.577,0.358,0.821
			c0.161,0.229,0.359,0.415,0.593,0.545c0.242,0.131,0.527,0.197,0.859,0.197c0.313,0,0.592-0.066,0.844-0.197
			C172.776,45.438,172.981,45.26,173.145,45.016L173.145,45.016z M173.799,41.02c0.268,0.262,0.482,0.571,0.635,0.945
			c0.162,0.366,0.234,0.773,0.234,1.211c0,0.449-0.081,0.855-0.234,1.222c-0.16,0.366-0.377,0.676-0.655,0.935
			c-0.276,0.253-0.591,0.449-0.948,0.586c-0.359,0.139-0.746,0.213-1.148,0.213c-0.43,0-0.834-0.074-1.193-0.229
			c-0.365-0.146-0.68-0.35-0.947-0.609c-0.262-0.262-0.467-0.57-0.62-0.936c-0.144-0.367-0.224-0.757-0.224-1.182
			c0-0.455,0.08-0.862,0.241-1.219c0.153-0.366,0.368-0.676,0.646-0.938c0.279-0.26,0.592-0.454,0.959-0.593
			c0.359-0.139,0.744-0.212,1.139-0.212c0.412,0,0.797,0.073,1.166,0.212C173.214,40.573,173.528,40.768,173.799,41.02z"/>
		<path fill-rule="evenodd" clip-rule="evenodd" fill="#004F77" stroke="#004F77" stroke-width="0.6629" stroke-miterlimit="10" d="
			M181.821,40.638c-0.08,0-0.207,0.024-0.377,0.065c-0.17,0.033-0.297,0.072-0.368,0.122c-0.099,0.065-0.171,0.187-0.205,0.384
			c-0.037,0.186-0.055,0.422-0.055,0.706v4.134h-0.386l-3.765-4.613v2.905c0,0.325,0.028,0.577,0.071,0.756
			c0.047,0.171,0.118,0.294,0.207,0.366c0.063,0.065,0.205,0.113,0.412,0.164c0.217,0.056,0.35,0.08,0.422,0.08v0.284h-2.545v-0.284
			c0.07,0,0.205-0.033,0.395-0.072c0.188-0.05,0.303-0.09,0.349-0.131c0.099-0.074,0.171-0.188,0.205-0.334
			c0.046-0.154,0.063-0.414,0.063-0.781v-2.781c0-0.123-0.026-0.244-0.072-0.367c-0.043-0.122-0.107-0.213-0.188-0.275
			c-0.106-0.091-0.25-0.164-0.43-0.229c-0.18-0.058-0.322-0.099-0.432-0.099v-0.284h1.775l3.488,4.297v-2.678
			c0-0.334-0.018-0.586-0.072-0.757c-0.046-0.18-0.107-0.293-0.197-0.351c-0.082-0.056-0.215-0.105-0.404-0.153
			c-0.18-0.042-0.322-0.074-0.422-0.074v-0.284h2.529V40.638z"/>
		<path fill-rule="evenodd" clip-rule="evenodd" fill="#004F77" stroke="#004F77" stroke-width="0.6629" stroke-miterlimit="10" d="
			M189.305,41.762h-0.332c-0.063-0.204-0.188-0.432-0.385-0.668c-0.188-0.236-0.378-0.374-0.557-0.391
			c-0.09-0.017-0.195-0.024-0.322-0.024c-0.125-0.009-0.26-0.009-0.421-0.009h-1.04v2.262h0.709c0.215,0,0.385-0.023,0.501-0.064
			c0.126-0.04,0.225-0.098,0.313-0.187c0.055-0.058,0.107-0.147,0.153-0.269c0.054-0.123,0.081-0.262,0.098-0.398h0.331v2.212
			h-0.331c-0.009-0.112-0.034-0.243-0.089-0.398c-0.055-0.146-0.107-0.252-0.162-0.317c-0.089-0.098-0.195-0.171-0.331-0.203
			s-0.296-0.057-0.483-0.057h-0.709v1.943c0,0.091,0.018,0.172,0.055,0.236c0.035,0.074,0.106,0.123,0.205,0.171
			c0.037,0.019,0.135,0.042,0.279,0.065c0.152,0.024,0.26,0.041,0.33,0.041v0.284h-2.689v-0.284c0.09,0,0.207-0.008,0.352-0.024
			c0.141-0.009,0.242-0.024,0.285-0.048c0.09-0.034,0.152-0.082,0.189-0.146c0.043-0.074,0.062-0.156,0.062-0.244v-4.069
			c0-0.089-0.019-0.171-0.053-0.236c-0.028-0.064-0.101-0.121-0.198-0.163c-0.08-0.031-0.188-0.063-0.323-0.089
			c-0.124-0.032-0.233-0.049-0.313-0.049v-0.284h4.877V41.762z"/>
		<path fill-rule="evenodd" clip-rule="evenodd" fill="#004F77" stroke="#004F77" stroke-width="0.6629" stroke-miterlimit="10" d="
			M194.217,45.016c0.16-0.236,0.278-0.512,0.359-0.814c0.071-0.309,0.105-0.65,0.105-1.025c0.001-0.382-0.043-0.739-0.123-1.064
			c-0.081-0.318-0.207-0.595-0.369-0.822c-0.161-0.228-0.357-0.398-0.6-0.529c-0.241-0.122-0.521-0.186-0.834-0.186
			c-0.35-0.001-0.646,0.072-0.889,0.219c-0.25,0.146-0.447,0.342-0.599,0.586c-0.152,0.229-0.261,0.504-0.333,0.813
			c-0.07,0.317-0.107,0.643-0.107,0.983c0,0.383,0.046,0.725,0.118,1.034c0.069,0.31,0.196,0.577,0.357,0.821
			c0.161,0.229,0.358,0.415,0.591,0.545c0.242,0.131,0.529,0.197,0.861,0.197c0.313,0,0.593-0.066,0.844-0.197
			C193.85,45.438,194.055,45.26,194.217,45.016L194.217,45.016z M194.874,41.02c0.268,0.262,0.482,0.571,0.634,0.945
			c0.163,0.366,0.233,0.773,0.233,1.211c0,0.449-0.081,0.855-0.233,1.222c-0.161,0.366-0.376,0.676-0.654,0.935
			c-0.276,0.253-0.591,0.449-0.95,0.586c-0.357,0.139-0.744,0.213-1.146,0.213c-0.43,0-0.834-0.074-1.193-0.229
			c-0.365-0.146-0.68-0.35-0.949-0.609c-0.26-0.262-0.465-0.57-0.617-0.936c-0.145-0.367-0.225-0.757-0.225-1.182
			c0-0.455,0.08-0.862,0.241-1.219c0.153-0.366,0.368-0.676,0.646-0.938c0.277-0.26,0.591-0.454,0.959-0.593
			c0.357-0.139,0.744-0.212,1.139-0.212c0.412,0,0.798,0.073,1.166,0.212C194.289,40.573,194.602,40.768,194.874,41.02z"/>
		<path fill-rule="evenodd" clip-rule="evenodd" fill="#004F77" stroke="#004F77" stroke-width="0.6629" stroke-miterlimit="10" d="
			M200.268,41.785c0-0.341-0.107-0.61-0.322-0.813c-0.216-0.197-0.521-0.294-0.916-0.294h-0.743v2.417h0.573
			c0.404,0,0.735-0.113,1.005-0.35C200.133,42.51,200.268,42.192,200.268,41.785z M202.573,45.991h-1.677
			c-0.368-0.528-0.7-0.983-1.005-1.366c-0.296-0.382-0.619-0.781-0.968-1.188h-0.637v1.791c0,0.088,0.018,0.17,0.046,0.243
			c0.035,0.065,0.098,0.121,0.205,0.155c0.055,0.023,0.144,0.039,0.278,0.056c0.125,0.017,0.243,0.024,0.331,0.024v0.284h-2.626
			v-0.284c0.071,0,0.17-0.017,0.306-0.024c0.135-0.017,0.224-0.032,0.276-0.056c0.089-0.034,0.152-0.082,0.189-0.147
			c0.044-0.065,0.062-0.155,0.062-0.251V41.15c0-0.097-0.018-0.178-0.044-0.252c-0.026-0.064-0.099-0.123-0.207-0.162
			c-0.071-0.024-0.171-0.042-0.286-0.066c-0.117-0.016-0.215-0.032-0.296-0.032v-0.284h2.869c0.259,0,0.51,0.023,0.734,0.073
			c0.233,0.049,0.44,0.13,0.628,0.235c0.179,0.105,0.322,0.244,0.43,0.415c0.109,0.171,0.17,0.375,0.17,0.619
			c0,0.219-0.044,0.407-0.115,0.577c-0.072,0.163-0.18,0.31-0.323,0.431c-0.126,0.115-0.288,0.212-0.476,0.294
			c-0.178,0.089-0.385,0.154-0.602,0.22c0.306,0.365,0.557,0.675,0.764,0.927c0.196,0.253,0.449,0.554,0.743,0.92
			c0.126,0.155,0.242,0.276,0.351,0.35c0.099,0.074,0.205,0.139,0.304,0.187c0.08,0.034,0.171,0.058,0.287,0.073
			c0.116,0.025,0.207,0.033,0.288,0.033V45.991z"/>
		<path fill-rule="evenodd" clip-rule="evenodd" fill="#004F77" stroke="#004F77" stroke-width="0.6629" stroke-miterlimit="10" d="
			M208.927,44.314c0-0.332-0.126-0.608-0.368-0.82c-0.251-0.22-0.6-0.326-1.057-0.326c-0.188,0-0.35,0-0.477,0.008
			c-0.124,0-0.225,0.008-0.285,0.008v1.986c0,0.171,0.07,0.293,0.223,0.383c0.144,0.082,0.351,0.121,0.619,0.121
			c0.43,0,0.771-0.113,0.994-0.342C208.809,45.104,208.927,44.764,208.927,44.314z M208.317,42.518
			c0.117-0.113,0.189-0.244,0.233-0.375c0.036-0.137,0.063-0.3,0.063-0.48c0-0.308-0.099-0.552-0.288-0.731
			c-0.179-0.179-0.476-0.261-0.878-0.261c-0.099,0-0.215,0-0.35,0c-0.144,0.009-0.268,0.009-0.357,0.017v2.165h0.556
			c0.231,0,0.438-0.032,0.608-0.09C208.075,42.712,208.219,42.623,208.317,42.518z M209.375,43.365
			c0.181,0.112,0.333,0.26,0.449,0.438c0.126,0.18,0.179,0.398,0.179,0.651c0,0.269-0.063,0.496-0.188,0.685
			c-0.127,0.193-0.288,0.356-0.484,0.48c-0.198,0.12-0.421,0.209-0.663,0.275c-0.251,0.065-0.503,0.097-0.763,0.097h-2.949v-0.284
			c0.072,0,0.181-0.017,0.314-0.033c0.135-0.016,0.224-0.039,0.287-0.055c0.09-0.043,0.152-0.091,0.188-0.156
			c0.045-0.057,0.063-0.139,0.063-0.234v-4.054c0-0.089-0.019-0.171-0.055-0.244c-0.035-0.065-0.099-0.121-0.196-0.163
			c-0.09-0.039-0.189-0.073-0.297-0.089c-0.106-0.024-0.195-0.041-0.268-0.041v-0.284h2.869c0.213,0,0.43,0.016,0.637,0.057
			c0.195,0.041,0.392,0.113,0.572,0.211c0.18,0.099,0.314,0.221,0.43,0.383c0.107,0.154,0.162,0.351,0.162,0.577
			c0,0.196-0.035,0.376-0.117,0.53c-0.08,0.154-0.188,0.293-0.332,0.398c-0.133,0.105-0.286,0.194-0.456,0.268
			c-0.181,0.074-0.368,0.131-0.565,0.171v0.034c0.18,0.023,0.376,0.064,0.592,0.121C209.008,43.168,209.204,43.25,209.375,43.365
			L209.375,43.365z"/>
		<path fill-rule="evenodd" clip-rule="evenodd" fill="#004F77" stroke="#004F77" stroke-width="0.6629" stroke-miterlimit="10" d="
			M217.12,40.638c-0.08,0-0.207,0.017-0.357,0.049c-0.162,0.025-0.287,0.073-0.386,0.131c-0.101,0.057-0.17,0.187-0.207,0.373
			c-0.044,0.196-0.063,0.425-0.063,0.7v2.45c0,0.317-0.07,0.585-0.213,0.813c-0.145,0.236-0.332,0.422-0.564,0.569
			c-0.225,0.146-0.467,0.244-0.727,0.31c-0.251,0.065-0.504,0.098-0.736,0.098c-0.367,0-0.698-0.05-0.994-0.14
			c-0.297-0.089-0.539-0.202-0.735-0.356c-0.198-0.155-0.341-0.326-0.44-0.522c-0.098-0.194-0.15-0.398-0.15-0.608v-3.329
			c0-0.098-0.02-0.171-0.055-0.236c-0.027-0.064-0.098-0.121-0.197-0.171c-0.072-0.039-0.171-0.064-0.287-0.089
			c-0.107-0.024-0.207-0.041-0.278-0.041l0.001-0.284h2.591v0.284c-0.081,0-0.188,0.017-0.313,0.032
			c-0.117,0.024-0.217,0.042-0.271,0.059c-0.098,0.031-0.171,0.089-0.196,0.162c-0.037,0.074-0.055,0.155-0.055,0.244v3.117
			c0,0.146,0.018,0.308,0.055,0.471c0.035,0.163,0.107,0.317,0.216,0.463c0.116,0.146,0.269,0.261,0.464,0.359
			c0.199,0.09,0.467,0.138,0.807,0.138c0.325,0,0.594-0.048,0.808-0.138c0.216-0.099,0.386-0.221,0.512-0.367
			c0.124-0.146,0.205-0.292,0.26-0.446c0.046-0.164,0.071-0.317,0.071-0.472V41.94c0-0.294-0.025-0.53-0.071-0.716
			c-0.044-0.188-0.116-0.311-0.206-0.367c-0.1-0.073-0.241-0.121-0.413-0.154c-0.179-0.041-0.313-0.065-0.412-0.065v-0.284h2.546
			V40.638z"/>
		<path fill-rule="evenodd" clip-rule="evenodd" fill="#004F77" stroke="#004F77" stroke-width="0.6629" stroke-miterlimit="10" d="
			M221.475,43.404c0.136,0.131,0.234,0.276,0.297,0.439c0.063,0.155,0.09,0.334,0.09,0.545c0,0.497-0.205,0.912-0.609,1.238
			c-0.402,0.316-0.906,0.479-1.506,0.479c-0.279,0-0.556-0.042-0.834-0.115c-0.277-0.081-0.52-0.179-0.719-0.284l-0.187,0.292
			h-0.349l-0.063-1.937h0.358c0.071,0.236,0.151,0.457,0.252,0.643c0.098,0.197,0.223,0.376,0.384,0.547
			c0.152,0.154,0.333,0.276,0.538,0.375c0.199,0.089,0.44,0.138,0.699,0.138c0.206,0,0.387-0.025,0.528-0.074
			c0.153-0.048,0.279-0.114,0.368-0.202c0.098-0.09,0.162-0.188,0.207-0.311c0.044-0.113,0.07-0.252,0.07-0.406
			c0-0.229-0.07-0.431-0.214-0.627c-0.136-0.195-0.343-0.342-0.619-0.446c-0.196-0.065-0.411-0.147-0.654-0.229
			c-0.241-0.081-0.458-0.163-0.636-0.235c-0.35-0.147-0.619-0.334-0.816-0.563c-0.197-0.235-0.287-0.537-0.287-0.91
			c0-0.213,0.046-0.416,0.145-0.596c0.089-0.186,0.232-0.349,0.412-0.496c0.16-0.139,0.367-0.251,0.592-0.324
			c0.231-0.082,0.475-0.123,0.727-0.123c0.285,0,0.536,0.041,0.77,0.123c0.225,0.081,0.432,0.17,0.619,0.275l0.179-0.268h0.349
			l0.037,1.871h-0.359c-0.062-0.211-0.133-0.424-0.215-0.617c-0.08-0.197-0.188-0.375-0.313-0.53
			c-0.127-0.154-0.279-0.276-0.458-0.365c-0.179-0.091-0.403-0.138-0.663-0.138c-0.279-0.001-0.521,0.08-0.709,0.243
			c-0.195,0.163-0.296,0.357-0.296,0.585c0,0.244,0.063,0.449,0.189,0.611c0.124,0.162,0.306,0.291,0.548,0.391
			c0.213,0.098,0.42,0.179,0.625,0.244c0.207,0.063,0.403,0.137,0.602,0.219c0.17,0.064,0.34,0.146,0.502,0.229
			C221.216,43.184,221.36,43.291,221.475,43.404L221.475,43.404z"/>
		<path fill-rule="evenodd" clip-rule="evenodd" fill="#004F77" stroke="#004F77" stroke-width="0.6629" stroke-miterlimit="10" d="
			M225.358,45.991h-2.797v-0.284c0.072,0,0.188-0.008,0.34-0.024c0.145-0.009,0.252-0.024,0.314-0.048
			c0.098-0.034,0.161-0.082,0.207-0.14c0.043-0.058,0.072-0.138,0.072-0.243v-4.086c0-0.097-0.02-0.17-0.055-0.235
			c-0.027-0.065-0.109-0.113-0.225-0.155c-0.09-0.031-0.196-0.063-0.332-0.089c-0.135-0.032-0.242-0.049-0.322-0.049v-0.284h2.797
			v0.284c-0.089,0-0.198,0.009-0.322,0.024c-0.127,0.017-0.242,0.041-0.332,0.066c-0.108,0.031-0.189,0.089-0.225,0.154
			c-0.036,0.073-0.054,0.153-0.054,0.244v4.075c0,0.091,0.018,0.163,0.063,0.235c0.035,0.066,0.115,0.123,0.215,0.163
			c0.063,0.019,0.162,0.042,0.295,0.065c0.145,0.024,0.262,0.041,0.359,0.041V45.991z"/>
		<path fill-rule="evenodd" clip-rule="evenodd" fill="#004F77" stroke="#004F77" stroke-width="0.6629" stroke-miterlimit="10" d="
			M232.51,40.638c-0.08,0-0.205,0.024-0.377,0.065c-0.17,0.033-0.294,0.072-0.365,0.122c-0.1,0.065-0.17,0.187-0.207,0.384
			c-0.035,0.186-0.055,0.422-0.055,0.706v4.134h-0.385l-3.764-4.613v2.905c0,0.325,0.025,0.577,0.071,0.756
			c0.044,0.171,0.116,0.294,0.205,0.366c0.063,0.065,0.207,0.113,0.412,0.164c0.216,0.056,0.351,0.08,0.423,0.08v0.284h-2.547
			v-0.284c0.072,0,0.205-0.033,0.395-0.072c0.188-0.05,0.306-0.09,0.35-0.131c0.098-0.074,0.17-0.188,0.207-0.334
			c0.043-0.154,0.063-0.414,0.063-0.781v-2.781c0-0.123-0.027-0.244-0.072-0.367c-0.045-0.122-0.108-0.213-0.189-0.275
			c-0.105-0.091-0.25-0.164-0.429-0.229c-0.179-0.058-0.323-0.099-0.431-0.099v-0.284h1.775l3.486,4.297v-2.678
			c0-0.334-0.018-0.586-0.072-0.757c-0.043-0.18-0.107-0.293-0.196-0.351c-0.081-0.056-0.216-0.105-0.403-0.153
			c-0.18-0.042-0.322-0.074-0.42-0.074v-0.284h2.525V40.638z"/>
		<path fill-rule="evenodd" clip-rule="evenodd" fill="#004F77" stroke="#004F77" stroke-width="0.6629" stroke-miterlimit="10" d="
			M238.229,44.333l-0.115,1.658h-5.154v-0.284c0.09,0,0.205-0.017,0.35-0.033c0.144-0.016,0.242-0.031,0.287-0.047
			c0.09-0.042,0.162-0.099,0.197-0.164c0.035-0.057,0.054-0.139,0.054-0.234v-4.054c0-0.089-0.019-0.171-0.054-0.236
			c-0.027-0.064-0.099-0.121-0.197-0.163c-0.08-0.031-0.189-0.063-0.324-0.089c-0.125-0.032-0.231-0.049-0.313-0.049v-0.284h4.805
			v1.358h-0.324c-0.061-0.204-0.188-0.415-0.384-0.643c-0.189-0.228-0.377-0.35-0.548-0.366c-0.098-0.017-0.207-0.024-0.331-0.024
			c-0.126-0.009-0.259-0.009-0.421-0.009h-0.979v2.238h0.7c0.225,0,0.386-0.016,0.493-0.057c0.098-0.04,0.189-0.105,0.27-0.195
			c0.061-0.073,0.125-0.179,0.17-0.309c0.044-0.123,0.072-0.244,0.09-0.359h0.322v2.205H236.5c-0.018-0.131-0.046-0.26-0.098-0.406
			c-0.055-0.139-0.109-0.244-0.162-0.31c-0.092-0.097-0.189-0.171-0.305-0.203c-0.118-0.024-0.271-0.04-0.458-0.04h-0.7v1.691
			c0,0.163,0.01,0.303,0.037,0.398c0.026,0.098,0.081,0.171,0.152,0.221c0.081,0.048,0.18,0.082,0.314,0.098
			c0.133,0.016,0.314,0.023,0.555,0.023c0.1,0,0.224,0,0.385,0c0.152,0,0.287-0.008,0.395-0.016
			c0.117-0.008,0.225-0.031,0.352-0.058c0.115-0.032,0.195-0.064,0.25-0.113c0.133-0.131,0.269-0.317,0.421-0.577
			c0.144-0.261,0.241-0.448,0.278-0.569H238.229z"/>
		<path fill-rule="evenodd" clip-rule="evenodd" fill="#004F77" stroke="#004F77" stroke-width="0.6629" stroke-miterlimit="10" d="
			M242.729,43.404c0.135,0.131,0.232,0.276,0.297,0.439c0.063,0.155,0.088,0.334,0.088,0.545c0,0.497-0.204,0.912-0.607,1.238
			c-0.404,0.316-0.907,0.479-1.506,0.479c-0.279,0-0.557-0.042-0.836-0.115c-0.276-0.081-0.519-0.179-0.715-0.284l-0.189,0.292
			h-0.349l-0.063-1.937h0.359c0.07,0.236,0.15,0.457,0.251,0.643c0.099,0.197,0.224,0.376,0.384,0.547
			c0.152,0.154,0.334,0.276,0.539,0.375c0.197,0.089,0.439,0.138,0.699,0.138c0.205,0,0.386-0.025,0.527-0.074
			c0.152-0.048,0.279-0.114,0.369-0.202c0.098-0.09,0.161-0.188,0.207-0.311c0.043-0.113,0.071-0.252,0.071-0.406
			c0-0.229-0.071-0.431-0.216-0.627c-0.135-0.195-0.34-0.342-0.619-0.446c-0.195-0.065-0.412-0.147-0.654-0.229
			s-0.457-0.163-0.636-0.235c-0.349-0.147-0.619-0.334-0.815-0.563c-0.198-0.235-0.287-0.537-0.287-0.91
			c0-0.213,0.045-0.416,0.143-0.596c0.09-0.186,0.233-0.349,0.412-0.496c0.162-0.139,0.369-0.251,0.594-0.324
			c0.232-0.082,0.475-0.123,0.726-0.123c0.286,0,0.536,0.041,0.77,0.123c0.224,0.081,0.431,0.17,0.619,0.275l0.179-0.268h0.352
			l0.034,1.871h-0.357c-0.063-0.211-0.136-0.424-0.216-0.617c-0.08-0.197-0.188-0.375-0.314-0.53
			c-0.125-0.154-0.277-0.276-0.457-0.365c-0.179-0.091-0.403-0.138-0.662-0.138c-0.277-0.001-0.521,0.08-0.709,0.243
			c-0.197,0.163-0.297,0.357-0.297,0.585c0,0.244,0.063,0.449,0.189,0.611c0.125,0.162,0.305,0.291,0.547,0.391
			c0.215,0.098,0.422,0.179,0.629,0.244c0.205,0.063,0.4,0.137,0.599,0.219c0.171,0.064,0.341,0.146,0.502,0.229
			C242.469,43.184,242.614,43.291,242.729,43.404L242.729,43.404z"/>
		<path fill-rule="evenodd" clip-rule="evenodd" fill="#004F77" stroke="#004F77" stroke-width="0.6629" stroke-miterlimit="10" d="
			M247.758,43.404c0.135,0.131,0.232,0.276,0.297,0.439c0.063,0.155,0.089,0.334,0.089,0.545c0,0.497-0.206,0.912-0.61,1.238
			c-0.403,0.316-0.904,0.479-1.505,0.479c-0.278,0-0.556-0.042-0.835-0.115c-0.276-0.081-0.519-0.179-0.717-0.284l-0.188,0.292
			h-0.349l-0.063-1.937h0.357c0.072,0.236,0.152,0.457,0.251,0.643c0.101,0.197,0.224,0.376,0.386,0.547
			c0.152,0.154,0.332,0.276,0.539,0.375c0.195,0.089,0.438,0.138,0.699,0.138c0.205,0,0.385-0.025,0.527-0.074
			c0.152-0.048,0.279-0.114,0.369-0.202c0.098-0.09,0.16-0.188,0.205-0.311c0.045-0.113,0.071-0.252,0.071-0.406
			c0-0.229-0.071-0.431-0.214-0.627c-0.135-0.195-0.342-0.342-0.619-0.446c-0.198-0.065-0.412-0.147-0.654-0.229
			s-0.457-0.163-0.637-0.235c-0.35-0.147-0.619-0.334-0.814-0.563c-0.198-0.235-0.288-0.537-0.288-0.91
			c0-0.213,0.046-0.416,0.144-0.596c0.09-0.186,0.234-0.349,0.412-0.496c0.162-0.139,0.369-0.251,0.592-0.324
			c0.232-0.082,0.475-0.123,0.726-0.123c0.288,0,0.538,0.041,0.771,0.123c0.225,0.081,0.429,0.17,0.618,0.275l0.18-0.268h0.35
			l0.037,1.871h-0.36c-0.062-0.211-0.134-0.424-0.214-0.617c-0.08-0.197-0.189-0.375-0.314-0.53
			c-0.126-0.154-0.278-0.276-0.457-0.365c-0.18-0.091-0.403-0.138-0.663-0.138c-0.278-0.001-0.521,0.08-0.708,0.243
			c-0.199,0.163-0.297,0.357-0.297,0.585c0,0.244,0.063,0.449,0.189,0.611c0.125,0.162,0.303,0.291,0.545,0.391
			c0.217,0.098,0.423,0.179,0.628,0.244c0.208,0.063,0.403,0.137,0.603,0.219c0.17,0.064,0.34,0.146,0.5,0.229
			C247.499,43.184,247.642,43.291,247.758,43.404L247.758,43.404z"/>
	</g>
	<g>
		<path fill-rule="evenodd" clip-rule="evenodd" fill="#666666" stroke="#666666" stroke-width="0.6629" stroke-miterlimit="10" d="
			M119.126,8.98v4.14h2.302c0.583,0,0.994-0.096,1.182-0.269c0.268-0.237,0.426-0.664,0.458-1.264l0.284-0.001v3.65h-0.284
			c-0.079-0.506-0.158-0.838-0.222-0.979c-0.094-0.175-0.251-0.316-0.457-0.428c-0.205-0.094-0.536-0.157-0.962-0.157h-2.302v3.461
			c0,0.457,0.015,0.741,0.063,0.837c0.047,0.095,0.11,0.174,0.221,0.236c0.094,0.063,0.299,0.096,0.583,0.096h1.766
			c0.584,0,1.026-0.048,1.293-0.127c0.268-0.079,0.521-0.236,0.757-0.489c0.333-0.316,0.646-0.79,0.979-1.438h0.315l-0.9,2.622
			h-8.043v-0.284h0.363c0.252,0,0.473-0.063,0.694-0.174c0.173-0.096,0.284-0.206,0.347-0.38c0.047-0.158,0.078-0.505,0.078-1.011
			v-6.794c0-0.663-0.063-1.074-0.188-1.232c-0.19-0.206-0.505-0.301-0.931-0.301h-0.363V8.411h8.043l0.11,2.291h-0.299
			c-0.11-0.553-0.221-0.932-0.363-1.137c-0.126-0.206-0.314-0.364-0.567-0.475c-0.206-0.079-0.568-0.11-1.088-0.11H119.126z"/>
		<path fill-rule="evenodd" clip-rule="evenodd" fill="#666666" stroke="#666666" stroke-width="0.6629" stroke-miterlimit="10" d="
			M131.901,13.072l2.239,3.35c0.631,0.932,1.089,1.518,1.388,1.754c0.3,0.253,0.679,0.379,1.152,0.411v0.284h-4.495v-0.284
			c0.298,0,0.52-0.032,0.661-0.095c0.11-0.048,0.205-0.11,0.269-0.206c0.079-0.095,0.111-0.205,0.111-0.3
			c0-0.111-0.032-0.237-0.079-0.348c-0.032-0.095-0.175-0.316-0.412-0.68l-1.781-2.686l-2.176,2.813
			c-0.236,0.3-0.379,0.49-0.426,0.584c-0.048,0.111-0.063,0.205-0.063,0.316c0,0.174,0.063,0.3,0.205,0.41
			c0.141,0.111,0.41,0.174,0.787,0.19v0.284h-3.705v-0.284c0.269-0.032,0.488-0.079,0.679-0.158
			c0.331-0.143,0.631-0.316,0.913-0.554c0.285-0.22,0.616-0.568,0.979-1.042l2.477-3.113l-2.067-3.018
			c-0.55-0.806-1.023-1.343-1.417-1.596c-0.395-0.269-0.838-0.395-1.342-0.411V8.411h4.826v0.284
			c-0.41,0.016-0.693,0.079-0.852,0.206c-0.143,0.11-0.221,0.236-0.221,0.379c0,0.206,0.125,0.475,0.361,0.838l1.608,2.401
			l1.862-2.354c0.205-0.269,0.347-0.458,0.395-0.568c0.047-0.11,0.063-0.206,0.063-0.316s-0.031-0.205-0.095-0.284
			c-0.063-0.11-0.173-0.189-0.282-0.222c-0.127-0.047-0.364-0.079-0.729-0.079l0.003-0.284h3.69v0.284
			c-0.285,0.016-0.521,0.064-0.711,0.143c-0.284,0.11-0.536,0.269-0.758,0.475c-0.236,0.205-0.567,0.568-0.977,1.105L131.901,13.072
			z"/>
		<path fill-rule="evenodd" clip-rule="evenodd" fill="#666666" stroke="#666666" stroke-width="0.6629" stroke-miterlimit="10" d="
			M141.727,18.587v0.284h-4.479v-0.284h0.362c0.441,0,0.758-0.126,0.945-0.38c0.128-0.157,0.189-0.568,0.189-1.185V10.26
			c0-0.537-0.031-0.885-0.109-1.043c-0.047-0.142-0.158-0.252-0.316-0.331c-0.221-0.126-0.457-0.19-0.709-0.19h-0.362V8.411h4.479
			v0.284h-0.379c-0.426,0-0.741,0.127-0.932,0.38c-0.125,0.158-0.204,0.553-0.204,1.185v6.763c0,0.521,0.046,0.869,0.11,1.043
			c0.047,0.126,0.157,0.237,0.314,0.331c0.223,0.127,0.459,0.19,0.711,0.19H141.727z"/>
		<path fill-rule="evenodd" clip-rule="evenodd" fill="#666666" stroke="#666666" stroke-width="0.6629" stroke-miterlimit="10" d="
			M148.555,18.871l-4.039-8.801v6.984c0,0.647,0.08,1.042,0.222,1.2c0.19,0.221,0.489,0.332,0.899,0.332H146v0.284h-3.627v-0.284
			h0.361c0.443,0,0.758-0.143,0.947-0.411c0.109-0.157,0.157-0.537,0.157-1.121v-6.826c0-0.474-0.048-0.806-0.142-1.012
			c-0.08-0.142-0.205-0.269-0.395-0.379c-0.205-0.095-0.504-0.143-0.93-0.143V8.411h2.949l3.785,8.185l3.736-8.185h2.949v0.284
			h-0.361c-0.442,0-0.758,0.127-0.947,0.396c-0.111,0.174-0.172,0.537-0.172,1.138v6.826c0,0.647,0.078,1.042,0.219,1.2
			c0.19,0.221,0.488,0.332,0.9,0.332h0.361v0.284h-4.431v-0.284h0.361c0.458,0,0.774-0.143,0.946-0.411
			c0.112-0.157,0.174-0.537,0.174-1.121V10.07l-4.037,8.801H148.555z"/>
		<path fill-rule="evenodd" clip-rule="evenodd" fill="#666666" stroke="#666666" stroke-width="0.6629" stroke-miterlimit="10" d="
			M167.307,8.174v3.619h-0.284c-0.095-0.696-0.268-1.249-0.504-1.659c-0.237-0.411-0.583-0.743-1.026-0.979
			c-0.439-0.253-0.898-0.364-1.371-0.364c-0.52,0-0.963,0.158-1.326,0.49c-0.346,0.316-0.52,0.695-0.52,1.106
			c0,0.315,0.109,0.616,0.331,0.868c0.315,0.396,1.071,0.901,2.271,1.549c0.979,0.521,1.642,0.933,2.003,1.217
			c0.364,0.269,0.631,0.601,0.821,0.979c0.189,0.379,0.299,0.79,0.299,1.201c0,0.789-0.315,1.469-0.93,2.054
			c-0.615,0.569-1.404,0.854-2.367,0.854c-0.297,0-0.582-0.016-0.85-0.063c-0.158-0.031-0.488-0.127-0.995-0.285
			c-0.504-0.157-0.819-0.252-0.946-0.252c-0.125,0-0.234,0.047-0.316,0.126c-0.061,0.079-0.124,0.237-0.155,0.475h-0.284v-3.587
			h0.284c0.126,0.759,0.313,1.312,0.535,1.691c0.237,0.362,0.567,0.679,1.041,0.932c0.458,0.237,0.978,0.363,1.529,0.363
			c0.632,0,1.153-0.174,1.515-0.506c0.379-0.347,0.567-0.742,0.567-1.2c0-0.269-0.079-0.521-0.222-0.79
			c-0.141-0.253-0.361-0.506-0.661-0.728c-0.188-0.157-0.741-0.489-1.64-0.979c-0.883-0.506-1.514-0.9-1.894-1.201
			c-0.379-0.3-0.661-0.632-0.868-0.995c-0.188-0.363-0.282-0.758-0.282-1.185c0-0.759,0.282-1.391,0.851-1.943
			c0.585-0.537,1.311-0.807,2.193-0.807c0.568,0,1.15,0.127,1.766,0.411c0.283,0.126,0.489,0.189,0.615,0.189
			s0.236-0.047,0.332-0.126c0.079-0.079,0.141-0.237,0.204-0.475H167.307z"/>
		<path fill-rule="evenodd" clip-rule="evenodd" fill="#666666" stroke="#666666" stroke-width="0.6629" stroke-miterlimit="10" d="
			M174.467,8.728c-0.946,0-1.688,0.348-2.255,1.043c-0.71,0.869-1.057,2.133-1.057,3.792c0.001,1.722,0.362,3.033,1.087,3.949
			c0.568,0.695,1.311,1.043,2.225,1.043c0.978,0,1.797-0.379,2.428-1.137c0.646-0.774,0.963-1.976,0.963-3.635
			c0-1.785-0.347-3.128-1.057-3.997C176.233,9.075,175.459,8.728,174.467,8.728z M174.61,8.174c1.356,0,2.521,0.506,3.518,1.549
			c0.992,1.027,1.496,2.307,1.496,3.855c0,1.596-0.504,2.907-1.514,3.95c-0.993,1.059-2.207,1.58-3.627,1.58
			c-1.436,0-2.65-0.506-3.627-1.532c-0.979-1.027-1.467-2.354-1.467-3.982c0-1.659,0.568-3.002,1.703-4.061
			C172.07,8.616,173.238,8.174,174.61,8.174z"/>
		<path fill-rule="evenodd" clip-rule="evenodd" fill="#666666" stroke="#666666" stroke-width="0.6629" stroke-miterlimit="10" d="
			M189.262,15.979l0.252,0.048l-0.884,2.844h-8.091v-0.284h0.395c0.441,0,0.756-0.143,0.947-0.427
			c0.109-0.174,0.155-0.553,0.155-1.153V10.26c0-0.647-0.062-1.059-0.204-1.232c-0.205-0.221-0.504-0.332-0.898-0.332h-0.395V8.411
			h4.732v0.284c-0.553,0-0.947,0.048-1.169,0.158c-0.222,0.095-0.377,0.237-0.456,0.411c-0.078,0.158-0.127,0.553-0.127,1.17v6.572
			c0,0.427,0.049,0.727,0.127,0.885c0.062,0.11,0.158,0.189,0.283,0.237c0.127,0.047,0.521,0.078,1.199,0.078h0.756
			c0.805,0,1.373-0.063,1.688-0.174c0.332-0.126,0.631-0.331,0.9-0.632C188.725,17.102,188.993,16.627,189.262,15.979z"/>
		<path fill-rule="evenodd" clip-rule="evenodd" fill="#666666" stroke="#666666" stroke-width="0.6629" stroke-miterlimit="10" d="
			M197.383,8.695V8.411h3.706v0.284h-0.396c-0.409,0-0.725,0.174-0.946,0.521c-0.109,0.158-0.173,0.521-0.173,1.106v4.234
			c0,1.059-0.094,1.864-0.301,2.449c-0.219,0.584-0.629,1.074-1.229,1.485c-0.616,0.426-1.436,0.632-2.492,0.632
			c-1.135,0-2.002-0.206-2.586-0.601c-0.6-0.395-1.01-0.933-1.262-1.596c-0.158-0.458-0.236-1.312-0.236-2.575V10.26
			c0-0.647-0.095-1.059-0.268-1.264c-0.174-0.206-0.474-0.301-0.868-0.301h-0.395V8.411h4.525v0.284h-0.409
			c-0.426,0-0.741,0.127-0.914,0.411c-0.143,0.174-0.206,0.569-0.206,1.153v4.566c0,0.396,0.048,0.869,0.111,1.391
			c0.079,0.521,0.222,0.932,0.409,1.232c0.189,0.284,0.475,0.521,0.852,0.711c0.363,0.205,0.806,0.301,1.34,0.301
			c0.695,0,1.293-0.158,1.83-0.459c0.553-0.3,0.914-0.68,1.12-1.138c0.188-0.474,0.285-1.264,0.285-2.37V10.26
			c0-0.647-0.063-1.059-0.206-1.232c-0.206-0.221-0.504-0.332-0.898-0.332H197.383z"/>
		<path fill-rule="evenodd" clip-rule="evenodd" fill="#666666" stroke="#666666" stroke-width="0.6629" stroke-miterlimit="10" d="
			M210.378,8.411l0.11,2.449h-0.299c-0.048-0.426-0.127-0.742-0.221-0.932c-0.158-0.285-0.379-0.506-0.632-0.648
			c-0.267-0.143-0.616-0.222-1.056-0.222h-1.469v7.996c0,0.647,0.078,1.042,0.206,1.2c0.206,0.221,0.505,0.332,0.898,0.332h0.364
			v0.284h-4.416v-0.284h0.361c0.443,0,0.758-0.143,0.947-0.411c0.109-0.157,0.157-0.537,0.157-1.121V9.059h-1.247
			c-0.488,0-0.834,0.048-1.041,0.111c-0.267,0.095-0.504,0.284-0.691,0.568c-0.191,0.269-0.301,0.648-0.332,1.122h-0.3l0.127-2.449
			H210.378z"/>
		<path fill-rule="evenodd" clip-rule="evenodd" fill="#666666" stroke="#666666" stroke-width="0.6629" stroke-miterlimit="10" d="
			M215.756,18.587v0.284h-4.479v-0.284h0.363c0.44,0,0.756-0.126,0.946-0.38c0.125-0.157,0.188-0.568,0.188-1.185V10.26
			c0-0.537-0.033-0.885-0.11-1.043c-0.048-0.142-0.157-0.252-0.315-0.331c-0.221-0.126-0.457-0.19-0.709-0.19h-0.363V8.411h4.479
			v0.284h-0.379c-0.426,0-0.741,0.127-0.93,0.38c-0.127,0.158-0.205,0.553-0.205,1.185v6.763c0,0.521,0.048,0.869,0.111,1.043
			c0.046,0.126,0.157,0.237,0.313,0.331c0.222,0.127,0.458,0.19,0.71,0.19H215.756z"/>
		<path fill-rule="evenodd" clip-rule="evenodd" fill="#666666" stroke="#666666" stroke-width="0.6629" stroke-miterlimit="10" d="
			M221.766,8.728c-0.947,0-1.688,0.348-2.256,1.043c-0.71,0.869-1.057,2.133-1.057,3.792c0,1.722,0.362,3.033,1.088,3.949
			c0.567,0.695,1.31,1.043,2.224,1.043c0.978,0,1.798-0.379,2.429-1.137c0.646-0.774,0.961-1.976,0.961-3.635
			c0-1.785-0.346-3.128-1.056-3.997C223.532,9.075,222.758,8.728,221.766,8.728L221.766,8.728z M221.908,8.174
			c1.356,0,2.522,0.506,3.517,1.549c0.994,1.027,1.498,2.307,1.498,3.855c0,1.596-0.504,2.907-1.515,3.95
			c-0.993,1.059-2.207,1.58-3.627,1.58c-1.436,0-2.649-0.506-3.626-1.532c-0.979-1.027-1.467-2.354-1.467-3.982
			c0-1.659,0.566-3.002,1.703-4.061C219.368,8.616,220.536,8.174,221.908,8.174z"/>
		<path fill-rule="evenodd" clip-rule="evenodd" fill="#666666" stroke="#666666" stroke-width="0.6629" stroke-miterlimit="10" d="
			M227.317,8.411h2.84l6.37,7.838v-6.021c0-0.648-0.063-1.059-0.204-1.217c-0.19-0.205-0.49-0.316-0.9-0.316h-0.361V8.411h3.627
			v0.284h-0.361c-0.443,0-0.759,0.127-0.947,0.396c-0.111,0.174-0.174,0.537-0.174,1.138v8.816h-0.269l-6.892-8.438v6.447
			c0,0.647,0.078,1.042,0.205,1.2c0.204,0.221,0.504,0.332,0.914,0.332h0.363v0.284h-3.627v-0.284h0.348
			c0.457,0,0.771-0.143,0.961-0.411c0.109-0.157,0.158-0.537,0.158-1.121V9.786c-0.301-0.363-0.537-0.601-0.68-0.711
			c-0.158-0.111-0.395-0.222-0.692-0.315c-0.157-0.049-0.379-0.064-0.679-0.064V8.411z"/>
		<path fill-rule="evenodd" clip-rule="evenodd" fill="#666666" stroke="#666666" stroke-width="0.6629" stroke-miterlimit="10" d="
			M246.147,8.174v3.619h-0.282c-0.097-0.696-0.27-1.249-0.507-1.659c-0.236-0.411-0.582-0.743-1.025-0.979
			c-0.439-0.253-0.898-0.364-1.371-0.364c-0.52,0-0.963,0.158-1.324,0.49c-0.346,0.316-0.521,0.695-0.521,1.106
			c0,0.315,0.111,0.616,0.332,0.868c0.314,0.396,1.072,0.901,2.271,1.549c0.978,0.521,1.639,0.933,2.003,1.217
			c0.362,0.269,0.631,0.601,0.819,0.979c0.189,0.379,0.301,0.79,0.301,1.201c0,0.789-0.316,1.469-0.932,2.054
			c-0.615,0.569-1.402,0.854-2.364,0.854c-0.3,0-0.585-0.016-0.853-0.063c-0.158-0.031-0.489-0.127-0.992-0.285
			c-0.506-0.157-0.822-0.252-0.947-0.252c-0.127,0-0.236,0.047-0.315,0.126c-0.063,0.079-0.128,0.237-0.158,0.475h-0.284v-3.587
			h0.285c0.127,0.759,0.314,1.312,0.536,1.691c0.237,0.362,0.567,0.679,1.041,0.932c0.456,0.237,0.978,0.363,1.529,0.363
			c0.632,0,1.151-0.174,1.515-0.506c0.377-0.347,0.567-0.742,0.567-1.2c0-0.269-0.079-0.521-0.222-0.79
			c-0.143-0.253-0.363-0.506-0.661-0.728c-0.19-0.157-0.743-0.489-1.642-0.979c-0.883-0.506-1.514-0.9-1.891-1.201
			c-0.38-0.3-0.664-0.632-0.869-0.995c-0.189-0.363-0.284-0.758-0.284-1.185c0-0.759,0.284-1.391,0.853-1.943
			c0.583-0.537,1.309-0.807,2.191-0.807c0.568,0,1.152,0.127,1.766,0.411c0.285,0.126,0.49,0.189,0.616,0.189
			s0.237-0.047,0.331-0.126c0.078-0.079,0.143-0.237,0.206-0.475H246.147z"/>
	</g>
	<g>
		<path fill-rule="evenodd" clip-rule="evenodd" d="M16.359,11.325v9.355h-0.66c-0.219-1.797-0.622-3.227-1.172-4.29
			c-0.549-1.062-1.355-1.92-2.38-2.532c-1.026-0.653-2.087-0.94-3.187-0.94c-1.208,0-2.233,0.409-3.076,1.267
			c-0.806,0.817-1.208,1.798-1.208,2.86c0,0.817,0.257,1.593,0.77,2.247c0.732,1.021,2.49,2.329,5.273,4.004
			c2.271,1.348,3.809,2.41,4.651,3.146c0.842,0.693,1.465,1.552,1.905,2.532s0.695,2.043,0.695,3.105
			c0,2.042-0.732,3.799-2.16,5.311c-1.428,1.471-3.259,2.206-5.494,2.206c-0.695,0-1.355-0.04-1.977-0.163
			c-0.366-0.082-1.136-0.327-2.308-0.736c-1.172-0.408-1.904-0.653-2.197-0.653c-0.293,0-0.549,0.124-0.732,0.327
			c-0.147,0.205-0.293,0.613-0.366,1.226H2.077v-9.273h0.659c0.292,1.96,0.732,3.39,1.245,4.37c0.55,0.94,1.318,1.758,2.417,2.411
			c1.063,0.612,2.271,0.939,3.553,0.939c1.464,0,2.673-0.448,3.516-1.307c0.879-0.898,1.318-1.92,1.318-3.105
			c0-0.694-0.183-1.349-0.512-2.042c-0.33-0.654-0.842-1.309-1.539-1.88c-0.439-0.409-1.721-1.266-3.808-2.532
			c-2.051-1.308-3.515-2.33-4.394-3.105c-0.879-0.776-1.539-1.635-2.015-2.573c-0.438-0.94-0.659-1.962-0.659-3.065
			c0-1.961,0.659-3.595,1.978-5.024c1.354-1.39,3.04-2.084,5.09-2.084c1.318,0,2.673,0.327,4.102,1.062
			c0.659,0.327,1.135,0.491,1.428,0.491c0.293,0,0.55-0.123,0.77-0.327c0.182-0.204,0.329-0.613,0.475-1.226H16.359z"/>
		<path fill-rule="evenodd" clip-rule="evenodd" d="M26.628,13.409v10.704h5.346c1.355,0,2.308-0.245,2.747-0.695
			c0.622-0.613,0.99-1.715,1.062-3.269h0.66v9.438h-0.66c-0.183-1.309-0.366-2.165-0.512-2.533c-0.22-0.45-0.586-0.816-1.063-1.104
			c-0.476-0.246-1.245-0.408-2.234-0.408h-5.346v8.947c0,1.186,0.037,1.92,0.147,2.166c0.109,0.244,0.256,0.448,0.512,0.612
			c0.22,0.163,0.697,0.246,1.355,0.246h4.103c1.354,0,2.38-0.124,3.003-0.328s1.208-0.612,1.757-1.267
			c0.769-0.817,1.502-2.043,2.271-3.719h0.732l-2.087,6.783H19.743v-0.735h0.842c0.586,0,1.099-0.163,1.611-0.45
			c0.403-0.244,0.66-0.53,0.807-0.979c0.109-0.409,0.183-1.308,0.183-2.616V16.636c0-1.716-0.146-2.777-0.439-3.186
			c-0.439-0.532-1.172-0.776-2.161-0.776h-0.842v-0.736H38.42l0.257,5.925h-0.696c-0.256-1.431-0.513-2.41-0.842-2.942
			c-0.292-0.531-0.732-0.939-1.318-1.226c-0.477-0.204-1.319-0.285-2.527-0.285H26.628z"/>
		<path fill-rule="evenodd" clip-rule="evenodd" d="M81.613,37.787v0.734H70.035v-0.734h0.938c1.142,0,1.957-0.327,2.445-0.98
			c0.326-0.408,0.489-1.473,0.489-3.064V16.256c0-1.39-0.082-2.287-0.286-2.695c-0.122-0.369-0.407-0.655-0.815-0.859
			c-0.57-0.326-1.182-0.49-1.834-0.49h-0.938v-0.734h11.578v0.734h-0.979c-1.101,0-1.917,0.327-2.405,0.98
			c-0.326,0.409-0.53,1.431-0.53,3.064v17.486c0,1.348,0.122,2.248,0.285,2.695c0.123,0.327,0.408,0.614,0.815,0.859
			c0.571,0.326,1.183,0.49,1.834,0.49H81.613z"/>
		<path fill-rule="evenodd" clip-rule="evenodd" d="M90.989,24.632c0.245,0,0.448,0,0.652,0c0.163,0,0.326,0,0.449,0
			c2.568,0,4.525-0.572,5.829-1.676c1.305-1.103,1.957-2.532,1.957-4.249c0-1.716-0.53-3.064-1.589-4.126
			c-1.061-1.063-2.446-1.594-4.199-1.594c-0.775,0-1.794,0.123-3.098,0.368V24.632z M110.149,38.521h-7.216l-9.132-12.665
			c-0.694,0.041-1.223,0.041-1.671,0.041c-0.163,0-0.326,0-0.53,0s-0.408,0-0.611-0.041v7.886c0,1.674,0.163,2.738,0.53,3.146
			c0.53,0.611,1.263,0.898,2.283,0.898h1.06v0.734H83.283v-0.734h1.02c1.141,0,1.957-0.369,2.446-1.104
			c0.285-0.449,0.408-1.431,0.408-2.941V16.256c0-1.716-0.164-2.778-0.53-3.187c-0.53-0.572-1.305-0.858-2.324-0.858h-1.02v-0.734
			h9.824c2.896,0,5.015,0.204,6.36,0.612c1.346,0.408,2.527,1.185,3.465,2.329c0.938,1.103,1.426,2.45,1.426,4.004
			c0,1.674-0.53,3.104-1.631,4.33c-1.1,1.226-2.772,2.084-5.014,2.614l5.545,7.763c1.304,1.758,2.405,2.943,3.302,3.555
			c0.896,0.571,2.12,0.939,3.588,1.104V38.521z"/>
	</g>
	<g>
		<path fill-rule="evenodd" clip-rule="evenodd" d="M119.126,8.648v4.14h2.302c0.583,0,0.994-0.095,1.182-0.268
			c0.268-0.237,0.426-0.664,0.458-1.265h0.284v3.649h-0.284c-0.079-0.505-0.158-0.837-0.222-0.979
			c-0.094-0.175-0.251-0.316-0.457-0.428c-0.205-0.094-0.536-0.158-0.962-0.158h-2.302v3.461c0,0.458,0.015,0.742,0.063,0.837
			c0.047,0.096,0.11,0.175,0.221,0.237c0.094,0.063,0.299,0.095,0.583,0.095h1.766c0.584,0,1.026-0.047,1.293-0.126
			c0.268-0.079,0.521-0.237,0.757-0.49c0.333-0.315,0.646-0.79,0.979-1.438h0.315l-0.9,2.623h-8.043v-0.284h0.363
			c0.252,0,0.473-0.063,0.694-0.174c0.173-0.096,0.284-0.206,0.347-0.38c0.047-0.158,0.078-0.506,0.078-1.011V9.896
			c0-0.663-0.063-1.074-0.188-1.231c-0.19-0.206-0.505-0.301-0.931-0.301h-0.363V8.08h8.043l0.11,2.291h-0.299
			c-0.11-0.554-0.221-0.933-0.363-1.138c-0.126-0.205-0.314-0.363-0.567-0.474c-0.206-0.079-0.568-0.111-1.088-0.111H119.126z"/>
		<path fill-rule="evenodd" clip-rule="evenodd" d="M131.901,12.741l2.239,3.35c0.631,0.932,1.089,1.517,1.388,1.754
			c0.3,0.253,0.679,0.379,1.152,0.411v0.284h-4.495v-0.284c0.298,0,0.52-0.032,0.661-0.096c0.11-0.047,0.205-0.109,0.269-0.205
			c0.079-0.095,0.111-0.205,0.111-0.3c0-0.111-0.032-0.237-0.079-0.348c-0.032-0.095-0.175-0.316-0.412-0.68l-1.781-2.687
			l-2.176,2.813c-0.236,0.301-0.379,0.49-0.426,0.585c-0.048,0.11-0.063,0.205-0.063,0.316c0,0.174,0.063,0.3,0.205,0.41
			c0.141,0.111,0.41,0.174,0.787,0.19v0.284h-3.705v-0.284c0.269-0.032,0.488-0.079,0.679-0.158
			c0.331-0.143,0.631-0.316,0.913-0.554c0.285-0.221,0.616-0.568,0.979-1.043l2.477-3.112l-2.067-3.018
			c-0.55-0.806-1.023-1.343-1.417-1.596c-0.395-0.269-0.838-0.396-1.342-0.411V8.08h4.826v0.284
			c-0.41,0.016-0.693,0.079-0.852,0.205c-0.143,0.111-0.221,0.237-0.221,0.38c0,0.206,0.125,0.474,0.361,0.837l1.608,2.402
			l1.862-2.354c0.205-0.269,0.347-0.459,0.395-0.569c0.047-0.109,0.063-0.205,0.063-0.315s-0.031-0.206-0.095-0.284
			c-0.063-0.111-0.173-0.189-0.282-0.222c-0.127-0.047-0.364-0.079-0.729-0.079l0.003-0.284h3.69v0.284
			c-0.285,0.016-0.521,0.063-0.711,0.143c-0.284,0.11-0.536,0.269-0.758,0.474c-0.236,0.205-0.567,0.568-0.977,1.106L131.901,12.741
			z"/>
		<path fill-rule="evenodd" clip-rule="evenodd" d="M141.727,18.256v0.284h-4.479v-0.284h0.362c0.441,0,0.758-0.127,0.945-0.38
			c0.128-0.158,0.189-0.568,0.189-1.185V9.929c0-0.537-0.031-0.885-0.109-1.043c-0.047-0.143-0.158-0.252-0.316-0.332
			c-0.221-0.126-0.457-0.189-0.709-0.189h-0.362V8.08h4.479v0.284h-0.379c-0.426,0-0.741,0.126-0.932,0.379
			c-0.125,0.158-0.204,0.553-0.204,1.186v6.763c0,0.521,0.046,0.869,0.11,1.043c0.047,0.126,0.157,0.236,0.314,0.331
			c0.223,0.127,0.459,0.19,0.711,0.19H141.727z"/>
		<path fill-rule="evenodd" clip-rule="evenodd" d="M148.555,18.54l-4.039-8.801v6.983c0,0.647,0.08,1.043,0.222,1.201
			c0.19,0.221,0.489,0.332,0.899,0.332H146v0.284h-3.627v-0.284h0.361c0.443,0,0.758-0.143,0.947-0.411
			c0.109-0.158,0.157-0.537,0.157-1.122V9.896c0-0.474-0.048-0.806-0.142-1.011c-0.08-0.143-0.205-0.269-0.395-0.379
			c-0.205-0.096-0.504-0.143-0.93-0.143V8.08h2.949l3.785,8.185l3.736-8.185h2.949v0.284h-0.361c-0.442,0-0.758,0.126-0.947,0.396
			c-0.111,0.173-0.172,0.536-0.172,1.137v6.826c0,0.647,0.078,1.043,0.219,1.201c0.19,0.221,0.488,0.332,0.9,0.332h0.361v0.284
			h-4.431v-0.284h0.361c0.458,0,0.774-0.143,0.946-0.411c0.112-0.158,0.174-0.537,0.174-1.122V9.739l-4.037,8.801H148.555z"/>
		<path fill-rule="evenodd" clip-rule="evenodd" d="M167.307,7.843v3.618h-0.284c-0.095-0.695-0.268-1.248-0.504-1.658
			c-0.237-0.411-0.583-0.743-1.026-0.98c-0.439-0.253-0.898-0.363-1.371-0.363c-0.52,0-0.963,0.158-1.326,0.49
			c-0.346,0.315-0.52,0.695-0.52,1.105c0,0.316,0.109,0.616,0.331,0.869c0.315,0.396,1.071,0.9,2.271,1.549
			c0.979,0.521,1.642,0.933,2.003,1.217c0.364,0.268,0.631,0.601,0.821,0.979c0.189,0.379,0.299,0.79,0.299,1.2
			c0,0.79-0.315,1.47-0.93,2.055c-0.615,0.568-1.404,0.854-2.367,0.854c-0.297,0-0.582-0.017-0.85-0.064
			c-0.158-0.031-0.488-0.126-0.995-0.284c-0.504-0.158-0.819-0.252-0.946-0.252c-0.125,0-0.234,0.047-0.316,0.126
			c-0.061,0.079-0.124,0.237-0.155,0.475h-0.284v-3.588h0.284c0.126,0.759,0.313,1.312,0.535,1.691
			c0.237,0.363,0.567,0.68,1.041,0.933c0.458,0.237,0.978,0.363,1.529,0.363c0.632,0,1.153-0.174,1.515-0.506
			c0.379-0.348,0.567-0.742,0.567-1.201c0-0.269-0.079-0.521-0.222-0.79c-0.141-0.253-0.361-0.505-0.661-0.728
			c-0.188-0.157-0.741-0.489-1.64-0.979c-0.883-0.506-1.514-0.901-1.894-1.201c-0.379-0.3-0.661-0.632-0.868-0.995
			c-0.188-0.363-0.282-0.759-0.282-1.186c0-0.758,0.282-1.39,0.851-1.943c0.585-0.537,1.311-0.806,2.193-0.806
			c0.568,0,1.15,0.127,1.766,0.411c0.283,0.126,0.489,0.189,0.615,0.189s0.236-0.047,0.332-0.126
			c0.079-0.079,0.141-0.237,0.204-0.475H167.307z"/>
		<path fill-rule="evenodd" clip-rule="evenodd" d="M174.467,8.396c-0.946,0-1.688,0.347-2.255,1.042
			c-0.71,0.869-1.057,2.133-1.057,3.792c0.001,1.722,0.362,3.034,1.087,3.95c0.568,0.695,1.311,1.043,2.225,1.043
			c0.978,0,1.797-0.379,2.428-1.138c0.646-0.774,0.963-1.975,0.963-3.634c0-1.785-0.347-3.129-1.057-3.998
			C176.233,8.743,175.459,8.396,174.467,8.396z M174.61,7.843c1.356,0,2.521,0.506,3.518,1.549c0.992,1.026,1.496,2.307,1.496,3.855
			c0,1.595-0.504,2.906-1.514,3.949c-0.993,1.06-2.207,1.581-3.627,1.581c-1.436,0-2.65-0.506-3.627-1.533
			c-0.979-1.027-1.467-2.354-1.467-3.982c0-1.658,0.568-3.002,1.703-4.06C172.07,8.285,173.238,7.843,174.61,7.843z"/>
		<path fill-rule="evenodd" clip-rule="evenodd" d="M189.262,15.648l0.252,0.047l-0.884,2.845h-8.091v-0.284h0.395
			c0.441,0,0.756-0.143,0.947-0.427c0.109-0.174,0.155-0.554,0.155-1.154V9.929c0-0.647-0.062-1.059-0.204-1.232
			c-0.205-0.221-0.504-0.332-0.898-0.332h-0.395V8.08h4.732v0.284c-0.553,0-0.947,0.047-1.169,0.158
			c-0.222,0.095-0.377,0.237-0.456,0.41c-0.078,0.158-0.127,0.554-0.127,1.169v6.573c0,0.427,0.049,0.728,0.127,0.886
			c0.062,0.11,0.158,0.189,0.283,0.236c0.127,0.048,0.521,0.079,1.199,0.079h0.756c0.805,0,1.373-0.063,1.688-0.174
			c0.332-0.126,0.631-0.332,0.9-0.632C188.725,16.771,188.993,16.296,189.262,15.648z"/>
		<path fill-rule="evenodd" clip-rule="evenodd" d="M197.383,8.364V8.08h3.706v0.284h-0.396c-0.409,0-0.725,0.174-0.946,0.521
			c-0.109,0.158-0.173,0.521-0.173,1.106v4.233c0,1.06-0.094,1.865-0.301,2.449c-0.219,0.585-0.629,1.075-1.229,1.485
			c-0.616,0.427-1.436,0.632-2.492,0.632c-1.135,0-2.002-0.205-2.586-0.6c-0.6-0.396-1.01-0.933-1.262-1.597
			c-0.158-0.457-0.236-1.311-0.236-2.575V9.929c0-0.647-0.095-1.059-0.268-1.264c-0.174-0.206-0.474-0.301-0.868-0.301h-0.395V8.08
			h4.525v0.284h-0.409c-0.426,0-0.741,0.126-0.914,0.411c-0.143,0.173-0.206,0.568-0.206,1.153v4.566
			c0,0.395,0.048,0.868,0.111,1.391c0.079,0.521,0.222,0.932,0.409,1.232c0.189,0.284,0.475,0.521,0.852,0.711
			c0.363,0.205,0.806,0.3,1.34,0.3c0.695,0,1.293-0.158,1.83-0.458c0.553-0.301,0.914-0.68,1.12-1.138
			c0.188-0.474,0.285-1.265,0.285-2.37V9.929c0-0.647-0.063-1.059-0.206-1.232c-0.206-0.221-0.504-0.332-0.898-0.332H197.383z"/>
		<path fill-rule="evenodd" clip-rule="evenodd" d="M210.378,8.08l0.11,2.449h-0.299c-0.048-0.428-0.127-0.743-0.221-0.933
			c-0.158-0.284-0.379-0.506-0.632-0.647c-0.267-0.143-0.616-0.222-1.056-0.222h-1.469v7.995c0,0.647,0.078,1.043,0.206,1.201
			c0.206,0.221,0.505,0.332,0.898,0.332h0.364v0.284h-4.416v-0.284h0.361c0.443,0,0.758-0.143,0.947-0.411
			c0.109-0.158,0.157-0.537,0.157-1.122V8.728h-1.247c-0.488,0-0.834,0.048-1.041,0.111c-0.267,0.094-0.504,0.284-0.691,0.568
			c-0.191,0.269-0.301,0.647-0.332,1.122h-0.3l0.127-2.449H210.378z"/>
		<path fill-rule="evenodd" clip-rule="evenodd" d="M215.756,18.256v0.284h-4.479v-0.284h0.363c0.44,0,0.756-0.127,0.946-0.38
			c0.125-0.158,0.188-0.568,0.188-1.185V9.929c0-0.537-0.033-0.885-0.11-1.043c-0.048-0.143-0.157-0.252-0.315-0.332
			c-0.221-0.126-0.457-0.189-0.709-0.189h-0.363V8.08h4.479v0.284h-0.379c-0.426,0-0.741,0.126-0.93,0.379
			c-0.127,0.158-0.205,0.553-0.205,1.186v6.763c0,0.521,0.048,0.869,0.111,1.043c0.046,0.126,0.157,0.236,0.313,0.331
			c0.222,0.127,0.458,0.19,0.71,0.19H215.756z"/>
		<path fill-rule="evenodd" clip-rule="evenodd" d="M221.766,8.396c-0.947,0-1.688,0.347-2.256,1.042
			c-0.71,0.869-1.057,2.133-1.057,3.792c0,1.722,0.362,3.034,1.088,3.95c0.567,0.695,1.31,1.043,2.224,1.043
			c0.978,0,1.798-0.379,2.429-1.138c0.646-0.774,0.961-1.975,0.961-3.634c0-1.785-0.346-3.129-1.056-3.998
			C223.532,8.743,222.758,8.396,221.766,8.396L221.766,8.396z M221.908,7.843c1.356,0,2.522,0.506,3.517,1.549
			c0.994,1.026,1.498,2.307,1.498,3.855c0,1.595-0.504,2.906-1.515,3.949c-0.993,1.06-2.207,1.581-3.627,1.581
			c-1.436,0-2.649-0.506-3.626-1.533c-0.979-1.027-1.467-2.354-1.467-3.982c0-1.658,0.566-3.002,1.703-4.06
			C219.368,8.285,220.536,7.843,221.908,7.843z"/>
		<path fill-rule="evenodd" clip-rule="evenodd" d="M227.317,8.08h2.84l6.37,7.837V9.896c0-0.647-0.063-1.058-0.204-1.216
			c-0.19-0.205-0.49-0.316-0.9-0.316h-0.361V8.08h3.627v0.284h-0.361c-0.443,0-0.759,0.126-0.947,0.396
			c-0.111,0.173-0.174,0.536-0.174,1.137v8.816h-0.269l-6.892-8.437v6.446c0,0.647,0.078,1.043,0.205,1.201
			c0.204,0.221,0.504,0.332,0.914,0.332h0.363v0.284h-3.627v-0.284h0.348c0.457,0,0.771-0.143,0.961-0.411
			c0.109-0.158,0.158-0.537,0.158-1.122V9.454c-0.301-0.363-0.537-0.601-0.68-0.711c-0.158-0.11-0.395-0.221-0.692-0.315
			c-0.157-0.048-0.379-0.063-0.679-0.063V8.08z"/>
		<path fill-rule="evenodd" clip-rule="evenodd" d="M246.147,7.843v3.618h-0.282c-0.097-0.695-0.27-1.248-0.507-1.658
			c-0.236-0.411-0.582-0.743-1.025-0.98c-0.439-0.253-0.898-0.363-1.371-0.363c-0.52,0-0.963,0.158-1.324,0.49
			c-0.346,0.315-0.521,0.695-0.521,1.105c0,0.316,0.111,0.616,0.332,0.869c0.314,0.396,1.072,0.9,2.271,1.549
			c0.978,0.521,1.639,0.933,2.003,1.217c0.362,0.268,0.631,0.601,0.819,0.979c0.189,0.379,0.301,0.79,0.301,1.2
			c0,0.79-0.316,1.47-0.932,2.055c-0.615,0.568-1.402,0.854-2.364,0.854c-0.3,0-0.585-0.017-0.853-0.064
			c-0.158-0.031-0.489-0.126-0.992-0.284c-0.506-0.158-0.822-0.252-0.947-0.252c-0.127,0-0.236,0.047-0.315,0.126
			c-0.063,0.079-0.128,0.237-0.158,0.475h-0.284v-3.588h0.285c0.127,0.759,0.314,1.312,0.536,1.691
			c0.237,0.363,0.567,0.68,1.041,0.933c0.456,0.237,0.978,0.363,1.529,0.363c0.632,0,1.151-0.174,1.515-0.506
			c0.377-0.348,0.567-0.742,0.567-1.201c0-0.269-0.079-0.521-0.222-0.79c-0.143-0.253-0.363-0.505-0.661-0.728
			c-0.19-0.157-0.743-0.489-1.642-0.979c-0.883-0.506-1.514-0.901-1.891-1.201c-0.38-0.3-0.664-0.632-0.869-0.995
			c-0.189-0.363-0.284-0.759-0.284-1.186c0-0.758,0.284-1.39,0.853-1.943c0.583-0.537,1.309-0.806,2.191-0.806
			c0.568,0,1.152,0.127,1.766,0.411c0.285,0.126,0.49,0.189,0.616,0.189s0.237-0.047,0.331-0.126
			c0.078-0.079,0.143-0.237,0.206-0.475H246.147z"/>
	</g>
	<g>
		<path fill-rule="evenodd" clip-rule="evenodd" fill="#007DDB" d="M119.092,45.66h-2.796v-0.283c0.072,0,0.188-0.009,0.34-0.026
			c0.144-0.008,0.251-0.023,0.314-0.048c0.099-0.033,0.161-0.081,0.206-0.139c0.044-0.057,0.072-0.139,0.072-0.244v-4.084
			c0-0.098-0.018-0.171-0.053-0.236c-0.027-0.066-0.108-0.113-0.225-0.155c-0.09-0.031-0.197-0.065-0.332-0.089
			c-0.134-0.031-0.242-0.05-0.322-0.05v-0.284h2.796v0.284c-0.09,0-0.197,0.01-0.323,0.026c-0.126,0.016-0.242,0.039-0.332,0.063
			c-0.107,0.033-0.188,0.091-0.224,0.154c-0.036,0.073-0.054,0.155-0.054,0.245v4.076c0,0.09,0.018,0.162,0.063,0.236
			c0.036,0.064,0.117,0.122,0.215,0.162c0.063,0.017,0.161,0.041,0.296,0.065c0.143,0.023,0.26,0.042,0.358,0.042V45.66z"/>
		<path fill-rule="evenodd" clip-rule="evenodd" fill="#007DDB" d="M126.246,40.306c-0.081,0-0.207,0.026-0.377,0.065
			c-0.17,0.033-0.296,0.073-0.368,0.123c-0.098,0.065-0.17,0.188-0.206,0.382c-0.036,0.188-0.054,0.424-0.054,0.708v4.134h-0.386
			l-3.765-4.614v2.906c0,0.325,0.027,0.577,0.072,0.756c0.044,0.17,0.117,0.293,0.206,0.367c0.063,0.063,0.207,0.113,0.413,0.162
			c0.215,0.056,0.349,0.082,0.421,0.082v0.283h-2.545v-0.283c0.071,0,0.206-0.034,0.395-0.074c0.188-0.049,0.304-0.089,0.349-0.131
			c0.1-0.073,0.171-0.186,0.206-0.333c0.046-0.155,0.063-0.415,0.063-0.782v-2.782c0-0.122-0.027-0.244-0.072-0.366
			s-0.106-0.212-0.188-0.276c-0.108-0.09-0.251-0.162-0.431-0.228c-0.18-0.057-0.322-0.099-0.43-0.099v-0.284h1.774l3.487,4.296
			v-2.677c0-0.333-0.018-0.585-0.07-0.756c-0.046-0.18-0.108-0.293-0.197-0.352c-0.081-0.056-0.217-0.104-0.405-0.154
			c-0.178-0.039-0.322-0.073-0.42-0.073v-0.284h2.529V40.306z"/>
		<path fill-rule="evenodd" clip-rule="evenodd" fill="#007DDB" d="M131.569,41.429h-0.33c-0.064-0.202-0.19-0.431-0.387-0.667
			c-0.188-0.236-0.377-0.375-0.556-0.391c-0.089-0.016-0.196-0.023-0.323-0.023c-0.125-0.008-0.259-0.008-0.42-0.008h-1.04v2.262
			h0.708c0.214,0,0.385-0.023,0.502-0.066c0.125-0.039,0.225-0.097,0.314-0.186c0.053-0.059,0.105-0.147,0.152-0.27
			c0.052-0.121,0.08-0.261,0.098-0.397h0.331v2.212h-0.331c-0.009-0.113-0.035-0.244-0.09-0.398
			c-0.055-0.146-0.107-0.252-0.16-0.317c-0.09-0.097-0.199-0.171-0.332-0.202c-0.135-0.034-0.297-0.058-0.484-0.058l-0.708-0.001
			v1.944c0,0.09,0.017,0.171,0.052,0.236c0.037,0.073,0.109,0.123,0.207,0.171c0.037,0.017,0.135,0.041,0.279,0.065
			c0.15,0.023,0.26,0.042,0.331,0.042l0.001,0.283h-2.69v-0.283c0.089,0,0.207-0.009,0.351-0.026
			c0.143-0.008,0.24-0.023,0.285-0.048c0.09-0.033,0.153-0.081,0.188-0.146c0.046-0.073,0.063-0.154,0.063-0.244v-4.068
			c0-0.09-0.018-0.171-0.053-0.236c-0.029-0.065-0.1-0.121-0.199-0.163c-0.08-0.031-0.188-0.065-0.322-0.089
			c-0.126-0.031-0.232-0.05-0.313-0.05v-0.284h4.876V41.429z"/>
		<path fill-rule="evenodd" clip-rule="evenodd" fill="#007DDB" d="M136.481,44.684c0.161-0.235,0.279-0.512,0.359-0.813
			c0.072-0.31,0.107-0.65,0.107-1.025c0-0.383-0.046-0.74-0.127-1.066c-0.08-0.316-0.205-0.595-0.365-0.821
			c-0.162-0.228-0.36-0.398-0.603-0.529c-0.241-0.123-0.519-0.187-0.833-0.187c-0.348,0-0.645,0.073-0.887,0.219
			c-0.251,0.146-0.449,0.343-0.602,0.587c-0.15,0.227-0.26,0.504-0.332,0.813c-0.072,0.317-0.106,0.643-0.106,0.984
			c0,0.383,0.046,0.724,0.116,1.033c0.071,0.309,0.197,0.577,0.359,0.821c0.161,0.228,0.357,0.415,0.59,0.546
			c0.242,0.131,0.53,0.194,0.861,0.194c0.314,0,0.592-0.063,0.844-0.194C136.115,45.107,136.32,44.928,136.481,44.684
			L136.481,44.684z M137.135,40.688c0.27,0.262,0.484,0.569,0.637,0.944c0.161,0.366,0.232,0.773,0.232,1.213
			c0,0.447-0.08,0.854-0.232,1.22c-0.162,0.366-0.375,0.677-0.654,0.937c-0.277,0.252-0.591,0.447-0.95,0.585
			c-0.358,0.139-0.743,0.212-1.147,0.212c-0.43,0-0.832-0.072-1.191-0.229c-0.367-0.146-0.681-0.349-0.951-0.609
			c-0.26-0.261-0.467-0.57-0.617-0.936c-0.145-0.367-0.225-0.758-0.225-1.18c0-0.457,0.08-0.863,0.242-1.221
			c0.152-0.367,0.366-0.675,0.645-0.937c0.277-0.26,0.592-0.455,0.96-0.593c0.357-0.139,0.743-0.213,1.138-0.213
			c0.412,0,0.799,0.074,1.166,0.213C136.553,40.242,136.867,40.437,137.135,40.688z"/>
		<path fill-rule="evenodd" clip-rule="evenodd" fill="#007DDB" d="M142.533,41.455c0-0.343-0.108-0.611-0.323-0.814
			c-0.215-0.196-0.521-0.293-0.915-0.293h-0.743v2.416h0.573c0.403,0,0.735-0.113,1.005-0.35
			C142.397,42.179,142.533,41.861,142.533,41.455z M144.834,45.66h-1.674c-0.368-0.527-0.699-0.984-1.006-1.367
			c-0.295-0.383-0.618-0.781-0.967-1.188h-0.637v1.791c0,0.09,0.018,0.171,0.046,0.244c0.034,0.064,0.098,0.121,0.204,0.154
			c0.055,0.023,0.145,0.04,0.279,0.056c0.125,0.018,0.242,0.026,0.332,0.026v0.283h-2.627v-0.283c0.072,0,0.17-0.017,0.305-0.026
			c0.133-0.016,0.225-0.032,0.277-0.056c0.089-0.033,0.152-0.081,0.189-0.146c0.043-0.065,0.061-0.154,0.061-0.252v-4.077
			c0-0.097-0.018-0.179-0.043-0.252c-0.029-0.065-0.099-0.123-0.207-0.163c-0.072-0.025-0.17-0.041-0.286-0.064
			c-0.118-0.016-0.216-0.034-0.296-0.034v-0.284h2.869c0.259,0,0.51,0.024,0.734,0.074c0.232,0.047,0.438,0.129,0.627,0.236
			c0.18,0.104,0.323,0.243,0.43,0.414c0.107,0.171,0.17,0.375,0.17,0.619c0,0.219-0.043,0.406-0.115,0.577
			c-0.072,0.163-0.179,0.31-0.322,0.431c-0.127,0.115-0.288,0.213-0.476,0.293c-0.179,0.09-0.386,0.155-0.602,0.221
			c0.306,0.365,0.556,0.675,0.763,0.927c0.197,0.252,0.447,0.554,0.744,0.921c0.126,0.153,0.242,0.275,0.349,0.349
			c0.101,0.073,0.207,0.139,0.306,0.187c0.08,0.033,0.17,0.058,0.287,0.073c0.115,0.025,0.205,0.034,0.285,0.034V45.66z"/>
		<path fill-rule="evenodd" clip-rule="evenodd" fill="#007DDB" d="M152.554,45.66h-2.745v-0.283c0.102,0,0.225-0.009,0.378-0.026
			c0.161-0.016,0.271-0.04,0.323-0.064c0.089-0.057,0.16-0.114,0.207-0.179c0.034-0.065,0.063-0.146,0.063-0.245v-4.101h-0.072
			l-2.116,4.809h-0.214l-2.019-4.905h-0.062v3.368c0,0.326,0.026,0.569,0.072,0.74c0.043,0.17,0.115,0.294,0.205,0.367
			c0.063,0.055,0.198,0.105,0.395,0.154c0.207,0.056,0.332,0.082,0.395,0.082v0.283h-2.5v-0.283
			c0.124-0.009,0.268-0.026,0.412-0.059c0.143-0.032,0.25-0.072,0.331-0.131c0.098-0.072,0.17-0.186,0.207-0.34
			c0.044-0.155,0.062-0.416,0.062-0.774v-2.88c0-0.172-0.027-0.309-0.07-0.416c-0.037-0.104-0.101-0.186-0.189-0.252
			c-0.09-0.072-0.197-0.13-0.332-0.162c-0.126-0.031-0.26-0.058-0.385-0.058v-0.284h2.116l1.774,4.232l1.523-3.54
			c0.053-0.13,0.099-0.27,0.145-0.408c0.035-0.137,0.061-0.234,0.061-0.284h2.027v0.284c-0.08,0-0.189,0.019-0.314,0.034
			c-0.125,0.023-0.215,0.039-0.278,0.056c-0.099,0.033-0.17,0.091-0.196,0.164c-0.037,0.072-0.055,0.154-0.055,0.244v4.059
			c0,0.099,0.018,0.171,0.055,0.236c0.026,0.065,0.098,0.123,0.196,0.171c0.054,0.025,0.144,0.049,0.278,0.073
			c0.134,0.016,0.242,0.034,0.323,0.034V45.66z"/>
		<path fill-rule="evenodd" clip-rule="evenodd" fill="#007DDB" d="M156.676,43.358l-0.941-2.19l-0.922,2.19H156.676z
			 M159.177,45.66h-2.59v-0.283c0.233-0.009,0.421-0.042,0.573-0.082c0.145-0.033,0.225-0.081,0.225-0.146
			c0-0.024-0.009-0.05-0.009-0.081c-0.009-0.042-0.018-0.065-0.026-0.099l-0.521-1.261h-2.169c-0.09,0.187-0.152,0.349-0.207,0.488
			c-0.045,0.139-0.099,0.26-0.133,0.383c-0.037,0.113-0.064,0.202-0.082,0.276c-0.008,0.072-0.018,0.131-0.018,0.17
			c0,0.107,0.09,0.188,0.27,0.252c0.188,0.058,0.395,0.091,0.627,0.1v0.283h-2.34v-0.283c0.07,0,0.171-0.017,0.287-0.042
			c0.106-0.024,0.207-0.065,0.278-0.105c0.116-0.073,0.205-0.146,0.269-0.22c0.063-0.082,0.124-0.187,0.188-0.326
			c0.314-0.708,0.664-1.505,1.04-2.384c0.377-0.887,0.708-1.668,1.005-2.358l0.349-0.001l2.071,4.865
			c0.043,0.106,0.09,0.188,0.144,0.253c0.063,0.065,0.134,0.122,0.233,0.188c0.072,0.031,0.161,0.064,0.268,0.089
			c0.107,0.023,0.197,0.042,0.269,0.042V45.66z"/>
		<path fill-rule="evenodd" clip-rule="evenodd" fill="#007DDB" d="M164.449,41.552h-0.306c-0.025-0.097-0.071-0.212-0.144-0.341
			c-0.062-0.131-0.142-0.253-0.223-0.367c-0.089-0.121-0.189-0.229-0.288-0.326c-0.106-0.089-0.205-0.139-0.305-0.154
			c-0.09-0.008-0.196-0.016-0.34-0.023c-0.135-0.008-0.26-0.008-0.377-0.008h-0.26v4.507c0,0.089,0.026,0.171,0.063,0.244
			c0.044,0.073,0.116,0.131,0.217,0.171c0.053,0.016,0.161,0.041,0.331,0.073c0.17,0.031,0.294,0.05,0.395,0.05v0.283h-2.933v-0.283
			c0.082,0,0.207-0.017,0.369-0.034c0.17-0.016,0.285-0.032,0.349-0.057c0.099-0.032,0.17-0.081,0.216-0.146
			c0.044-0.066,0.061-0.154,0.061-0.261v-4.548h-0.25c-0.09,0-0.205,0-0.34,0.008c-0.125,0-0.26,0.008-0.377,0.023
			c-0.099,0.008-0.197,0.065-0.304,0.154c-0.101,0.098-0.198,0.205-0.288,0.326c-0.089,0.114-0.16,0.244-0.232,0.375
			c-0.063,0.138-0.107,0.244-0.135,0.333h-0.313v-1.53h5.413V41.552z"/>
		<path fill-rule="evenodd" clip-rule="evenodd" fill="#007DDB" d="M167.667,45.66h-2.797v-0.283c0.072,0,0.189-0.009,0.342-0.026
			c0.143-0.008,0.25-0.023,0.314-0.048c0.098-0.033,0.16-0.081,0.205-0.139c0.045-0.057,0.071-0.139,0.071-0.244v-4.084
			c0-0.098-0.018-0.171-0.054-0.236c-0.027-0.066-0.107-0.113-0.223-0.155c-0.092-0.031-0.199-0.065-0.334-0.089
			c-0.133-0.031-0.242-0.05-0.322-0.05v-0.284h2.797v0.284c-0.09,0-0.196,0.01-0.322,0.026c-0.125,0.016-0.242,0.039-0.332,0.063
			c-0.107,0.033-0.188,0.091-0.225,0.154c-0.035,0.073-0.053,0.155-0.053,0.245v4.076c0,0.09,0.018,0.162,0.062,0.236
			c0.037,0.064,0.118,0.122,0.216,0.162c0.063,0.017,0.162,0.041,0.297,0.065c0.144,0.023,0.26,0.042,0.357,0.042V45.66z"/>
		<path fill-rule="evenodd" clip-rule="evenodd" fill="#007DDB" d="M172.811,44.684c0.162-0.235,0.279-0.512,0.359-0.813
			c0.072-0.31,0.107-0.65,0.107-1.025c0-0.383-0.044-0.74-0.125-1.066c-0.08-0.316-0.207-0.595-0.367-0.821
			c-0.162-0.228-0.358-0.398-0.6-0.529c-0.242-0.123-0.521-0.187-0.836-0.187c-0.349,0-0.645,0.073-0.887,0.219
			c-0.251,0.146-0.447,0.343-0.6,0.587c-0.152,0.227-0.262,0.504-0.334,0.813c-0.069,0.317-0.106,0.643-0.106,0.984
			c0,0.383,0.046,0.724,0.118,1.033c0.069,0.309,0.195,0.577,0.357,0.821c0.161,0.228,0.359,0.415,0.591,0.546
			c0.241,0.131,0.529,0.194,0.86,0.194c0.314,0,0.594-0.063,0.844-0.194C172.445,45.107,172.65,44.928,172.811,44.684
			L172.811,44.684z M173.467,40.688c0.268,0.262,0.484,0.569,0.635,0.944c0.162,0.366,0.232,0.773,0.232,1.213
			c0,0.447-0.08,0.854-0.232,1.22c-0.162,0.366-0.375,0.677-0.654,0.937c-0.277,0.252-0.591,0.447-0.95,0.585
			c-0.358,0.139-0.744,0.212-1.147,0.212c-0.43,0-0.832-0.072-1.191-0.229c-0.367-0.146-0.682-0.349-0.951-0.609
			c-0.26-0.261-0.465-0.57-0.617-0.936c-0.144-0.367-0.225-0.758-0.225-1.18c0-0.457,0.081-0.863,0.242-1.221
			c0.152-0.367,0.369-0.675,0.646-0.937c0.276-0.26,0.591-0.455,0.959-0.593c0.358-0.139,0.743-0.213,1.138-0.213
			c0.412,0,0.799,0.074,1.166,0.213C172.883,40.242,173.198,40.437,173.467,40.688z"/>
		<path fill-rule="evenodd" clip-rule="evenodd" fill="#007DDB" d="M181.489,40.306c-0.08,0-0.206,0.026-0.376,0.065
			c-0.171,0.033-0.297,0.073-0.368,0.123c-0.098,0.065-0.17,0.188-0.205,0.382c-0.037,0.188-0.055,0.424-0.055,0.708v4.134h-0.386
			l-3.765-4.614v2.906c0,0.325,0.027,0.577,0.072,0.756c0.045,0.17,0.117,0.293,0.207,0.367c0.063,0.063,0.204,0.113,0.411,0.162
			c0.216,0.056,0.349,0.082,0.421,0.082v0.283H174.9v-0.283c0.071,0,0.207-0.034,0.395-0.074c0.189-0.049,0.306-0.089,0.351-0.131
			c0.098-0.073,0.17-0.186,0.205-0.333c0.046-0.155,0.063-0.415,0.063-0.782v-2.782c0-0.122-0.026-0.244-0.072-0.366
			c-0.044-0.122-0.106-0.212-0.188-0.276c-0.108-0.09-0.251-0.162-0.432-0.228c-0.179-0.057-0.322-0.099-0.429-0.099v-0.284h1.773
			l3.488,4.296v-2.677c0-0.333-0.02-0.585-0.072-0.756c-0.045-0.18-0.107-0.293-0.197-0.352c-0.081-0.056-0.215-0.104-0.404-0.154
			c-0.178-0.039-0.322-0.073-0.42-0.073v-0.284h2.527V40.306z"/>
		<path fill-rule="evenodd" clip-rule="evenodd" fill="#007DDB" d="M188.974,41.429h-0.331c-0.064-0.202-0.188-0.431-0.387-0.667
			c-0.188-0.236-0.377-0.375-0.556-0.391c-0.089-0.016-0.196-0.023-0.323-0.023c-0.125-0.008-0.26-0.008-0.42-0.008h-1.041v2.262
			h0.709c0.215,0,0.387-0.023,0.502-0.066c0.125-0.039,0.225-0.097,0.314-0.186c0.054-0.059,0.106-0.147,0.152-0.27
			c0.053-0.121,0.08-0.261,0.098-0.397h0.332v2.212h-0.332c-0.008-0.113-0.035-0.244-0.09-0.398
			c-0.054-0.146-0.106-0.252-0.16-0.317c-0.09-0.097-0.199-0.171-0.332-0.202c-0.135-0.034-0.297-0.058-0.484-0.058l-0.709-0.001
			v1.944c0,0.09,0.019,0.171,0.053,0.236c0.037,0.073,0.109,0.123,0.207,0.171c0.037,0.017,0.136,0.041,0.279,0.065
			c0.15,0.023,0.26,0.042,0.332,0.042v0.283h-2.69v-0.283c0.089,0,0.207-0.009,0.351-0.026c0.143-0.008,0.242-0.023,0.286-0.048
			c0.089-0.033,0.152-0.081,0.187-0.146c0.047-0.073,0.064-0.154,0.064-0.244v-4.068c0-0.09-0.018-0.171-0.053-0.236
			c-0.028-0.065-0.101-0.121-0.198-0.163c-0.081-0.031-0.188-0.065-0.323-0.089c-0.125-0.031-0.232-0.05-0.313-0.05v-0.284h4.877
			V41.429z"/>
		<path fill-rule="evenodd" clip-rule="evenodd" fill="#007DDB" d="M193.885,44.684c0.162-0.235,0.279-0.512,0.359-0.813
			c0.072-0.31,0.107-0.65,0.107-1.025c0-0.383-0.045-0.74-0.125-1.066c-0.082-0.316-0.207-0.595-0.368-0.821
			c-0.161-0.228-0.359-0.398-0.601-0.529c-0.242-0.123-0.52-0.187-0.834-0.187c-0.348,0-0.645,0.073-0.887,0.219
			c-0.25,0.146-0.449,0.343-0.602,0.587c-0.15,0.227-0.26,0.504-0.332,0.813c-0.071,0.317-0.105,0.643-0.105,0.984
			c0,0.383,0.045,0.724,0.115,1.033c0.071,0.309,0.197,0.577,0.359,0.821c0.16,0.228,0.357,0.415,0.591,0.546
			c0.241,0.131,0.529,0.194,0.86,0.194c0.314,0,0.592-0.063,0.844-0.194C193.519,45.107,193.725,44.928,193.885,44.684
			L193.885,44.684z M194.54,40.688c0.27,0.262,0.483,0.569,0.637,0.944c0.161,0.366,0.232,0.773,0.232,1.213
			c0,0.447-0.08,0.854-0.232,1.22c-0.161,0.366-0.375,0.677-0.654,0.937c-0.277,0.252-0.591,0.447-0.95,0.585
			c-0.358,0.139-0.743,0.212-1.147,0.212c-0.43,0-0.832-0.072-1.191-0.229c-0.367-0.146-0.681-0.349-0.951-0.609
			c-0.26-0.261-0.467-0.57-0.617-0.936c-0.144-0.367-0.225-0.758-0.225-1.18c0-0.457,0.081-0.863,0.242-1.221
			c0.152-0.367,0.367-0.675,0.646-0.937c0.276-0.26,0.591-0.455,0.96-0.593c0.357-0.139,0.742-0.213,1.137-0.213
			c0.412,0,0.799,0.074,1.166,0.213C193.958,40.242,194.271,40.437,194.54,40.688z"/>
		<path fill-rule="evenodd" clip-rule="evenodd" fill="#007DDB" d="M199.938,41.455c0-0.343-0.109-0.611-0.323-0.814
			c-0.216-0.196-0.521-0.293-0.915-0.293h-0.744v2.416h0.574c0.402,0,0.734-0.113,1.004-0.35
			C199.801,42.179,199.938,41.861,199.938,41.455z M202.239,45.66h-1.674c-0.368-0.527-0.699-0.984-1.005-1.367
			c-0.296-0.383-0.618-0.781-0.968-1.188h-0.637v1.791c0,0.09,0.018,0.171,0.046,0.244c0.034,0.064,0.098,0.121,0.205,0.154
			c0.054,0.023,0.144,0.04,0.278,0.056c0.125,0.018,0.242,0.026,0.332,0.026v0.283h-2.627v-0.283c0.072,0,0.17-0.017,0.305-0.026
			c0.133-0.016,0.225-0.032,0.277-0.056c0.09-0.033,0.152-0.081,0.189-0.146c0.044-0.065,0.061-0.154,0.061-0.252v-4.077
			c0-0.097-0.017-0.179-0.043-0.252c-0.028-0.065-0.098-0.123-0.207-0.163c-0.072-0.025-0.17-0.041-0.286-0.064
			c-0.117-0.016-0.216-0.034-0.296-0.034v-0.284h2.869c0.26,0,0.51,0.024,0.734,0.074c0.233,0.047,0.438,0.129,0.627,0.236
			c0.18,0.104,0.323,0.243,0.43,0.414c0.107,0.171,0.171,0.375,0.171,0.619c0,0.219-0.044,0.406-0.116,0.577
			c-0.072,0.163-0.179,0.31-0.322,0.431c-0.127,0.115-0.287,0.213-0.476,0.293c-0.179,0.09-0.386,0.155-0.602,0.221
			c0.306,0.365,0.556,0.675,0.763,0.927c0.197,0.252,0.447,0.554,0.744,0.921c0.127,0.153,0.242,0.275,0.35,0.349
			c0.1,0.073,0.206,0.139,0.305,0.187c0.08,0.033,0.17,0.058,0.287,0.073c0.115,0.025,0.205,0.034,0.285,0.034V45.66z"/>
		<path fill-rule="evenodd" clip-rule="evenodd" fill="#007DDB" d="M208.596,43.984c0-0.334-0.127-0.609-0.369-0.822
			c-0.25-0.22-0.6-0.325-1.057-0.325c-0.188,0-0.35,0-0.475,0.009c-0.127,0-0.225,0.008-0.289,0.008v1.985
			c0,0.171,0.072,0.294,0.225,0.383c0.145,0.081,0.352,0.121,0.619,0.121c0.43,0,0.771-0.113,0.994-0.341
			C208.479,44.773,208.596,44.432,208.596,43.984z M207.986,42.187c0.118-0.115,0.188-0.244,0.233-0.375
			c0.035-0.138,0.063-0.301,0.063-0.479c0-0.311-0.098-0.555-0.287-0.732c-0.179-0.179-0.475-0.26-0.879-0.26
			c-0.098,0-0.213,0-0.349,0c-0.144,0.008-0.269,0.008-0.36,0.016v2.164h0.557c0.233,0,0.44-0.031,0.609-0.089
			C207.744,42.381,207.887,42.291,207.986,42.187z M209.043,43.031c0.18,0.115,0.332,0.262,0.449,0.441
			c0.124,0.178,0.179,0.398,0.179,0.65c0,0.268-0.063,0.496-0.188,0.683c-0.126,0.196-0.287,0.358-0.483,0.48
			c-0.198,0.122-0.423,0.212-0.665,0.276c-0.25,0.066-0.502,0.098-0.762,0.098h-2.948v-0.283c0.071,0,0.179-0.017,0.313-0.034
			c0.135-0.016,0.225-0.04,0.287-0.057c0.09-0.04,0.153-0.09,0.188-0.153c0.047-0.059,0.064-0.139,0.064-0.236v-4.053
			c0-0.09-0.018-0.171-0.055-0.244c-0.035-0.066-0.098-0.122-0.197-0.163c-0.089-0.041-0.189-0.073-0.296-0.089
			c-0.106-0.023-0.196-0.042-0.269-0.042v-0.284h2.867c0.216,0,0.432,0.017,0.637,0.058c0.198,0.04,0.395,0.114,0.575,0.211
			c0.179,0.097,0.313,0.22,0.43,0.383c0.106,0.155,0.161,0.349,0.161,0.577c0,0.196-0.037,0.375-0.117,0.529
			c-0.081,0.155-0.188,0.292-0.332,0.399c-0.133,0.104-0.285,0.194-0.455,0.269c-0.182,0.072-0.368,0.131-0.564,0.17v0.033
			c0.178,0.023,0.375,0.065,0.59,0.121C208.677,42.837,208.874,42.919,209.043,43.031L209.043,43.031z"/>
		<path fill-rule="evenodd" clip-rule="evenodd" fill="#007DDB" d="M216.79,40.306c-0.082,0-0.207,0.019-0.359,0.05
			c-0.162,0.023-0.287,0.073-0.385,0.131c-0.1,0.056-0.17,0.187-0.207,0.373c-0.044,0.196-0.063,0.425-0.063,0.7v2.45
			c0,0.316-0.071,0.585-0.214,0.813c-0.144,0.235-0.333,0.423-0.564,0.569c-0.225,0.146-0.467,0.244-0.728,0.309
			c-0.251,0.065-0.502,0.098-0.735,0.098c-0.366,0-0.697-0.049-0.994-0.139c-0.296-0.09-0.539-0.202-0.734-0.357
			c-0.198-0.154-0.342-0.324-0.44-0.521c-0.099-0.194-0.152-0.398-0.152-0.609v-3.328c0-0.098-0.018-0.171-0.053-0.236
			c-0.028-0.065-0.101-0.121-0.198-0.171c-0.072-0.041-0.17-0.065-0.285-0.089c-0.109-0.023-0.207-0.042-0.279-0.042v-0.284h2.592
			v0.284c-0.081,0-0.189,0.019-0.314,0.034c-0.117,0.023-0.215,0.039-0.27,0.056c-0.098,0.033-0.17,0.091-0.196,0.164
			c-0.037,0.072-0.054,0.154-0.054,0.244v3.115c0,0.146,0.017,0.31,0.054,0.472c0.035,0.162,0.106,0.317,0.214,0.465
			c0.117,0.146,0.27,0.26,0.467,0.358c0.197,0.089,0.467,0.137,0.807,0.137c0.322,0,0.592-0.048,0.807-0.137
			c0.215-0.099,0.386-0.22,0.512-0.366c0.124-0.147,0.205-0.295,0.26-0.448c0.045-0.162,0.072-0.317,0.072-0.473v-2.317
			c0-0.294-0.027-0.529-0.072-0.717c-0.046-0.188-0.116-0.309-0.207-0.367c-0.098-0.072-0.242-0.121-0.412-0.154
			c-0.179-0.039-0.314-0.065-0.412-0.065v-0.284h2.547V40.306z"/>
		<path fill-rule="evenodd" clip-rule="evenodd" fill="#007DDB" d="M221.145,43.073c0.135,0.132,0.232,0.276,0.296,0.438
			c0.063,0.154,0.089,0.334,0.089,0.545c0,0.496-0.205,0.912-0.609,1.238c-0.404,0.318-0.905,0.48-1.505,0.48
			c-0.278,0-0.556-0.041-0.835-0.115c-0.277-0.081-0.52-0.179-0.717-0.283l-0.188,0.291h-0.35l-0.063-1.936h0.357
			c0.072,0.236,0.152,0.455,0.25,0.643c0.101,0.195,0.225,0.375,0.387,0.545c0.152,0.154,0.331,0.276,0.538,0.375
			c0.196,0.09,0.438,0.137,0.7,0.137c0.205,0,0.385-0.023,0.527-0.071c0.152-0.05,0.279-0.114,0.368-0.204
			c0.099-0.089,0.161-0.188,0.206-0.309c0.045-0.114,0.07-0.253,0.07-0.407c0-0.229-0.07-0.431-0.213-0.627
			c-0.135-0.194-0.342-0.341-0.619-0.446c-0.197-0.066-0.412-0.146-0.654-0.229c-0.242-0.081-0.457-0.162-0.637-0.236
			c-0.35-0.146-0.619-0.333-0.814-0.562c-0.199-0.235-0.288-0.537-0.288-0.912c0-0.21,0.046-0.415,0.144-0.593
			c0.09-0.188,0.233-0.35,0.412-0.496c0.162-0.139,0.369-0.252,0.591-0.326c0.233-0.081,0.476-0.123,0.728-0.123
			c0.286,0,0.537,0.043,0.77,0.123c0.226,0.082,0.43,0.172,0.619,0.276l0.18-0.269h0.349l0.037,1.871h-0.359
			c-0.062-0.21-0.134-0.422-0.214-0.618c-0.081-0.194-0.189-0.374-0.314-0.528c-0.126-0.154-0.278-0.276-0.457-0.367
			c-0.18-0.089-0.404-0.137-0.663-0.137c-0.278,0-0.521,0.082-0.708,0.244c-0.199,0.162-0.297,0.357-0.297,0.586
			c0,0.243,0.063,0.446,0.189,0.61c0.125,0.163,0.303,0.292,0.545,0.389c0.216,0.1,0.423,0.181,0.628,0.245
			c0.207,0.064,0.403,0.139,0.602,0.219c0.17,0.066,0.34,0.146,0.501,0.229C220.885,42.854,221.029,42.959,221.145,43.073
			L221.145,43.073z"/>
		<path fill-rule="evenodd" clip-rule="evenodd" fill="#007DDB" d="M225.028,45.66h-2.797v-0.283c0.07,0,0.187-0.009,0.34-0.026
			c0.144-0.008,0.25-0.023,0.313-0.048c0.1-0.033,0.162-0.081,0.207-0.139c0.045-0.057,0.07-0.139,0.07-0.244v-4.084
			c0-0.098-0.018-0.171-0.053-0.236c-0.027-0.066-0.107-0.113-0.225-0.155c-0.088-0.031-0.197-0.065-0.33-0.089
			c-0.136-0.031-0.242-0.05-0.323-0.05l0.001-0.284h2.797v0.284c-0.09,0-0.199,0.01-0.323,0.026
			c-0.126,0.016-0.243,0.039-0.333,0.063c-0.107,0.033-0.188,0.091-0.223,0.154c-0.037,0.073-0.055,0.155-0.055,0.245v4.076
			c0,0.09,0.018,0.162,0.063,0.236c0.035,0.064,0.116,0.122,0.215,0.162c0.063,0.017,0.162,0.041,0.296,0.065
			c0.144,0.023,0.259,0.042,0.36,0.042V45.66z"/>
		<path fill-rule="evenodd" clip-rule="evenodd" fill="#007DDB" d="M232.18,40.306c-0.081,0-0.207,0.026-0.377,0.065
			c-0.171,0.033-0.297,0.073-0.367,0.123c-0.1,0.065-0.17,0.188-0.207,0.382c-0.035,0.188-0.055,0.424-0.055,0.708v4.134h-0.383
			l-3.766-4.614v2.906c0,0.325,0.026,0.577,0.072,0.756c0.044,0.17,0.115,0.293,0.205,0.367c0.063,0.063,0.207,0.113,0.412,0.162
			c0.215,0.056,0.351,0.082,0.42,0.082l0.002,0.283h-2.546v-0.283c0.072,0,0.206-0.034,0.395-0.074
			c0.188-0.049,0.304-0.089,0.349-0.131c0.1-0.073,0.17-0.186,0.207-0.333c0.045-0.155,0.063-0.415,0.063-0.782v-2.782
			c0-0.122-0.027-0.244-0.072-0.366c-0.044-0.122-0.107-0.212-0.188-0.276c-0.107-0.09-0.252-0.162-0.43-0.228
			c-0.18-0.057-0.323-0.099-0.432-0.099v-0.284h1.775l3.486,4.296v-2.677c0-0.333-0.018-0.585-0.072-0.756
			c-0.043-0.18-0.105-0.293-0.195-0.352c-0.08-0.056-0.216-0.104-0.403-0.154c-0.181-0.039-0.323-0.073-0.423-0.073v-0.284h2.529
			V40.306z"/>
		<path fill-rule="evenodd" clip-rule="evenodd" fill="#007DDB" d="M237.898,44.001l-0.116,1.659h-5.154v-0.283
			c0.09,0,0.206-0.017,0.35-0.034c0.145-0.016,0.242-0.032,0.286-0.048c0.091-0.041,0.161-0.099,0.198-0.162
			c0.035-0.059,0.055-0.139,0.055-0.236v-4.053c0-0.09-0.02-0.171-0.055-0.236c-0.025-0.065-0.098-0.121-0.198-0.163
			c-0.081-0.031-0.188-0.065-0.322-0.089c-0.125-0.031-0.231-0.05-0.313-0.05v-0.284h4.805v1.359h-0.323
			c-0.062-0.205-0.188-0.414-0.384-0.643c-0.189-0.229-0.377-0.352-0.547-0.367c-0.1-0.016-0.207-0.023-0.332-0.023
			c-0.126-0.008-0.262-0.008-0.423-0.008h-0.977v2.238h0.7c0.225,0,0.385-0.018,0.492-0.059c0.099-0.04,0.188-0.105,0.269-0.194
			c0.063-0.073,0.126-0.181,0.171-0.31c0.045-0.123,0.07-0.244,0.09-0.359h0.323v2.207h-0.323c-0.02-0.131-0.045-0.261-0.1-0.407
			c-0.053-0.139-0.107-0.244-0.161-0.31c-0.089-0.097-0.188-0.17-0.304-0.204c-0.117-0.024-0.27-0.04-0.457-0.04h-0.7v1.692
			c0,0.163,0.009,0.302,0.037,0.399c0.026,0.097,0.081,0.17,0.151,0.22c0.08,0.048,0.18,0.081,0.313,0.097
			c0.136,0.017,0.314,0.024,0.557,0.024c0.1,0,0.225,0,0.386,0c0.153,0,0.288-0.008,0.395-0.017
			c0.118-0.008,0.225-0.032,0.349-0.057c0.118-0.032,0.198-0.065,0.253-0.113c0.134-0.131,0.269-0.317,0.421-0.577
			c0.145-0.263,0.242-0.448,0.277-0.57H237.898z"/>
		<path fill-rule="evenodd" clip-rule="evenodd" fill="#007DDB" d="M242.397,43.073c0.136,0.132,0.234,0.276,0.297,0.438
			c0.063,0.154,0.09,0.334,0.09,0.545c0,0.496-0.205,0.912-0.608,1.238c-0.405,0.318-0.907,0.48-1.507,0.48
			c-0.279,0-0.556-0.041-0.835-0.115c-0.276-0.081-0.519-0.179-0.717-0.283l-0.188,0.291h-0.349l-0.063-1.936h0.357
			c0.072,0.236,0.153,0.455,0.253,0.643c0.098,0.195,0.223,0.375,0.384,0.545c0.152,0.154,0.331,0.276,0.538,0.375
			c0.199,0.09,0.439,0.137,0.7,0.137c0.204,0,0.386-0.023,0.528-0.071c0.152-0.05,0.278-0.114,0.367-0.204
			c0.098-0.089,0.162-0.188,0.207-0.309c0.044-0.114,0.07-0.253,0.07-0.407c0-0.229-0.07-0.431-0.214-0.627
			c-0.136-0.194-0.341-0.341-0.619-0.446c-0.196-0.066-0.411-0.146-0.653-0.229c-0.242-0.081-0.458-0.162-0.637-0.236
			c-0.35-0.146-0.619-0.333-0.816-0.562c-0.197-0.235-0.287-0.537-0.287-0.912c0-0.21,0.046-0.415,0.145-0.593
			c0.089-0.188,0.232-0.35,0.412-0.496c0.16-0.139,0.367-0.252,0.59-0.326c0.234-0.081,0.476-0.123,0.729-0.123
			c0.285,0,0.536,0.043,0.77,0.123c0.225,0.082,0.43,0.172,0.619,0.276l0.179-0.269h0.349l0.037,1.871h-0.359
			c-0.062-0.21-0.133-0.422-0.214-0.618c-0.081-0.194-0.189-0.374-0.313-0.528c-0.127-0.154-0.279-0.276-0.458-0.367
			c-0.179-0.089-0.403-0.137-0.663-0.137c-0.279,0-0.521,0.082-0.709,0.244c-0.195,0.162-0.296,0.357-0.296,0.586
			c0,0.243,0.063,0.446,0.189,0.61c0.124,0.163,0.304,0.292,0.548,0.389c0.213,0.1,0.42,0.181,0.625,0.245
			c0.207,0.064,0.404,0.139,0.602,0.219c0.17,0.066,0.34,0.146,0.502,0.229C242.138,42.854,242.282,42.959,242.397,43.073
			L242.397,43.073z"/>
		<path fill-rule="evenodd" clip-rule="evenodd" fill="#007DDB" d="M247.426,43.073c0.135,0.132,0.233,0.276,0.297,0.438
			c0.063,0.154,0.09,0.334,0.09,0.545c0,0.496-0.207,0.912-0.611,1.238c-0.402,0.318-0.904,0.48-1.504,0.48
			c-0.279,0-0.556-0.041-0.834-0.115c-0.277-0.081-0.52-0.179-0.718-0.283l-0.188,0.291h-0.351l-0.062-1.936h0.357
			c0.072,0.236,0.152,0.455,0.251,0.643c0.1,0.195,0.225,0.375,0.386,0.545c0.153,0.154,0.331,0.276,0.538,0.375
			c0.196,0.09,0.438,0.137,0.699,0.137c0.206,0,0.385-0.023,0.528-0.071c0.152-0.05,0.278-0.114,0.368-0.204
			c0.099-0.089,0.162-0.188,0.205-0.309c0.046-0.114,0.072-0.253,0.072-0.407c0-0.229-0.072-0.431-0.215-0.627
			c-0.134-0.194-0.341-0.341-0.618-0.446c-0.198-0.066-0.411-0.146-0.654-0.229c-0.241-0.081-0.458-0.162-0.636-0.236
			c-0.352-0.146-0.619-0.333-0.818-0.562c-0.195-0.235-0.285-0.537-0.285-0.912c0-0.21,0.043-0.415,0.145-0.593
			c0.089-0.188,0.232-0.35,0.412-0.496c0.16-0.139,0.365-0.252,0.59-0.326c0.233-0.081,0.476-0.123,0.727-0.123
			c0.287,0,0.538,0.043,0.771,0.123c0.225,0.082,0.43,0.172,0.619,0.276l0.179-0.269h0.349l0.037,1.871h-0.359
			c-0.063-0.21-0.135-0.422-0.215-0.618c-0.082-0.194-0.189-0.374-0.313-0.528c-0.127-0.154-0.279-0.276-0.459-0.367
			c-0.178-0.089-0.402-0.137-0.662-0.137c-0.279,0-0.521,0.082-0.709,0.244c-0.197,0.162-0.296,0.357-0.296,0.586
			c0,0.243,0.063,0.446,0.188,0.61c0.126,0.163,0.306,0.292,0.547,0.389c0.216,0.1,0.423,0.181,0.628,0.245
			c0.207,0.064,0.403,0.139,0.602,0.219c0.17,0.066,0.34,0.146,0.502,0.229C247.167,42.854,247.311,42.959,247.426,43.073
			L247.426,43.073z"/>
	</g>
	
		<line fill="none" stroke="#000000" stroke-width="0.819" stroke-miterlimit="2.6131" x1="115.829" y1="29.894" x2="245.434" y2="29.894"/>
	<g>
		<path fill-rule="evenodd" clip-rule="evenodd" fill="#0891FA" d="M55.154,3.869c0.722,0,1.308,0.587,1.308,1.31
			s-0.585,1.309-1.308,1.309c-0.723,0-1.309-0.586-1.309-1.309S54.431,3.869,55.154,3.869"/>
		<polygon fill-rule="evenodd" clip-rule="evenodd" fill="#0891FA" points="54.382,8.336 54.229,34.059 41.752,42.838 		"/>
		<polygon fill-rule="evenodd" clip-rule="evenodd" fill="#0891FA" points="55.857,8.336 56.011,34.059 68.487,42.838 		"/>
	</g>
</g>
</svg>
