<?xml version="1.0" encoding="utf-8"?>
<!-- Generator: Adobe Illustrator 27.0.0, SVG Export Plug-In . SVG Version: 6.00 Build 0)  -->
<svg version="1.1" id="Layer_1" xmlns="http://www.w3.org/2000/svg" xmlns:xlink="http://www.w3.org/1999/xlink" x="0px" y="0px"
	 viewBox="0 0 2076.8 326" style="enable-background:new 0 0 2076.8 326;" xml:space="preserve">
<style type="text/css">
	.st0{fill:#22242A;}
</style>
<g id="TESLA">
	<path class="st0" d="M1745.2,136.1v156.9h50.2V188.4h183.5v104.6h50.2V136.1H1745.2 M1789.6,85.2h193.5c27.2-5,46.6-29.4,52.3-52.3
		h-298.1C1743.1,55.9,1763.1,79.5,1789.6,85.2 M1592.6,293.1c25.1-10.7,38.7-29.4,44.4-50.9h-225.7V33.6h-50.9v259.4H1592.6
		 M984.2,84.5h179.2c27.2-7.9,49.4-28.7,55.2-50.9H934.7V187h232.2v53.7h-182c-28.7,7.9-53,27.2-65.2,52.3h297.4V136.1H984.9
		L984.2,84.5 M542.7,85.2h193.5c27.2-5,47.3-29.4,52.3-52.3H489.7C495.4,55.9,515.5,79.5,542.7,85.2 M542.7,187.7h193.5
		c27.2-5,47.3-29.4,52.3-52.3H489.7C495.4,158.3,515.5,182,542.7,187.7 M542.7,293.1h193.5c27.2-5,47.3-29.4,52.3-52.3H489.7
		C495.4,263.7,515.5,288.1,542.7,293.1"/>
	<g>
		<path class="st0" d="M38.9,33.6c5.7,22.9,25.8,45.9,52.3,51.6h81.7l4.3,1.4v205.7h50.9V86.7l4.3-1.4h81.7
			c27.2-7.2,46.6-28.7,52.3-51.6v-0.7L38.9,33.6"/>
	</g>
</g>
</svg>
