<?xml version="1.0" encoding="utf-8"?>
<!-- Generator: Adobe Illustrator 27.0.0, SVG Export Plug-In . SVG Version: 6.00 Build 0)  -->
<svg version="1.1" id="Layer_1" xmlns="http://www.w3.org/2000/svg" xmlns:xlink="http://www.w3.org/1999/xlink" x="0px" y="0px"
	 viewBox="0 0 193 54" style="enable-background:new 0 0 193 54;" xml:space="preserve">
<style type="text/css">
	.st0{fill:#22242A;}
</style>
<path class="st0" d="M15,11.4H0V0h45.5v11.4H30V52H15L15,11.4z"/>
<path class="st0" d="M32.9,15.4h13.2v22.9c0,0,0.2,3.5,4,3.5c3.8,0,4.2-3.5,4.2-3.5V15.4H68v37.3H54.4v-3.5c0,0-4.2,4.7-11.2,4.7
	c-6.2,0-8.7-4.7-8.7-4.7s-1.5-2.6-1.5-6.3C32.9,39.3,32.9,15.4,32.9,15.4z"/>
<path class="st0" d="M82.3,15.4H69v37.3h13.6V32c0,0,0.6-4.7,7.7-5.6h2.3V15.8h-2.3c0,0-6,0.6-8,5.2V15.4z"/>
<path class="st0" d="M182.6,15.4h-13.3v37.3h13.6V32c0,0,0.6-4.7,7.7-5.6h2.3V15.8h-2.3c0,0-6,0.6-8,5.2V15.4z"/>
<path class="st0" d="M107.5,14.8H94.1v37.3h13.3V30.2c0,0,0.8-3.9,4.1-3.9c3.3,0,4.1,3.9,4.1,3.9V52h13.2V24.7
	c0,0-0.2-10.8-9.8-10.8c0,0-6.6-0.2-11.6,5.1V14.8z"/>
<path class="st0" d="M148.3,13.9c0,0-18.2-0.2-18.2,19.8c0,0-0.2,19.6,18.2,19.6c0,0,16.2,1.3,18.9-14.3h-12.4c0,0-1.7,5.1-5.8,5.1
	c-4.2,0-5.7-6-5.9-7.3h24.6C167.6,36.9,169.6,13.9,148.3,13.9z M143.2,28.3c0,0,1.4-5.7,5.5-5.7c4.9,0,6,5.7,6,5.7H143.2z"/>
</svg>
