<?xml version="1.0" encoding="utf-8"?>
<!-- Generator: Adobe Illustrator 27.0.0, SVG Export Plug-In . SVG Version: 6.00 Build 0)  -->
<svg version="1.1" id="Layer_1" xmlns="http://www.w3.org/2000/svg" xmlns:xlink="http://www.w3.org/1999/xlink" x="0px" y="0px"
	 viewBox="0 0 200 34.8" style="enable-background:new 0 0 200 34.8;" xml:space="preserve">
<style type="text/css">
	.st0{fill:#22242A;}
	.st1{fill:none;}
</style>
<path class="st0" d="M178.1,23.3c-1.4,0-2.6-0.6-3.5-1.7c-0.9-1.2-1.3-2.7-1.2-4.2c-0.1-1.5,0.4-3,1.2-4.2c1.6-1.9,4.4-2.2,6.3-0.6
	c0.2,0.2,0.5,0.4,0.6,0.6c0.9,1.2,1.3,2.7,1.3,4.2c0.1,1.5-0.4,3-1.3,4.2C180.7,22.8,179.4,23.4,178.1,23.3z M178.1,13.7
	c-1.5,0-2.4,1.5-2.4,3.8s0.9,3.8,2.4,3.8s2.4-1.5,2.4-3.8S179.5,13.7,178.1,13.7z M155.1,23.3c-1.4,0-2.7-0.6-3.5-1.6
	c-0.9-1.2-1.3-2.7-1.3-4.2c-0.1-1.5,0.4-3,1.3-4.2c0.8-1.1,2.1-1.7,3.5-1.6c1.7,0,3.2,1.1,3.8,2.7l-1.9,0.8c-0.2-0.9-1-1.5-1.9-1.5
	c-1.5,0-2.5,1.5-2.5,3.8c0,1,0.2,1.9,0.7,2.7c0.5,1,1.7,1.4,2.7,0.9c0.6-0.3,0.9-0.8,1.1-1.4l1.9,0.8
	C158.4,22.2,156.9,23.3,155.1,23.3z M144.2,23.3c-2.1,0.2-3.9-1.3-4.1-3.4c0-0.2,0-0.5,0-0.7v-7.4h2.3v7.4c0,1.3,0.7,2.1,1.9,2.1
	s1.9-0.8,1.9-2.1v-7.4h2.3v7.4c0.2,2.1-1.4,3.9-3.5,4.1C144.7,23.4,144.4,23.4,144.2,23.3z M116.3,23.3c-1.4,0.1-2.8-0.5-3.8-1.5
	l1.1-1.8c0.7,0.8,1.7,1.2,2.7,1.2c0.9,0,1.6-0.5,1.6-1.2c0-0.8-0.9-1.2-1.9-1.6c-1.4-0.6-3.1-1.3-3.1-3.5c0-0.9,0.3-1.7,1-2.3
	c0.7-0.7,1.7-1,2.7-1c1.3,0,2.5,0.4,3.4,1.2l-1.1,1.7c-0.6-0.6-1.5-1-2.4-1c-0.7-0.1-1.3,0.4-1.3,1c0,0,0,0.1,0,0.1
	c0,0.7,0.8,1.1,1.8,1.5c1.4,0.6,3.2,1.3,3.2,3.6c0,0.9-0.3,1.8-1,2.5C118.4,23,117.4,23.4,116.3,23.3L116.3,23.3z M95.8,23.3
	c-1.4,0-2.6-0.6-3.5-1.7c-0.9-1.2-1.3-2.7-1.2-4.2c-0.1-1.5,0.4-3,1.2-4.2c0.8-1.1,2.1-1.7,3.5-1.6c1.4,0,2.6,0.6,3.5,1.7
	c0.9,1.2,1.3,2.7,1.3,4.2c0.1,1.5-0.4,3-1.3,4.2C98.4,22.8,97.2,23.4,95.8,23.3L95.8,23.3z M95.8,13.7c-1.5,0-2.4,1.5-2.4,3.8
	s0.9,3.8,2.4,3.8c1.5,0,2.4-1.5,2.4-3.8S97.3,13.7,95.8,13.7L95.8,13.7z M86,23.3c-1.4,0-2.7-0.6-3.5-1.6c-0.9-1.2-1.4-2.7-1.3-4.2
	c-0.1-1.5,0.4-3,1.3-4.2c0.9-1.1,2.1-1.7,3.5-1.6c1.7,0,3.2,1.1,3.8,2.7l-1.9,0.8c-0.2-0.9-1-1.5-1.9-1.5c-1.5,0-2.5,1.5-2.5,3.8
	c0,1,0.2,1.9,0.7,2.7c0.4,0.7,1.1,1.1,1.8,1.1c0.9-0.1,1.7-0.7,1.9-1.6l1.9,0.8C89.3,22.2,87.7,23.3,86,23.3L86,23.3z M197.3,23.3
	h-0.4v-2.9h0.6l0.7,2.1l0.7-2.1h0.6v2.9h-0.4v-2.4l-0.9,2.4h-0.1l-0.9-2.4L197.3,23.3L197.3,23.3z M195.7,23.3h-0.4v-2.6h-0.7v-0.3
	h1.7v0.3h-0.7L195.7,23.3L195.7,23.3z M187,23.1h-2.3V11.9h2.3l3.7,6.6v-6.6h2.3v11.3h-2.2l-3.9-6.9V23.1L187,23.1z M132.5,23.1
	h-2.3V11.9h4.2c0.9,0,1.8,0.3,2.5,1c0.6,0.7,1,1.6,1,2.6c0.1,1.4-0.7,2.7-2,3.2l2.1,4.5h-2.5l-1.7-4.1h-1.2L132.5,23.1L132.5,23.1z
	 M132.5,13.9v3.2h1.6c0.8,0,1.5-0.6,1.5-1.4c0-0.1,0-0.1,0-0.2c0.1-0.8-0.5-1.5-1.3-1.6c-0.1,0-0.1,0-0.2,0L132.5,13.9z M104.7,23.1
	h-2.3V11.9h2.3l3.7,6.6v-6.6h2.3v11.3h-2.2l-3.9-6.9V23.1L104.7,23.1z M164.8,23.1h-2.3v-9.3H160v-2h7.3v2h-2.5L164.8,23.1
	L164.8,23.1z M126,23.1h-2.3v-9.3h-2.5v-2h7.3v2H126L126,23.1L126,23.1z M171.4,23.1h-2.3V11.9h2.3V23.1L171.4,23.1z"/>
<rect x="2.2" y="1.1" class="st1" width="29.3" height="29.3"/>
<rect x="42.4" y="1.1" class="st1" width="29.3" height="29.3"/>
<path class="st0" d="M74,34.3H39.6V0H74V34.3L74,34.3z M50.8,7.5v19.6h12.9v-4.4h-7.9V7.5H50.8z"/>
<path class="st0" d="M34.3,34.3H0V0h34.3V34.3L34.3,34.3z M17.2,20.7L17.2,20.7l4.3,6.6h6l-6.8-10.1l6.4-9.5h-6l-3.8,6.1l-3.8-6.1
	h-6l6.4,9.5l-6.8,10h6L17.2,20.7L17.2,20.7z"/>
</svg>
